<svg xmlns="http://www.w3.org/2000/svg" width="512" height="512" style="" viewBox="0 0 512 512" data-bbox="92.89069366455078 104.85673904418945 395.1935911058681 237.36472992016098">
  <defs transform="matrix(1, 0, 0, 1, 0, 0)">
    <linearGradient id="o_f0efm5ec4_3" x1="0%" y1="50%" x2="100%" y2="50%">
      <stop offset="0%" stop-color="rgb(0, 0, 0)" stop-opacity="1" />
      <stop offset="51%" stop-color="rgb(0,0,0)" stop-opacity="1" />
      <stop offset="100%" stop-color="rgb(0, 0, 0)" stop-opacity="1" />
    </linearGradient>
    <linearGradient id="o_f0efm5ec4_4" x1="0%" y1="50%" x2="100%" y2="50%">
      <stop offset="0%" stop-color="rgb(0, 0, 0)" stop-opacity="1" />
      <stop offset="51%" stop-color="rgb(0, 0, 0)" stop-opacity="1" />
      <stop offset="100%" stop-color="rgb(0, 0, 0)" stop-opacity="1" />
    </linearGradient>
  </defs>
  <g transform="matrix(0.9639018177986145, 0, 0, 1, 119.91233825683594, 57.80781936645508)">
    <path fill-rule="evenodd" clip-rule="evenodd" d="M255.739,115.18c-2.653-1.883-4.97-4.159-7.739-6.12     c-8.032-5.685-18.752-9.983-32.94-8.46c-16.233,1.742-29.144,9.298-37.439,18.72c3.763-6.603,10.436-12.126,17.64-16.74     c7.142-4.573,15.624-8.141,25.38-8.82C238.967,92.484,248.72,103.549,255.739,115.18z" transform="matrix(1, 0, 0, 1, 0, 0)" />
    <path fill-rule="evenodd" clip-rule="evenodd" d="M210.38,189.881c0.152-0.033,0.17,0.069,0.18,0.18     c1.8,8.031,9.128,11.499,14.04,17.1c3.806,4.34,5.617,10.148,8.46,15.301c2.878,5.214,6.641,8.674,11.16,12.42     c-7.494-2.558-12.938-8.928-16.561-17.101c-1.799-4.059-3.721-7.399-6.3-10.439c-2.603-3.069-6.236-5.042-8.46-8.28     C211.373,196.837,210.076,192.355,210.38,189.881z" transform="matrix(1, 0, 0, 1, 0, 0)" />
    <path fill-rule="evenodd" clip-rule="evenodd" d="M104.36,156.22c0.153-0.033,0.169,0.07,0.18,0.18     c17.113,11.69,39.823,21.813,64.44,23.58c-6.008,2.229-12.571,0.852-18.54-0.54c-5.912-1.378-11.583-3.37-16.92-5.58     c-7.849-3.249-15.383-6.867-22.5-11.7C108.302,160.313,105.658,158.658,104.36,156.22z" transform="matrix(1, 0, 0, 1, 0, 0)" />
    <path fill-rule="evenodd" clip-rule="evenodd" d="M258.801,107.44c0.209-0.029,0.32,0.04,0.359,0.18     c0.182,6.006-0.155,11.489,0.721,17.1c0.454,2.914,1.482,5.694,1.979,8.64c0.996,5.901,1.343,12.172,2.16,18.72     c0.369,2.957,1.257,6.151,0.36,9.18c-1.316,2.211-13.409,4.663-14.58,0.18c-0.282-1.079,0.485-3.04,0.359-4.5     c-0.354-4.106-4.316-8.195-7.02-10.8c-2.55-2.456-4.234-3.908-5.76-8.46c-0.976-2.91-0.598-7.663,1.08-9.9     c1.072-1.43,3.492-2.59,5.22-3.24c1.949-0.733,4.271-1.093,6.84-1.44c-6.029,1.61-10.586,3.974-11.34,10.08     c-1.096,8.87,6.356,12.453,9.54,17.82c1.781,3.003,2.635,5.725,1.979,10.26c3.549,2.456,10.224,1.5,12.96-1.08     c-1.924-13.045-1.774-26.696-5.76-37.98c-0.541-1.531-1.525-3.215-1.62-4.5C256.09,115.123,258.523,109.909,258.801,107.44z" transform="matrix(1, 0, 0, 1, 0, 0)" />
    <path fill-rule="evenodd" clip-rule="evenodd" d="M177.439,60.1c-2.329-1.818-2.411-4.511-4.5-6.48     c-6.096-5.747-16.339-1.377-18.18,5.04c-0.379-6.939,3.8-10.79,9.9-11.52C172.394,46.214,178.633,52.477,177.439,60.1z" transform="matrix(1, 0, 0, 1, 0, 0)" />
    <path fill-rule="evenodd" clip-rule="evenodd" d="M160.16,60.82c4.272,1.775,17.547,4.918,17.1-3.24     c1.498,1.917,5.63,9.237,0.72,10.08c-4.049,0.696-12.913-3.339-15.66-5.04C161.402,62.052,160.818,61.051,160.16,60.82z" transform="matrix(1, 0, 0, 1, 0, 0)" />
    <path fill-rule="evenodd" clip-rule="evenodd" d="M150.44,79.36c2.016,7.464,5.405,14.183,9.54,20.34     c2.889,4.302,6.811,8.563,10.439,10.8c1.868,1.151,4.508,1.971,5.58,3.78c-7.34-1.082-12.964-5.833-17.46-11.7     c-4.477-5.843-9.292-14.604-8.1-22.68C150.44,79.72,150.44,79.54,150.44,79.36z" transform="matrix(1, 0, 0, 1, 0, 0)" />
    <path fill-rule="evenodd" clip-rule="evenodd" d="M167.181,129.78c5.445,3.206,10.454,7.748,10.979,16.2     c0.591,9.504-2.79,19.363-3.78,28.8c-0.364,3.475-0.878,7.674,0.181,9.9c1.36,2.862,6.814,1.85,9.899,1.8     c-3.252,1.7-7.144,4.018-11.52,2.34c-2.855-2.535-2.025-10.334-1.44-15.3c0.6-5.09,1.696-9.376,2.7-13.5     c2.392-9.819,2.669-19.631-2.7-26.1C170.182,132.331,169.062,131.399,167.181,129.78z" transform="matrix(1, 0, 0, 1, 0, 0)" />
    <path fill-rule="evenodd" clip-rule="evenodd" d="M170.42,110.675c8.707,2.198,15.482,5.445,22.102,9.647     c6.264,3.978,12.027,8.36,17.892,13.156c9.997,8.175,20.539,15.956,33.327,20.873c1.631,0.627,4.176,0.892,4.736,3.158     c-15.742-4.793-27.375-13.57-39.116-22.277c-11.671-8.655-23.041-18.16-38.94-22.452     C170.42,112.079,170.42,111.377,170.42,110.675z" transform="matrix(1, 0, 0, 1, 0, 0)" />
    <path fill-rule="evenodd" clip-rule="evenodd" d="M149.9,67.3c0,0.06,0,0.12,0,0.18c-2.833,3.959-4.646,9.571-6.84,15.48     c-2.953,7.954-5.65,17.215-4.5,25.92c-1.656-2.12-2.133-4.468-2.34-7.56C135.286,87.389,142.127,72.583,149.9,67.3z" transform="matrix(1, 0, 0, 1, 0, 0)" />
    <path fill-rule="evenodd" clip-rule="evenodd" d="M124.88,105.28c8.568,6.322,19.262,13.42,30.96,16.92     c2.375,0.71,5.101,1.249,8.101,1.08c-3.024,1.833-7.011,1.3-10.44,0.72C140.712,121.836,130.351,114.717,124.88,105.28z" transform="matrix(1, 0, 0, 1, 0, 0)" />
    <path fill-rule="evenodd" clip-rule="evenodd" d="M17.6,57.94c0.034-0.205,0.18-0.1,0.18,0c4.204,4.033,9.206,6.506,15.66,7.38     c6.253,0.847,13.14,0.534,19.26,2.16c12.249,3.254,18.382,11.619,20.34,25.38c-2.742-11.428-9.518-20.976-22.68-22.68     c-6.882-0.891-13.738-0.635-19.62-2.52C25.001,65.821,20.772,62.691,17.6,57.94z" transform="matrix(1, 0, 0, 1, 0, 0)" />
    <path fill-rule="evenodd" clip-rule="evenodd" d="M96.62,142.36c-0.496,9.408-4.118,21.875-16.38,18.9     c-4.82-1.169-9.37-4.38-13.5-7.2c-4.559-3.112-11.187-9.517-18-6.659c-7.219,3.027-11.146,11.105-15.12,17.819     c0.526-2.009,1.367-4.15,2.52-6.12c3.281-5.602,8.327-12.429,13.86-14.76c7.394-3.115,13.852,3.89,18.9,7.2     c4.424,2.901,11.07,6.491,17.82,4.68C92.726,154.608,94.912,148.658,96.62,142.36z" transform="matrix(1, 0, 0, 1, 0, 0)" />
    <path fill-rule="evenodd" clip-rule="evenodd" d="M177.62,118.6c-0.785,1.371-2.394,2.041-3.78,2.88     c-4.282,2.592-9.523,4.614-16.199,4.86c-8.828,0.325-16.27-2.801-23.041-5.76c-13.534-5.916-24.111-14.27-37.44-20.16     c-3.469-1.533-6.938-2.74-10.8-3.6c-3.877-0.863-7.84-1.2-12.24-1.8c17.354-4.325,33.934,5.351,45.54,12.06     c11.459,6.624,22.326,14.372,37.26,15.3C165.454,122.91,171.014,120.627,177.62,118.6z" transform="matrix(1, 0, 0, 1, 0, 0)" />
    <path fill-rule="evenodd" clip-rule="evenodd" d="M192.38,136.06c0,0.06,0,0.12,0,0.18c6.726,1.656,13.654,7.257,17.641,12.06     c4.368,5.264,5.644,11.559,9.359,17.28c3.422,5.27,7.721,9.303,12.42,14.04c9.186,9.259,18.784,17.058,24.66,28.439     c-8.999-9.68-19.973-18.546-29.7-28.079c-4.882-4.786-9.812-9.396-12.42-16.2c-1.073-2.803-1.607-5.69-2.88-8.28     c-4.231-8.609-11.83-13.923-19.8-19.08C191.479,135.878,192.062,136.101,192.38,136.06z" transform="matrix(1, 0, 0, 1, 0, 0)" stroke="url(#o_f0efm5ec4_3)" stroke-width="1" />
  </g>
  <path text="STEA" fill="rgba(142,36,46,0.98)" space="preserve" text-anchor="middle" offset="0.5" font-scale="contain" font-size="48" font-family="Baloo Bhai 2" transform="matrix(1.1809695959091187, 0, 0, 1.2250651121139526, 272.662419903972, 291.1707250965933)" font-weight="400" font-style="normal" path="M-81.51323843322344 0.62000083923337C-45.56123843322344 0.62000083923337 33.617600508517086 0.62000083923337 69.56960050851708 0.62000083923337" data-fl-textpath="" d="M-45.68782244873047-2.0199991607666017L-45.68782244873047-2.0199991607666017Q-42.477822448730464-2.0199991607666017 -40.81782244873047-3.479999160766601Q-39.16782244873047-4.949999160766602 -39.16782244873047-7.249999160766602L-39.16782244873047-7.249999160766602Q-39.16782244873047-9.269999160766602 -40.43782244873047-10.519999160766602Q-41.70782244873047-11.759999160766602 -44.44782244873047-12.5799991607666L-44.44782244873047-12.5799991607666L-48.617822448730465-13.8299991607666Q-51.68782244873047-14.739999160766601 -53.44782244873047-16.519999160766602Q-55.19782244873047-18.2899991607666 -55.19782244873047-21.319999160766603L-55.19782244873047-21.319999160766603Q-55.19782244873047-23.139999160766603 -54.49782244873047-24.5999991607666Q-53.80782244873047-26.069999160766603 -52.507822448730465-27.0799991607666Q-51.20782244873047-28.0799991607666 -49.40782244873047-28.639999160766603Q-47.60782244873047-29.1899991607666 -45.35782244873047-29.1899991607666L-45.35782244873047-29.1899991607666Q-43.43782244873047-29.1899991607666 -41.77782244873047-28.8799991607666Q-40.12782244873047-28.5599991607666 -38.897822448730466-28.0099991607666Q-37.67782244873047-27.4599991607666 -37.007822448730465-26.7899991607666Q-36.32782244873047-26.1199991607666 -36.32782244873047-25.3999991607666L-36.32782244873047-25.3999991607666Q-36.32782244873047-24.7199991607666 -36.66782244873047-24.2399991607666Q-37.007822448730465-23.7599991607666 -37.52782244873047-23.479999160766603L-37.52782244873047-23.479999160766603Q-38.77782244873047-24.4399991607666 -40.76782244873047-25.159999160766603Q-42.76782244873047-25.8799991607666 -45.20782244873047-25.8799991607666L-45.20782244873047-25.8799991607666Q-48.04782244873047-25.8799991607666 -49.647822448730466-24.679999160766602Q-51.257822448730465-23.479999160766603 -51.257822448730465-21.319999160766603L-51.257822448730465-21.319999160766603Q-51.257822448730465-19.639999160766603 -50.10782244873047-18.5799991607666Q-48.95782244873047-17.519999160766602 -46.26782244873047-16.7599991607666L-46.26782244873047-16.7599991607666L-43.33782244873047-15.889999160766603Q-39.54782244873047-14.789999160766602 -37.367822448730465-12.799999160766601Q-35.17782244873047-10.799999160766601 -35.17782244873047-7.249999160766602L-35.17782244873047-7.249999160766602Q-35.17782244873047-3.4599991607666016 -37.91782244873047-1.1099991607666015Q-40.647822448730466 1.2400008392333985 -45.68782244873047 1.2400008392333985L-45.68782244873047 1.2400008392333985Q-47.897822448730466 1.2400008392333985 -49.69782244873047 0.8600008392333984Q-51.49782244873047 0.4800008392333984 -52.76782244873047-0.14999916076660158Q-54.04782244873047-0.7699991607666015 -54.73782244873047-1.5199991607666017Q-55.43782244873047-2.2599991607666015 -55.43782244873047-2.9799991607666017L-55.43782244873047-2.9799991607666017Q-55.43782244873047-3.7999991607666015 -54.92782244873047-4.349999160766601Q-54.42782244873047-4.899999160766601 -53.757822448730465-5.139999160766601L-53.757822448730465-5.139999160766601Q-53.22782244873047-4.609999160766602 -52.45782244873047-4.059999160766601Q-51.68782244873047-3.5099991607666015 -50.68782244873047-3.0499991607666015Q-49.67782244873047-2.5999991607666018 -48.42782244873047-2.3099991607666017Q-47.17782244873047-2.0199991607666017 -45.68782244873047-2.0199991607666017ZM-10.5038204498291-25.249999160766603L-18.4238204498291-25.249999160766603L-18.4238204498291 0.5200008392333985Q-18.663820449829103 0.6200008392333984 -19.1738204498291 0.7400008392333984Q-19.6738204498291 0.8600008392333984 -20.203820449829102 0.8600008392333984L-20.203820449829102 0.8600008392333984Q-22.3138204498291 0.8600008392333984 -22.3138204498291-0.9199991607666016L-22.3138204498291-0.9199991607666016L-22.3138204498291-25.249999160766603L-31.293820449829102-25.249999160766603Q-31.433820449829103-25.4899991607666 -31.5838204498291-25.8999991607666Q-31.723820449829102-26.3099991607666 -31.723820449829102-26.839999160766602L-31.723820449829102-26.839999160766602Q-31.723820449829102-27.6499991607666 -31.343820449829103-28.109999160766602Q-30.953820449829102-28.5599991607666 -30.2338204498291-28.5599991607666L-30.2338204498291-28.5599991607666L-9.453820449829102-28.5599991607666Q-9.3038204498291-28.319999160766603 -9.1638204498291-27.9199991607666Q-9.023820449829103-27.5099991607666 -9.023820449829103-27.0299991607666L-9.023820449829103-27.0299991607666Q-9.023820449829103-26.2099991607666 -9.403820449829102-25.729999160766603Q-9.7838204498291-25.249999160766603 -10.5038204498291-25.249999160766603L-10.5038204498291-25.249999160766603ZM-1.4398132934570311 0.6200008392333984L-1.4398132934570311 0.6200008392333984Q-2.399813293457031 0.6200008392333984 -2.9698132934570314 0.04000083923339848Q-3.5498132934570314-0.5299991607666015 -3.5498132934570314-1.4899991607666014L-3.5498132934570314-1.4899991607666014L-3.5498132934570314-26.449999160766602Q-3.5498132934570314-27.409999160766603 -2.9698132934570314-27.9899991607666Q-2.399813293457031-28.5599991607666 -1.4398132934570311-28.5599991607666L-1.4398132934570311-28.5599991607666L 14.50018670654297-28.5599991607666Q 14.64018670654297-28.319999160766603  14.790186706542968-27.9199991607666Q 14.930186706542969-27.5099991607666  14.930186706542969-27.0299991607666L 14.930186706542969-27.0299991607666Q 14.930186706542969-26.2099991607666  14.55018670654297-25.729999160766603Q 14.16018670654297-25.249999160766603  13.44018670654297-25.249999160766603L 13.44018670654297-25.249999160766603L 0.3401867065429691-25.249999160766603L 0.3401867065429691-15.989999160766601L 13.010186706542967-15.989999160766601Q 13.16018670654297-15.749999160766603  13.30018670654297-15.339999160766602Q 13.44018670654297-14.929999160766602  13.44018670654297-14.449999160766602L 13.44018670654297-14.449999160766602Q 13.44018670654297-13.639999160766601  13.060186706542968-13.179999160766602Q 12.680186706542969-12.719999160766601  11.96018670654297-12.719999160766601L 11.96018670654297-12.719999160766601L 0.3401867065429691-12.719999160766601L 0.3401867065429691-2.6399991607666013L 14.740186706542968-2.6399991607666013Q 14.880186706542968-2.3999991607666016  15.03018670654297-2.0199991607666017Q 15.170186706542967-1.6399991607666013  15.170186706542967-1.1099991607666015L 15.170186706542967-1.1099991607666015Q 15.170186706542967-0.2899991607666016  14.790186706542968 0.16000083923339842Q 14.400186706542968 0.6200008392333984  13.680186706542969 0.6200008392333984L 13.680186706542969 0.6200008392333984L-1.4398132934570311 0.6200008392333984ZM 40.36818255615235-0.7699991607666015L 38.208182556152344-7.159999160766602L 25.348182556152345-7.159999160766602Q 25.008182556152345-6.199999160766602  24.628182556152346-5.069999160766602Q 24.248182556152344-3.939999160766601  23.888182556152344-2.8599991607666015Q 23.528182556152345-1.7799991607666015  23.188182556152345-0.8399991607666015Q 22.848182556152345 0.09000083923339841  22.658182556152347 0.7200008392333984L 22.658182556152347 0.7200008392333984Q 21.988182556152346 1.0000008392333983  21.078182556152345 1.0000008392333983L 21.078182556152345 1.0000008392333983Q 20.308182556152346 1.0000008392333983  19.708182556152344 0.6000008392333984Q 19.108182556152347 0.19000083923339844  19.108182556152347-0.7199991607666016L 19.108182556152347-0.7199991607666016Q 19.108182556152347-1.1599991607666016  19.248182556152344-1.6099991607666015Q 19.398182556152346-2.0699991607666015  19.588182556152347-2.5999991607666018L 19.588182556152347-2.5999991607666018Q 20.308182556152346-4.609999160766602  21.438182556152345-7.779999160766602Q 22.568182556152344-10.949999160766602  23.888182556152344-14.519999160766602Q 25.208182556152344-18.0999991607666  26.568182556152344-21.7199991607666Q 27.938182556152345-25.3499991607666  29.088182556152347-28.229999160766603L 29.088182556152347-28.229999160766603Q 29.478182556152348-28.4199991607666  30.248182556152344-28.609999160766602Q 31.008182556152345-28.799999160766603  31.828182556152345-28.799999160766603L 31.828182556152345-28.799999160766603Q 32.78818255615234-28.799999160766603  33.67818255615235-28.519999160766602Q 34.568182556152344-28.229999160766603  34.808182556152346-27.5599991607666L 34.808182556152346-27.5599991607666Q 35.958182556152344-24.769999160766602  37.278182556152345-21.199999160766602Q 38.598182556152345-17.6199991607666  39.93818255615234-13.879999160766602Q 41.28818255615235-10.129999160766602  42.50818255615235-6.5099991607666015Q 43.72818255615235-2.8799991607666016  44.68818255615234 0.04000083923339848L 44.68818255615234 0.04000083923339848Q 44.308182556152346 0.4800008392333984  43.778182556152345 0.7400008392333984Q 43.248182556152344 1.0000008392333983  42.57818255615234 1.0000008392333983L 42.57818255615234 1.0000008392333983Q 41.668182556152345 1.0000008392333983  41.18818255615234 0.6000008392333984Q 40.708182556152344 0.19000083923339844  40.36818255615235-0.7699991607666015L 40.36818255615235-0.7699991607666015ZM 31.968182556152346-25.5399991607666L 31.778182556152345-25.5399991607666Q 31.248182556152344-24.0999991607666  30.578182556152345-22.249999160766603Q 29.908182556152347-20.3999991607666  29.188182556152345-18.389999160766603Q 28.468182556152346-16.3699991607666  27.748182556152344-14.309999160766601Q 27.028182556152345-12.239999160766601  26.408182556152347-10.369999160766602L 26.408182556152347-10.369999160766602L 37.208182556152344-10.369999160766602Q 36.488182556152346-12.529999160766602  35.71818255615234-14.719999160766601Q 34.94818255615235-16.8999991607666  34.248182556152344-18.9199991607666Q 33.558182556152346-20.929999160766602  32.958182556152344-22.639999160766603Q 32.35818255615234-24.339999160766602  31.968182556152346-25.5399991607666L 31.968182556152346-25.5399991607666Z" />
  <path d="M694,351C694,161.87,540.13,8,351,8S8,161.87,8,351H0A351.1,351.1,0,0,1,674.42,214.37,348.92,348.92,0,0,1,702,351Z" transform="matrix(0.5083306431770325, 0, 0, 0.1354745775461197, 92.89069366455078, 292.66988767637685)" fill="url(#o_f0efm5ec4_4)" />Fichier 8<path d="M563.8,282c-0.1,0.5-0.2,1-0.3,1.5l0.9,12.2L563.8,282z" fill="rgba(142,46,36,0.98)" transform="matrix(0.8432588577270508, 0, 0, 0.7967304587364197, 12.148964881896973, 25.864330291748047)" /></svg>