<?xml version="1.0" encoding="UTF-8" standalone="no" ?>
<!DOCTYPE svg PUBLIC "-//W3C//DTD SVG 1.1//EN" "http://www.w3.org/Graphics/SVG/1.1/DTD/svg11.dtd">
<svg xmlns="http://www.w3.org/2000/svg" xmlns:xlink="http://www.w3.org/1999/xlink" version="1.1" width="1280" height="1024" viewBox="0 0 1280 1024" xml:space="preserve">
<desc>Created with Fabric.js 5.3.0</desc>
<defs>
</defs>
<g transform="matrix(1 0 0 1 640 512)" id="background-logo"  >
<rect style="stroke: none; stroke-width: 0; stroke-dasharray: none; stroke-linecap: butt; stroke-dashoffset: 0; stroke-linejoin: miter; stroke-miterlimit: 4; fill: rgb(63,33,95); fill-rule: nonzero; opacity: 1;"  paint-order="stroke"  x="-640" y="-512" rx="0" ry="0" width="1280" height="1024" />
</g>
<g transform="matrix(1.9211538461538462 0 0 1.9211538461538462 640 352.1424480564046)" id="logo-logo"  >
<g style=""  paint-order="stroke"   >
		<g transform="matrix(0.37002017951916794 0 0 -0.3700201795191679 0 2.842171e-14)"  >
<path style="stroke: none; stroke-width: 1; stroke-dasharray: none; stroke-linecap: butt; stroke-dashoffset: 0; stroke-linejoin: miter; stroke-miterlimit: 4; fill: rgb(255,199,59); fill-rule: nonzero; opacity: 1;"  paint-order="stroke"  transform=" translate(260.3202439769898, -155.10499999999993)" d="M 0 0 L -13.96 0 C -18.887 0 -22.799 -6.779 -22.661 -15.063 L -22.536 -22.098 C -22.383000000000003 -30.389 -26.296 -37.153999999999996 -31.236 -37.153999999999996 L -103.498 -37.153999999999996 C -94.827 -4.452999999999996 -77.95700000000001 12.026000000000003 -43.87800000000001 42.92 C -17.110000000000007 67.482 0.7489999999999952 90.551 9.72699999999999 112.123 C 23.09399999999999 145.229 21.09499999999999 173.584 21.49399999999999 180.37400000000002 C 23.31199999999999 211.776 43.97399999999999 228.97600000000003 61.02799999999999 232.94500000000002 C 86.633 238.85000000000002 95.98899999999999 214.30100000000002 97.079 189.324 C 99.711 127.185 30.203 88.792 0 0 M -156.896 0 L -170.702 0 C -175.629 0 -179.55599999999998 -6.779 -179.403 -15.063 L -179.278 -22.098 C -179.126 -30.389 -183.052 -37.153999999999996 -187.97899999999998 -37.153999999999996 L -260.24699999999996 -37.153999999999996 C -239.07899999999995 42.67400000000001 -134.27699999999996 54.60300000000001 -135.45599999999996 176.024 C -135.35899999999995 215.121 -106.89799999999997 233.85399999999998 -88.43499999999996 233.85399999999998 C -67.76999999999995 233.85399999999998 -60.713999999999956 210.053 -59.807999999999964 189.32399999999998 C -57.173 127.093 -126.357 89.453 -156.896 0 M -282.589 126.152 C -293.479 142.93200000000002 -303.343 159.198 -304.125 183.364 C -295.16 185.068 -293.808 200.096 -302.279 204.103 C -301.08 209.685 -299.149 215.583 -296.11899999999997 221.241 L -301.239 232.32700000000003 L -290.803 276.045 L -279.536 237.17700000000002 C -267.447 243.485 -253.334 243.53300000000002 -241.112 237.17100000000002 L -229.844 276.045 L -219.409 232.327 L -224.543 221.206 C -221.672 215.861 -219.651 210.012 -218.382 204.10299999999998 C -226.85 200.07999999999998 -225.498 185.08999999999997 -216.55 183.37099999999998 C -217.333 159.24699999999999 -227.14000000000001 143.01799999999997 -238.073 126.17199999999998 C -230.567 105.54499999999999 -242.61100000000002 82.36399999999998 -260.317 82.36399999999998 C -278.034 82.36399999999998 -290.041 105.47099999999998 -282.589 126.15199999999997 M -332.697 -37.15400000000004 C -337.623 -37.15400000000004 -341.536 -30.38900000000004 -341.397 -22.09800000000004 L -341.272 -15.063000000000041 C -341.119 -6.779 -345.033 0 -349.973 0 L -363.78000000000003 0 C -386.629 66.94 -432.76700000000005 106.628 -452.74300000000005 149.283 C -465.43100000000004 177.36899999999997 -461.648 206.05599999999998 -452.79800000000006 221.37199999999999 C -447.98900000000003 229.69799999999998 -441.14200000000005 233.85399999999998 -432.24000000000007 233.85399999999998 C -413.7700000000001 233.85399999999998 -385.3230000000001 215.12099999999998 -385.21900000000005 176.024 C -386.16400000000004 75.217 -310.86600000000004 45.730999999999995 -276.70500000000004 -1.6030000000000086 C -269.36400000000003 -12.065000000000008 -263.939 -23.916000000000007 -260.41400000000004 -37.15400000000001 z M -489.43899999999996 -37.15400000000004 C -494.37199999999996 -37.15400000000004 -498.28499999999997 -30.38900000000004 -498.133 -22.09800000000004 L -498.008 -15.063000000000041 C -497.86199999999997 -6.779000000000041 -501.775 -4.085620730620576e-14 -506.70799999999997 -4.085620730620576e-14 L -520.654 -4.085620730620576e-14 C -551.124 89.42299999999996 -620.404 126.81799999999996 -617.727 189.32399999999998 C -616.9689999999999 206.909 -611.063 230.67899999999997 -593.651 233.5 C -573.5989999999999 236.734 -541.646 217.553 -541.982 172.34 C -541.006 74.515 -467.077 45.02300000000001 -433.447 -1.6030000000000086 C -426.107 -12.065000000000008 -420.681 -23.916000000000007 -417.163 -37.15400000000001 z M 175.05200000000002 182.60099999999994 C 172.12400000000002 251.48499999999996 135.70700000000002 314.2819999999999 67.68900000000002 315.16299999999995 C 39.73600000000002 315.16299999999995 16.749000000000024 306.32499999999993 -2.150999999999982 283.51099999999997 C -4.329999999999982 280.854 -6.285999999999982 277.64099999999996 -8.076999999999982 274.075 C -27.01399999999998 300.061 -53.755999999999986 315.239 -87.65799999999999 315.239 C -115.73799999999999 315.239 -138.523 304.666 -156.04899999999998 283.51099999999997 C -158.55999999999997 280.43699999999995 -160.795 276.22599999999994 -162.86199999999997 271.41799999999995 C -180.42499999999995 296.29599999999994 -203.75499999999997 311.79099999999994 -233.93699999999995 314.69899999999996 L -233.93699999999995 348.52199999999993 L -213.19199999999995 348.52199999999993 C -198.62199999999996 348.52199999999993 -186.81299999999996 360.33099999999996 -186.81299999999996 374.90199999999993 C -186.81299999999996 389.4719999999999 -198.62199999999996 401.28099999999995 -213.19199999999995 401.28099999999995 L -233.93699999999995 401.28099999999995 L -233.93699999999995 423.19199999999995 C -233.93699999999995 437.76199999999994 -245.74599999999995 449.57199999999995 -260.31699999999995 449.57199999999995 C -274.88699999999994 449.57199999999995 -286.69599999999997 437.76199999999994 -286.69599999999997 423.19199999999995 L -286.69599999999997 401.28099999999995 L -307.45599999999996 401.28099999999995 C -322.025 401.28099999999995 -333.835 389.4719999999999 -333.835 374.90199999999993 C -333.835 360.3309999999999 -322.025 348.52199999999993 -307.45599999999996 348.52199999999993 L -286.69599999999997 348.52199999999993 L -286.69599999999997 314.7049999999999 C -314.782 312.0109999999999 -338.914 298.19899999999996 -357.81999999999994 271.41799999999995 C -379.4189999999999 321.97399999999993 -467.66399999999993 336.44899999999996 -512.578 274.07499999999993 C -546.3399999999999 341.3449999999999 -689.131 336.0799999999999 -695.7059999999999 182.60099999999994 C -696.7959999999999 157.18599999999995 -692.9799999999999 133.69299999999993 -684.2649999999999 112.12299999999995 C -663.5579999999999 62.25299999999995 -611.0619999999999 31.308999999999955 -587.3239999999998 -1.6030000000000513 C -576.8139999999999 -16.59400000000005 -571.0599999999998 -37.15400000000005 -571.0599999999998 -37.15400000000005 C -571.0949999999998 -37.15400000000005 -569.8669999999998 -41.046000000000056 -568.3409999999998 -51.90500000000005 C -563.9589999999998 -112.29000000000005 -566.6479999999998 -75.35800000000005 -563.1299999999998 -123.87500000000006 C -563.0819999999998 -132.39600000000007 -559.0009999999997 -139.36200000000005 -554.0619999999998 -139.36200000000005 L 33.4 -139.36200000000005 C 38.339999999999996 -139.36200000000005 42.42 -132.39600000000004 42.476 -123.87500000000006 C 45.150999999999996 -86.78600000000006 42.708 -120.66300000000005 47.679 -51.90500000000006 C 49.206 -41.046000000000056 50.441 -37.15400000000006 50.441 -37.15400000000006 C 50.391000000000005 -37.15400000000006 50.650000000000006 -36.31000000000006 50.663000000000004 -36.25900000000006 C 67.906 39.74999999999994 180.55700000000002 54.95999999999994 175.052 182.60099999999994" stroke-linecap="round" />
</g>
</g>
</g>
<g transform="matrix(1.9211538461538462 0 0 1.9211538461538462 640.922009398496 716.1700466191577)" id="text-logo"  >
<g style=""  paint-order="stroke"   >
		<g transform="matrix(1 0 0 1 -6.886130953473639 -36.047000000000025)" id="text-logo-path-0"  >
<path style="stroke: none; stroke-width: 0; stroke-dasharray: none; stroke-linecap: butt; stroke-dashoffset: 0; stroke-linejoin: miter; stroke-miterlimit: 4; fill: rgb(255,199,59); fill-rule: nonzero; opacity: 1;"  paint-order="stroke"  transform=" translate(-128.41278012923993, 19.165000000000003)" d="M 11.55 0.55 L 11.55 0.55 Q 8.58 0.55 6.13 -0.96 Q 3.69 -2.48 2.23 -4.98 Q 0.77 -7.48 0.77 -10.51 L 0.77 -10.51 L 0.77 -13.04 Q 0.77 -13.31 1.04 -13.31 L 1.04 -13.31 L 7.21 -13.31 Q 7.42 -13.31 7.42 -13.04 L 7.42 -13.04 L 7.42 -10.51 Q 7.42 -8.69 8.63 -7.4 Q 9.85 -6.11 11.55 -6.11 L 11.55 -6.11 Q 13.26 -6.11 14.46 -7.42 Q 15.68 -8.74 15.68 -10.51 L 15.68 -10.51 Q 15.68 -12.54 13.04 -14.03 L 13.04 -14.03 Q 12.15 -14.52 10.29 -15.56 Q 8.42 -16.61 6.76 -17.55 L 6.76 -17.55 Q 3.74 -19.3 2.28 -21.97 Q 0.82 -24.64 0.82 -28 L 0.82 -28 Q 0.82 -31.07 2.31 -33.52 Q 3.79 -35.97 6.24 -37.4 Q 8.69 -38.83 11.55 -38.83 L 11.55 -38.83 Q 14.46 -38.83 16.91 -37.37 Q 19.36 -35.91 20.82 -33.47 Q 22.27 -31.02 22.27 -28 L 22.27 -28 L 22.27 -23.48 Q 22.27 -23.27 22.05 -23.27 L 22.05 -23.27 L 15.89 -23.27 Q 15.68 -23.27 15.68 -23.48 L 15.68 -23.48 L 15.62 -28 Q 15.62 -29.92 14.41 -31.13 Q 13.2 -32.34 11.55 -32.34 L 11.55 -32.34 Q 9.85 -32.34 8.63 -31.05 Q 7.42 -29.75 7.42 -28 L 7.42 -28 Q 7.42 -26.18 8.2 -24.97 Q 8.96 -23.76 11 -22.66 L 11 -22.66 Q 11.28 -22.5 12.07 -22.08 Q 12.87 -21.67 13.8 -21.15 Q 14.74 -20.63 15.48 -20.24 Q 16.23 -19.86 16.39 -19.75 L 16.39 -19.75 Q 19.14 -18.21 20.73 -15.98 Q 22.33 -13.75 22.33 -10.51 L 22.33 -10.51 Q 22.33 -7.37 20.87 -4.87 Q 19.41 -2.37 16.97 -0.91 Q 14.52 0.55 11.55 0.55 Z M 37.02 0 L 31.52 0 Q 31.07 0 31.07 -0.39 L 31.07 -0.39 L 31.02 -37.84 Q 31.02 -38.28 31.46 -38.28 L 31.46 -38.28 L 36.41 -38.28 L 45.7 -16.61 L 45.43 -37.84 Q 45.43 -38.28 45.92 -38.28 L 45.92 -38.28 L 51.37 -38.28 Q 51.7 -38.28 51.7 -37.84 L 51.7 -37.84 L 51.75 -0.33 Q 51.75 0 51.48 0 L 51.48 0 L 46.64 0 L 37.13 -20.24 L 37.51 -0.44 Q 37.51 0 37.02 0 L 37.02 0 Z M 71.56 0.55 L 71.56 0.55 Q 68.59 0.55 66.14 -0.96 Q 63.69 -2.48 62.21 -4.98 Q 60.72 -7.48 60.72 -10.51 L 60.72 -10.51 L 60.78 -27.94 Q 60.78 -30.96 62.23 -33.44 Q 63.69 -35.91 66.17 -37.4 Q 68.64 -38.88 71.56 -38.88 L 71.56 -38.88 Q 74.53 -38.88 76.95 -37.4 Q 79.37 -35.91 80.82 -33.44 Q 82.28 -30.96 82.28 -27.94 L 82.28 -27.94 L 82.34 -10.51 Q 82.34 -7.48 80.88 -4.98 Q 79.42 -2.48 76.97 -0.96 Q 74.53 0.55 71.56 0.55 Z M 71.56 -6.11 L 71.56 -6.11 Q 73.21 -6.11 74.44 -7.45 Q 75.68 -8.8 75.68 -10.51 L 75.68 -10.51 L 75.63 -27.94 Q 75.63 -29.75 74.47 -31.02 Q 73.32 -32.29 71.56 -32.29 L 71.56 -32.29 Q 69.85 -32.29 68.64 -31.05 Q 67.43 -29.81 67.43 -27.94 L 67.43 -27.94 L 67.43 -10.51 Q 67.43 -8.69 68.64 -7.4 Q 69.85 -6.11 71.56 -6.11 Z M 102.08 0 L 95.43 0 Q 95.21 0 95.15 -0.28 L 95.15 -0.28 L 88.66 -38.06 Q 88.61 -38.28 88.83 -38.28 L 88.83 -38.28 L 94.99 -38.28 Q 95.21 -38.28 95.26 -38.06 L 95.26 -38.06 L 98.78 -13.2 L 102.41 -38.06 Q 102.47 -38.28 102.74 -38.28 L 102.74 -38.28 L 107.69 -38.28 Q 107.91 -38.28 107.97 -38.06 L 107.97 -38.06 L 111.54 -13.2 L 115.12 -38.06 Q 115.17 -38.28 115.39 -38.28 L 115.39 -38.28 L 121.5 -38.28 Q 121.77 -38.28 121.72 -38.06 L 121.72 -38.06 L 115.17 -0.28 Q 115.12 -0.17 115.01 -0.08 Q 114.9 0 114.9 0 L 114.9 0 L 108.24 0 Q 108.08 0 107.97 -0.28 L 107.97 -0.28 L 105.16 -20.02 L 102.36 -0.28 Q 102.3 0 102.08 0 L 102.08 0 Z M 139.92 -0.06 L 130.08 0 Q 129.8 0 129.8 -0.28 L 129.8 -0.28 L 129.91 -38.06 Q 129.91 -38.28 130.13 -38.28 L 130.13 -38.28 L 140.42 -38.34 Q 143.44 -38.39 145.94 -36.91 Q 148.45 -35.42 149.93 -32.92 Q 151.42 -30.41 151.42 -27.39 L 151.42 -27.39 L 151.42 -11.61 Q 151.42 -8.42 149.88 -5.8 Q 148.34 -3.19 145.75 -1.65 Q 143.17 -0.11 139.92 -0.06 L 139.92 -0.06 Z M 136.57 -31.68 L 136.51 -6.76 L 139.92 -6.76 Q 141.96 -6.76 143.36 -8.2 Q 144.76 -9.63 144.76 -11.61 L 144.76 -11.61 L 144.76 -27.45 Q 144.76 -29.21 143.47 -30.5 Q 142.18 -31.79 140.42 -31.73 L 140.42 -31.73 L 136.57 -31.68 Z M 169.46 0.55 L 169.46 0.55 Q 166.49 0.55 164.04 -0.96 Q 161.59 -2.48 160.11 -4.98 Q 158.62 -7.48 158.62 -10.51 L 158.62 -10.51 L 158.68 -27.94 Q 158.68 -30.96 160.13 -33.44 Q 161.59 -35.91 164.07 -37.4 Q 166.54 -38.88 169.46 -38.88 L 169.46 -38.88 Q 172.43 -38.88 174.85 -37.4 Q 177.27 -35.91 178.72 -33.44 Q 180.18 -30.96 180.18 -27.94 L 180.18 -27.94 L 180.24 -10.51 Q 180.24 -7.48 178.78 -4.98 Q 177.32 -2.48 174.87 -0.96 Q 172.43 0.55 169.46 0.55 Z M 169.46 -6.11 L 169.46 -6.11 Q 171.11 -6.11 172.34 -7.45 Q 173.58 -8.8 173.58 -10.51 L 173.58 -10.51 L 173.53 -27.94 Q 173.53 -29.75 172.37 -31.02 Q 171.22 -32.29 169.46 -32.29 L 169.46 -32.29 Q 167.75 -32.29 166.54 -31.05 Q 165.33 -29.81 165.33 -27.94 L 165.33 -27.94 L 165.33 -10.51 Q 165.33 -8.69 166.54 -7.4 Q 167.75 -6.11 169.46 -6.11 Z M 195.25 0 L 189.75 0 Q 189.31 0 189.31 -0.39 L 189.31 -0.39 L 189.26 -37.84 Q 189.26 -38.28 189.7 -38.28 L 189.7 -38.28 L 194.65 -38.28 L 203.94 -16.61 L 203.67 -37.84 Q 203.67 -38.28 204.16 -38.28 L 204.16 -38.28 L 209.61 -38.28 Q 209.94 -38.28 209.94 -37.84 L 209.94 -37.84 L 209.99 -0.33 Q 209.99 0 209.72 0 L 209.72 0 L 204.88 0 L 195.36 -20.24 L 195.75 -0.44 Q 195.75 0 195.25 0 L 195.25 0 Z M 226.11 0 L 219.89 0 Q 219.62 0 219.62 -0.28 L 219.62 -0.28 L 219.67 -38.06 Q 219.67 -38.28 219.89 -38.28 L 219.89 -38.28 L 226.05 -38.28 Q 226.27 -38.28 226.27 -38.06 L 226.27 -38.06 L 226.33 -0.28 Q 226.33 0 226.11 0 L 226.11 0 Z M 234.14 -0.28 L 234.14 -0.28 L 240.96 -38.06 Q 241.01 -38.28 241.23 -38.28 L 241.23 -38.28 L 249.21 -38.28 Q 249.43 -38.28 249.48 -38.06 L 249.48 -38.06 L 256.03 -0.28 Q 256.08 0 255.81 0 L 255.81 0 L 249.7 0 Q 249.48 0 249.43 -0.28 L 249.43 -0.28 L 248.82 -4.29 L 241.34 -4.29 L 240.74 -0.28 Q 240.68 0 240.46 0 L 240.46 0 L 234.36 0 Q 234.14 0 234.14 -0.28 Z M 244.92 -25.63 L 242.44 -10.18 L 247.72 -10.18 L 245.47 -25.63 L 245.14 -27.66 L 244.92 -25.63 Z" stroke-linecap="round" />
</g>
		<g transform="matrix(1 0 0 1 -5.684342e-14 36.04699999999997)" id="text-logo-path-1"  >
<path style="stroke: none; stroke-width: 0; stroke-dasharray: none; stroke-linecap: butt; stroke-dashoffset: 0; stroke-linejoin: miter; stroke-miterlimit: 4; fill: rgb(255,199,59); fill-rule: nonzero; opacity: 1;"  paint-order="stroke"  transform=" translate(-253.8042172340012, 19.165000000000003)" d="M 11.55 0.55 L 11.55 0.55 Q 8.58 0.55 6.13 -0.96 Q 3.69 -2.48 2.23 -4.98 Q 0.77 -7.48 0.77 -10.51 L 0.77 -10.51 L 0.77 -13.04 Q 0.77 -13.31 1.04 -13.31 L 1.04 -13.31 L 7.21 -13.31 Q 7.42 -13.31 7.42 -13.04 L 7.42 -13.04 L 7.42 -10.51 Q 7.42 -8.69 8.63 -7.4 Q 9.85 -6.11 11.55 -6.11 L 11.55 -6.11 Q 13.26 -6.11 14.46 -7.42 Q 15.68 -8.74 15.68 -10.51 L 15.68 -10.51 Q 15.68 -12.54 13.04 -14.03 L 13.04 -14.03 Q 12.15 -14.52 10.29 -15.56 Q 8.42 -16.61 6.76 -17.55 L 6.76 -17.55 Q 3.74 -19.3 2.28 -21.97 Q 0.82 -24.64 0.82 -28 L 0.82 -28 Q 0.82 -31.07 2.31 -33.52 Q 3.79 -35.97 6.24 -37.4 Q 8.69 -38.83 11.55 -38.83 L 11.55 -38.83 Q 14.46 -38.83 16.91 -37.37 Q 19.36 -35.91 20.82 -33.47 Q 22.27 -31.02 22.27 -28 L 22.27 -28 L 22.27 -23.48 Q 22.27 -23.27 22.05 -23.27 L 22.05 -23.27 L 15.89 -23.27 Q 15.68 -23.27 15.68 -23.48 L 15.68 -23.48 L 15.62 -28 Q 15.62 -29.92 14.41 -31.13 Q 13.2 -32.34 11.55 -32.34 L 11.55 -32.34 Q 9.85 -32.34 8.63 -31.05 Q 7.42 -29.75 7.42 -28 L 7.42 -28 Q 7.42 -26.18 8.2 -24.97 Q 8.96 -23.76 11 -22.66 L 11 -22.66 Q 11.28 -22.5 12.07 -22.08 Q 12.87 -21.67 13.8 -21.15 Q 14.74 -20.63 15.48 -20.24 Q 16.23 -19.86 16.39 -19.75 L 16.39 -19.75 Q 19.14 -18.21 20.73 -15.98 Q 22.33 -13.75 22.33 -10.51 L 22.33 -10.51 Q 22.33 -7.37 20.87 -4.87 Q 19.41 -2.37 16.97 -0.91 Q 14.52 0.55 11.55 0.55 Z M 37.45 0 L 31.3 0 Q 31.02 0 31.02 -0.28 L 31.02 -0.28 L 31.13 -38.06 Q 31.13 -38.28 31.35 -38.28 L 31.35 -38.28 L 41.91 -38.28 Q 46.97 -38.28 49.91 -35.2 Q 52.86 -32.12 52.86 -26.84 L 52.86 -26.84 Q 52.86 -22.93 51.31 -20.07 Q 49.78 -17.21 47.3 -15.68 Q 44.83 -14.13 41.91 -14.13 L 41.91 -14.13 L 37.73 -14.13 L 37.73 -0.28 Q 37.73 0 37.45 0 L 37.45 0 Z M 37.73 -31.68 L 37.73 -20.79 L 41.91 -20.79 Q 43.67 -20.79 44.96 -22.47 Q 46.25 -24.14 46.25 -26.84 L 46.25 -26.84 Q 46.25 -28.98 45.1 -30.36 Q 43.95 -31.73 41.91 -31.73 L 41.91 -31.73 L 37.73 -31.68 Z M 71.06 0.55 L 71.06 0.55 Q 68.09 0.55 65.64 -0.96 Q 63.2 -2.48 61.71 -4.98 Q 60.23 -7.48 60.23 -10.51 L 60.23 -10.51 L 60.28 -27.94 Q 60.28 -30.96 61.74 -33.44 Q 63.2 -35.91 65.67 -37.4 Q 68.15 -38.88 71.06 -38.88 L 71.06 -38.88 Q 74.03 -38.88 76.45 -37.4 Q 78.87 -35.91 80.33 -33.44 Q 81.78 -30.96 81.78 -27.94 L 81.78 -27.94 L 81.84 -10.51 Q 81.84 -7.48 80.38 -4.98 Q 78.92 -2.48 76.48 -0.96 Q 74.03 0.55 71.06 0.55 Z M 71.06 -6.11 L 71.06 -6.11 Q 72.71 -6.11 73.95 -7.45 Q 75.19 -8.8 75.19 -10.51 L 75.19 -10.51 L 75.13 -27.94 Q 75.13 -29.75 73.98 -31.02 Q 72.82 -32.29 71.06 -32.29 L 71.06 -32.29 Q 69.36 -32.29 68.15 -31.05 Q 66.94 -29.81 66.94 -27.94 L 66.94 -27.94 L 66.94 -10.51 Q 66.94 -8.69 68.15 -7.4 Q 69.36 -6.11 71.06 -6.11 Z M 97.3 0 L 91.08 0 Q 90.86 0 90.86 -0.28 L 90.86 -0.28 L 90.97 -38.06 Q 90.97 -38.28 91.19 -38.28 L 91.19 -38.28 L 102.3 -38.28 Q 105.27 -38.28 107.77 -36.82 Q 110.28 -35.37 111.76 -32.92 Q 113.25 -30.47 113.25 -27.39 L 113.25 -27.39 Q 113.25 -25.36 112.64 -23.73 Q 112.04 -22.11 111.21 -20.98 Q 110.39 -19.86 109.73 -19.3 L 109.73 -19.3 Q 112.7 -16 112.7 -11.55 L 112.7 -11.55 L 112.75 -0.28 Q 112.75 0 112.48 0 L 112.48 0 L 106.26 0 Q 106.04 0 106.04 -0.17 L 106.04 -0.17 L 106.04 -11.55 Q 106.04 -13.53 104.64 -14.99 Q 103.24 -16.45 101.2 -16.45 L 101.2 -16.45 L 97.57 -16.45 L 97.52 -0.28 Q 97.52 0 97.3 0 L 97.3 0 Z M 97.57 -31.68 L 97.57 -23.05 L 102.3 -23.05 Q 104.01 -23.05 105.33 -24.31 Q 106.65 -25.57 106.65 -27.39 L 106.65 -27.39 Q 106.65 -29.15 105.35 -30.41 Q 104.06 -31.68 102.3 -31.68 L 102.3 -31.68 L 97.57 -31.68 Z M 132.83 0 L 126.61 0 Q 126.39 0 126.39 -0.28 L 126.39 -0.28 L 126.39 -31.63 L 119.24 -31.63 Q 118.97 -31.63 118.97 -31.9 L 118.97 -31.9 L 119.02 -38.06 Q 119.02 -38.28 119.24 -38.28 L 119.24 -38.28 L 140.14 -38.28 Q 140.42 -38.28 140.42 -38.06 L 140.42 -38.06 L 140.42 -31.9 Q 140.42 -31.63 140.2 -31.63 L 140.2 -31.63 L 132.99 -31.63 L 133.05 -0.28 Q 133.05 0 132.83 0 L 132.83 0 Z M 154.39 0 L 148.17 0 Q 147.95 0 147.95 -0.28 L 147.95 -0.28 L 148.01 -38.06 Q 148.01 -38.28 148.28 -38.28 L 148.28 -38.28 L 154.39 -38.28 Q 154.66 -38.28 154.66 -38.06 L 154.66 -38.06 L 154.61 -23.1 L 162.86 -23.1 L 162.86 -38.06 Q 162.86 -38.28 163.08 -38.28 L 163.08 -38.28 L 169.18 -38.28 Q 169.46 -38.28 169.46 -38.06 L 169.46 -38.06 L 169.57 -0.28 Q 169.57 0 169.29 0 L 169.29 0 L 163.13 0 Q 162.86 0 162.86 -0.28 L 162.86 -0.28 L 162.86 -16.45 L 154.61 -16.45 L 154.61 -0.28 Q 154.61 0 154.39 0 L 154.39 0 Z M 189.09 0.55 L 189.09 0.55 Q 186.12 0.55 183.67 -0.96 Q 181.23 -2.48 179.74 -4.98 Q 178.26 -7.48 178.26 -10.51 L 178.26 -10.51 L 178.31 -27.94 Q 178.31 -30.96 179.77 -33.44 Q 181.23 -35.91 183.7 -37.4 Q 186.18 -38.88 189.09 -38.88 L 189.09 -38.88 Q 192.06 -38.88 194.48 -37.4 Q 196.9 -35.91 198.36 -33.44 Q 199.82 -30.96 199.82 -27.94 L 199.82 -27.94 L 199.87 -10.51 Q 199.87 -7.48 198.41 -4.98 Q 196.96 -2.48 194.51 -0.96 Q 192.06 0.55 189.09 0.55 Z M 189.09 -6.11 L 189.09 -6.11 Q 190.74 -6.11 191.98 -7.45 Q 193.22 -8.8 193.22 -10.51 L 193.22 -10.51 L 193.16 -27.94 Q 193.16 -29.75 192.01 -31.02 Q 190.85 -32.29 189.09 -32.29 L 189.09 -32.29 Q 187.39 -32.29 186.18 -31.05 Q 184.97 -29.81 184.97 -27.94 L 184.97 -27.94 L 184.97 -10.51 Q 184.97 -8.69 186.18 -7.4 Q 187.39 -6.11 189.09 -6.11 Z M 215.33 0 L 209.11 0 Q 208.89 0 208.89 -0.28 L 208.89 -0.28 L 209 -38.06 Q 209 -38.28 209.22 -38.28 L 209.22 -38.28 L 220.33 -38.28 Q 223.3 -38.28 225.8 -36.82 Q 228.31 -35.37 229.79 -32.92 Q 231.28 -30.47 231.28 -27.39 L 231.28 -27.39 Q 231.28 -25.36 230.67 -23.73 Q 230.07 -22.11 229.24 -20.98 Q 228.42 -19.86 227.76 -19.3 L 227.76 -19.3 Q 230.73 -16 230.73 -11.55 L 230.73 -11.55 L 230.78 -0.28 Q 230.78 0 230.51 0 L 230.51 0 L 224.29 0 Q 224.07 0 224.07 -0.17 L 224.07 -0.17 L 224.07 -11.55 Q 224.07 -13.53 222.67 -14.99 Q 221.27 -16.45 219.23 -16.45 L 219.23 -16.45 L 215.6 -16.45 L 215.55 -0.28 Q 215.55 0 215.33 0 L 215.33 0 Z M 215.6 -31.68 L 215.6 -23.05 L 220.33 -23.05 Q 222.04 -23.05 223.36 -24.31 Q 224.68 -25.57 224.68 -27.39 L 224.68 -27.39 Q 224.68 -29.15 223.38 -30.41 Q 222.09 -31.68 220.33 -31.68 L 220.33 -31.68 L 215.6 -31.68 Z M 249.43 0.55 L 249.43 0.55 Q 246.46 0.55 244.01 -0.96 Q 241.56 -2.48 240.1 -4.98 Q 238.65 -7.48 238.65 -10.51 L 238.65 -10.51 L 238.65 -13.04 Q 238.65 -13.31 238.92 -13.31 L 238.92 -13.31 L 245.08 -13.31 Q 245.3 -13.31 245.3 -13.04 L 245.3 -13.04 L 245.3 -10.51 Q 245.3 -8.69 246.51 -7.4 Q 247.72 -6.11 249.43 -6.11 L 249.43 -6.11 Q 251.13 -6.11 252.34 -7.42 Q 253.55 -8.74 253.55 -10.51 L 253.55 -10.51 Q 253.55 -12.54 250.91 -14.03 L 250.91 -14.03 Q 250.03 -14.52 248.16 -15.56 Q 246.29 -16.61 244.64 -17.55 L 244.64 -17.55 Q 241.62 -19.3 240.16 -21.97 Q 238.7 -24.64 238.7 -28 L 238.7 -28 Q 238.7 -31.07 240.19 -33.52 Q 241.67 -35.97 244.12 -37.4 Q 246.57 -38.83 249.43 -38.83 L 249.43 -38.83 Q 252.34 -38.83 254.79 -37.37 Q 257.24 -35.91 258.69 -33.47 Q 260.15 -31.02 260.15 -28 L 260.15 -28 L 260.15 -23.48 Q 260.15 -23.27 259.93 -23.27 L 259.93 -23.27 L 253.77 -23.27 Q 253.55 -23.27 253.55 -23.48 L 253.55 -23.48 L 253.5 -28 Q 253.5 -29.92 252.29 -31.13 Q 251.08 -32.34 249.43 -32.34 L 249.43 -32.34 Q 247.72 -32.34 246.51 -31.05 Q 245.3 -29.75 245.3 -28 L 245.3 -28 Q 245.3 -26.18 246.07 -24.97 Q 246.84 -23.76 248.88 -22.66 L 248.88 -22.66 Q 249.15 -22.5 249.95 -22.08 Q 250.75 -21.67 251.68 -21.15 Q 252.62 -20.63 253.36 -20.24 Q 254.1 -19.86 254.27 -19.75 L 254.27 -19.75 Q 257.02 -18.21 258.61 -15.98 Q 260.21 -13.75 260.21 -10.51 L 260.21 -10.51 Q 260.21 -7.37 258.75 -4.87 Q 257.29 -2.37 254.84 -0.91 Q 252.4 0.55 249.43 0.55 Z M 286.88 0 L 269.12 0 Q 268.89 0 268.89 -0.28 L 268.89 -0.28 L 268.95 -38.06 Q 268.95 -38.28 269.17 -38.28 L 269.17 -38.28 L 286.82 -38.28 Q 287.05 -38.28 287.05 -38.01 L 287.05 -38.01 L 287.05 -31.84 Q 287.05 -31.63 286.82 -31.63 L 286.82 -31.63 L 275.55 -31.63 L 275.55 -23.05 L 286.82 -23.05 Q 287.05 -23.05 287.05 -22.82 L 287.05 -22.82 L 287.1 -16.61 Q 287.1 -16.39 286.88 -16.39 L 286.88 -16.39 L 275.55 -16.39 L 275.55 -6.76 L 286.88 -6.76 Q 287.1 -6.76 287.1 -6.49 L 287.1 -6.49 L 287.1 -0.22 Q 287.1 0 286.88 0 L 286.88 0 Z M 319.93 0.55 L 319.93 0.55 Q 316.91 0.55 314.46 -0.96 Q 312.01 -2.48 310.58 -5 Q 309.15 -7.54 309.15 -10.67 L 309.15 -10.67 L 309.21 -27.83 Q 309.21 -30.86 310.61 -33.36 Q 312.01 -35.86 314.46 -37.37 Q 316.91 -38.88 319.93 -38.88 L 319.93 -38.88 Q 322.96 -38.88 325.38 -37.4 Q 327.8 -35.91 329.23 -33.41 Q 330.66 -30.91 330.66 -27.83 L 330.66 -27.83 L 330.66 -25.3 Q 330.66 -25.08 330.44 -25.08 L 330.44 -25.08 L 324.28 -25.08 Q 324.06 -25.08 324.06 -25.3 L 324.06 -25.3 L 324.06 -27.83 Q 324.06 -29.64 322.88 -30.96 Q 321.69 -32.29 319.93 -32.29 L 319.93 -32.29 Q 317.95 -32.29 316.91 -30.94 Q 315.86 -29.59 315.86 -27.83 L 315.86 -27.83 L 315.86 -10.67 Q 315.86 -8.63 317.05 -7.37 Q 318.23 -6.11 319.93 -6.11 L 319.93 -6.11 Q 321.69 -6.11 322.88 -7.51 Q 324.06 -8.91 324.06 -10.67 L 324.06 -10.67 L 324.06 -13.2 Q 324.06 -13.42 324.28 -13.42 L 324.28 -13.42 L 330.49 -13.42 Q 330.71 -13.42 330.71 -13.2 L 330.71 -13.2 L 330.71 -10.67 Q 330.71 -7.54 329.26 -5 Q 327.8 -2.48 325.38 -0.96 Q 322.96 0.55 319.93 0.55 Z M 349.74 0.55 L 349.74 0.55 Q 346.77 0.55 344.33 -0.96 Q 341.88 -2.48 340.39 -4.98 Q 338.91 -7.48 338.91 -10.51 L 338.91 -10.51 L 338.96 -27.94 Q 338.96 -30.96 340.42 -33.44 Q 341.88 -35.91 344.35 -37.4 Q 346.83 -38.88 349.74 -38.88 L 349.74 -38.88 Q 352.71 -38.88 355.13 -37.4 Q 357.55 -35.91 359.01 -33.44 Q 360.47 -30.96 360.47 -27.94 L 360.47 -27.94 L 360.52 -10.51 Q 360.52 -7.48 359.07 -4.98 Q 357.61 -2.48 355.16 -0.96 Q 352.71 0.55 349.74 0.55 Z M 349.74 -6.11 L 349.74 -6.11 Q 351.39 -6.11 352.63 -7.45 Q 353.87 -8.8 353.87 -10.51 L 353.87 -10.51 L 353.81 -27.94 Q 353.81 -29.75 352.66 -31.02 Q 351.5 -32.29 349.74 -32.29 L 349.74 -32.29 Q 348.04 -32.29 346.83 -31.05 Q 345.62 -29.81 345.62 -27.94 L 345.62 -27.94 L 345.62 -10.51 Q 345.62 -8.69 346.83 -7.4 Q 348.04 -6.11 349.74 -6.11 Z M 375.98 0 L 369.76 0 Q 369.54 0 369.54 -0.28 L 369.54 -0.28 L 369.65 -38.06 Q 369.65 -38.28 369.87 -38.28 L 369.87 -38.28 L 376.58 -38.28 Q 376.8 -38.28 376.97 -38.06 L 376.97 -38.06 L 381.97 -30.8 L 386.98 -38.06 Q 387.14 -38.28 387.36 -38.28 L 387.36 -38.28 L 394.13 -38.28 Q 394.35 -38.28 394.35 -38.06 L 394.35 -38.06 L 394.46 -0.28 Q 394.46 0 394.24 0 L 394.24 0 L 388.02 0 Q 387.8 0 387.8 -0.28 L 387.8 -0.28 L 387.75 -28.32 L 381.97 -19.96 L 376.25 -28.32 L 376.2 -0.28 Q 376.2 0 375.98 0 L 375.98 0 Z M 410.35 0 L 404.19 0 Q 403.92 0 403.92 -0.28 L 403.92 -0.28 L 404.03 -38.06 Q 404.03 -38.28 404.25 -38.28 L 404.25 -38.28 L 414.81 -38.28 Q 419.87 -38.28 422.81 -35.2 Q 425.75 -32.12 425.75 -26.84 L 425.75 -26.84 Q 425.75 -22.93 424.21 -20.07 Q 422.67 -17.21 420.2 -15.68 Q 417.72 -14.13 414.81 -14.13 L 414.81 -14.13 L 410.63 -14.13 L 410.63 -0.28 Q 410.63 0 410.35 0 L 410.35 0 Z M 410.63 -31.68 L 410.63 -20.79 L 414.81 -20.79 Q 416.57 -20.79 417.86 -22.47 Q 419.15 -24.14 419.15 -26.84 L 419.15 -26.84 Q 419.15 -28.98 418 -30.36 Q 416.84 -31.73 414.81 -31.73 L 414.81 -31.73 L 410.63 -31.68 Z M 452.32 0 L 434.55 0 Q 434.33 0 434.33 -0.28 L 434.33 -0.28 L 434.39 -38.01 Q 434.39 -38.28 434.66 -38.28 L 434.66 -38.28 L 440.77 -38.28 Q 441.04 -38.28 441.04 -38.01 L 441.04 -38.01 L 440.99 -6.76 L 452.32 -6.76 Q 452.59 -6.76 452.59 -6.49 L 452.59 -6.49 L 452.59 -0.28 Q 452.59 0 452.32 0 L 452.32 0 Z M 478.99 0 L 461.23 0 Q 461.01 0 461.01 -0.28 L 461.01 -0.28 L 461.06 -38.06 Q 461.06 -38.28 461.28 -38.28 L 461.28 -38.28 L 478.94 -38.28 Q 479.16 -38.28 479.16 -38.01 L 479.16 -38.01 L 479.16 -31.84 Q 479.16 -31.63 478.94 -31.63 L 478.94 -31.63 L 467.66 -31.63 L 467.66 -23.05 L 478.94 -23.05 Q 479.16 -23.05 479.16 -22.82 L 479.16 -22.82 L 479.21 -16.61 Q 479.21 -16.39 478.99 -16.39 L 478.99 -16.39 L 467.66 -16.39 L 467.66 -6.76 L 478.99 -6.76 Q 479.21 -6.76 479.21 -6.49 L 479.21 -6.49 L 479.21 -0.22 Q 479.21 0 478.99 0 L 478.99 0 Z M 492.25 0 L 486.09 0 Q 485.87 0 485.92 -0.28 L 485.92 -0.28 L 492.19 -19.91 L 486.03 -38.06 Q 485.98 -38.28 486.2 -38.28 L 486.2 -38.28 L 492.36 -38.28 Q 492.63 -38.28 492.69 -38.06 L 492.69 -38.06 L 496.37 -24.97 L 500.11 -38.06 Q 500.17 -38.28 500.44 -38.28 L 500.44 -38.28 L 506.55 -38.28 Q 506.77 -38.28 506.71 -38.06 L 506.71 -38.06 L 500.55 -19.96 L 506.77 -0.28 Q 506.88 0 506.6 0 L 506.6 0 L 500.44 0 Q 500.22 0 500.11 -0.28 L 500.11 -0.28 L 496.37 -14.46 L 492.58 -0.28 Q 492.52 0 492.25 0 L 492.25 0 Z" stroke-linecap="round" />
</g>
</g>
</g>
<g transform="matrix(1 0 0 1 326.6722073739035 449.8815789409028)" id="tagline-fc151adf-2cca-4fa2-a98a-272912f18402-logo"  >
<g style=""  paint-order="stroke"   >
		<g transform="matrix(1 0 0 1 0 0)" id="tagline-fc151adf-2cca-4fa2-a98a-272912f18402-logo-path-0"  >
<path style="stroke: none; stroke-width: 0; stroke-dasharray: none; stroke-linecap: butt; stroke-dashoffset: 0; stroke-linejoin: miter; stroke-miterlimit: 4; fill: rgb(255,199,59); fill-rule: nonzero; opacity: 1;"  paint-order="stroke"  transform=" translate(0, 0)" d="" stroke-linecap="round" />
</g>
</g>
</g>
</svg>