<?xml version="1.0" encoding="UTF-8" standalone="no"?>
<!-- Generator: Adobe Illustrator 26.3.1, SVG Export Plug-In . SVG Version: 6.00 Build 0)  -->

<svg
   version="1.1"
   id="Layer_1"
   x="0px"
   y="0px"
   viewBox="0 0 178.10353 98.974044"
   xml:space="preserve"
   sodipodi:docname="stea_logo_no_horse.svg"
   width="178.10353"
   height="98.974045"
   inkscape:version="1.2.1 (9c6d41e410, 2022-07-14, custom)"
   inkscape:export-filename="stea_logo_no_horse.png"
   inkscape:export-xdpi="96"
   inkscape:export-ydpi="96"
   xmlns:inkscape="http://www.inkscape.org/namespaces/inkscape"
   xmlns:sodipodi="http://sodipodi.sourceforge.net/DTD/sodipodi-0.dtd"
   xmlns="http://www.w3.org/2000/svg"
   xmlns:svg="http://www.w3.org/2000/svg"><defs
   id="defs97" /><sodipodi:namedview
   id="namedview95"
   pagecolor="#ffffff"
   bordercolor="#000000"
   borderopacity="0.25"
   inkscape:showpageshadow="2"
   inkscape:pageopacity="0.0"
   inkscape:pagecheckerboard="0"
   inkscape:deskcolor="#d1d1d1"
   showgrid="false"
   inkscape:zoom="2.7142858"
   inkscape:cx="67.973682"
   inkscape:cy="-20.631578"
   inkscape:window-width="2552"
   inkscape:window-height="1406"
   inkscape:window-x="3"
   inkscape:window-y="29"
   inkscape:window-maximized="1"
   inkscape:current-layer="Layer_1" />
<style
   type="text/css"
   id="style2">
	.st0{fill:#0033A1;}
	.st1{fill:#3D4543;stroke:#FFFFFF;stroke-width:1.3341;stroke-miterlimit:10;}
	.st2{fill:#3D4543;}
	.st3{fill:#FFFFFF;}
</style>

<g
   id="g14"
   transform="translate(-166.98,-236.54595)">
	<path
   class="st0"
   d="m 180.94,290.62 c -6.41,0 -10.45,-1.98 -11.9,-2.82 -0.92,-1.68 -1.91,-7.09 -2.06,-10.68 0.38,-0.53 1.53,-0.69 1.83,-0.23 1.14,3.89 4.27,11.37 13.12,11.37 6.41,0 9.54,-4.2 9.54,-8.77 0,-3.36 -0.69,-7.09 -6.26,-10.68 l -7.25,-4.73 c -3.81,-2.52 -8.24,-6.87 -8.24,-13.12 0,-7.25 5.65,-13.12 15.56,-13.12 2.36,0 5.11,0.46 7.09,0.99 0.99,0.31 2.06,0.46 2.67,0.46 0.69,1.83 1.37,6.1 1.37,9.31 -0.31,0.46 -1.53,0.69 -1.91,0.23 -0.99,-3.66 -3.05,-8.62 -10.38,-8.62 -7.48,0 -9.08,4.96 -9.08,8.47 0,4.42 3.66,7.63 6.48,9.38 l 6.1,3.81 c 4.81,2.98 9.54,7.4 9.54,14.65 0.03,8.38 -6.3,14.1 -16.22,14.1 z"
   id="path6" />
	<path
   class="st0"
   d="m 229.23,277.96 c 0,8.01 0.15,9.15 4.58,9.54 l 2.44,0.23 c 0.46,0.31 0.31,1.68 -0.15,1.91 -4.35,-0.15 -6.94,-0.23 -9.99,-0.23 -3.05,0 -5.72,0.08 -10.6,0.23 -0.46,-0.23 -0.61,-1.53 0,-1.91 l 2.75,-0.23 c 4.35,-0.38 4.73,-1.53 4.73,-9.54 v -34.1 c 0,-2.37 0,-2.44 -2.29,-2.44 h -4.2 c -3.28,0 -7.48,0.15 -9.38,1.91 -1.83,1.68 -2.59,3.36 -3.43,5.26 -0.61,0.46 -1.68,0.08 -1.98,-0.53 1.22,-3.43 2.36,-8.32 2.9,-11.37 0.23,-0.15 1.22,-0.23 1.45,0 0.46,2.44 2.98,2.36 6.48,2.36 h 30.9 c 4.12,0 4.81,-0.15 5.95,-2.14 0.38,-0.15 1.22,-0.08 1.37,0.23 -0.84,3.13 -1.37,9.31 -1.14,11.6 -0.31,0.61 -1.6,0.61 -1.98,0.15 -0.23,-1.91 -0.76,-4.73 -1.91,-5.57 -1.75,-1.3 -4.65,-1.91 -8.85,-1.91 h -5.42 c -2.29,0 -2.21,0.08 -2.21,2.59 v 33.96 z"
   id="path8" />
	<path
   class="st0"
   d="m 261.27,250.5 c 0,-7.93 -0.15,-9.08 -4.65,-9.61 l -1.22,-0.15 c -0.46,-0.3 -0.3,-1.68 0.15,-1.91 3.28,0.15 5.87,0.23 9,0.23 h 14.34 c 4.88,0 9.38,0 10.3,-0.23 0.46,1.3 0.92,6.79 1.22,10.15 -0.31,0.46 -1.53,0.61 -1.91,0.15 -1.14,-3.59 -1.83,-6.26 -5.8,-7.25 -1.6,-0.38 -4.04,-0.46 -7.4,-0.46 h -5.49 c -2.29,0 -2.29,0.15 -2.29,3.05 v 15.26 c 0,2.14 0.23,2.14 2.52,2.14 h 4.42 c 3.2,0 5.57,-0.15 6.48,-0.46 0.92,-0.31 1.45,-0.76 1.83,-2.67 l 0.61,-3.13 c 0.38,-0.46 1.68,-0.46 1.98,0.08 0,1.83 -0.31,4.81 -0.31,7.71 0,2.75 0.31,5.64 0.31,7.32 -0.31,0.53 -1.6,0.53 -1.98,0.08 l -0.69,-2.98 c -0.31,-1.37 -0.84,-2.52 -2.37,-2.9 -1.07,-0.3 -2.9,-0.38 -5.87,-0.38 h -4.42 c -2.29,0 -2.52,0.08 -2.52,2.06 v 10.76 c 0,4.04 0.23,6.64 1.45,7.93 0.92,0.92 2.52,1.75 9.23,1.75 5.87,0 8.09,-0.31 9.76,-1.14 1.37,-0.76 3.43,-3.43 5.42,-7.4 0.53,-0.38 1.6,-0.15 1.91,0.53 -0.53,2.67 -2.44,8.54 -3.43,10.6 -6.87,-0.15 -13.66,-0.23 -20.44,-0.23 h -6.87 c -3.28,0 -5.87,0.08 -10.37,0.23 -0.46,-0.23 -0.61,-1.45 -0.15,-1.91 l 2.52,-0.23 c 4.35,-0.38 4.73,-1.53 4.73,-9.54 z"
   id="path10" />
	<path
   class="st0"
   d="m 327.11,271.7 c -0.53,-1.68 -0.84,-1.91 -3.13,-1.91 h -11.52 c -1.91,0 -2.36,0.23 -2.9,1.83 l -2.67,8.01 c -1.14,3.43 -1.68,5.49 -1.68,6.33 0,0.92 0.38,1.37 2.21,1.53 l 2.52,0.23 c 0.53,0.38 0.53,1.6 -0.15,1.91 -1.98,-0.15 -4.35,-0.15 -7.93,-0.23 -2.52,0 -5.26,0.15 -7.32,0.23 -0.46,-0.31 -0.61,-1.53 -0.15,-1.91 l 2.52,-0.23 c 1.83,-0.15 3.51,-0.99 4.58,-3.74 1.37,-3.51 3.51,-8.47 6.71,-17.01 l 7.78,-20.6 c 1.07,-2.75 1.53,-4.2 1.3,-5.42 1.83,-0.53 3.13,-1.91 3.97,-2.9 0.46,0 0.99,0.15 1.14,0.69 0.99,3.36 2.21,6.87 3.36,10.22 l 10.45,30.67 c 2.21,6.56 3.2,7.7 6.48,8.09 l 2.06,0.23 c 0.53,0.38 0.38,1.6 0,1.91 -3.13,-0.15 -5.8,-0.23 -9.23,-0.23 -3.66,0 -6.56,0.15 -8.77,0.23 -0.61,-0.31 -0.69,-1.53 -0.15,-1.91 l 2.21,-0.23 c 1.6,-0.15 2.67,-0.61 2.67,-1.37 0,-0.84 -0.38,-2.21 -0.99,-4.04 z M 312,264.91 c -0.61,1.75 -0.53,1.83 1.6,1.83 h 9.38 c 2.21,0 2.36,-0.31 1.68,-2.37 l -4.12,-12.43 c -0.61,-1.83 -1.3,-3.89 -1.75,-4.81 h -0.15 c -0.23,0.38 -0.99,2.21 -1.83,4.5 z"
   id="path12" />
</g>








<g
   id="g68"
   transform="translate(-166.98,-236.54595)">
	<path
   class="st0"
   d="m 180.47,317.82 c -0.32,-0.49 -0.56,-2.11 -0.54,-3.57 0.11,-0.23 0.41,-0.26 0.56,-0.09 0.32,1.2 1.29,3.71 3.05,3.71 1.36,0 2.13,-1.08 2.13,-2.51 0,-1.34 -0.48,-2.42 -1.83,-3.4 l -0.77,-0.56 c -1.35,-0.99 -2.53,-2.42 -2.53,-4.53 0,-2.32 1.33,-4.3 3.95,-4.3 0.93,0 1.62,0.28 2.46,0.49 0.2,0.52 0.38,2.07 0.38,3.17 -0.09,0.21 -0.41,0.23 -0.57,0.07 -0.27,-1.22 -0.9,-2.79 -2.42,-2.79 -1.44,0 -2.03,1.22 -2.03,2.46 0,0.99 0.52,2.04 1.7,2.86 l 1.11,0.78 c 1.17,0.8 2.46,2.25 2.46,4.62 0,2.68 -1.56,4.58 -4.16,4.58 -1.66,0 -2.59,-0.7 -2.95,-0.99 z"
   id="path32" />
	<path
   class="st0"
   d="m 196.36,313.69 c 0,3.33 -1.79,5.07 -3.93,5.07 -2.06,0 -3.78,-1.71 -3.78,-4.79 0,-3.15 1.83,-5.12 3.93,-5.12 2.02,0.01 3.78,1.79 3.78,4.84 z m -3.71,4.13 c 1.24,0 1.6,-1.93 1.6,-3.73 0,-1.97 -0.52,-4.3 -1.85,-4.3 -0.91,0 -1.63,1.22 -1.63,3.83 -0.01,2.14 0.58,4.2 1.88,4.2 z"
   id="path34" />
	<path
   class="st0"
   d="m 204.89,314.98 c 0,1.32 0.02,2.49 0.45,2.49 0.25,0 0.52,-0.07 0.77,-0.17 0.14,0.12 0.18,0.61 -0.05,0.8 -0.79,0.12 -2.17,0.42 -2.94,0.89 -0.09,-0.02 -0.14,-0.12 -0.16,-0.23 0.04,-0.28 0.07,-0.63 0.05,-0.87 -0.02,-0.19 -0.07,-0.26 -0.18,-0.26 -0.75,0.59 -1.54,1.13 -2.44,1.13 -1.62,0 -2.13,-1.17 -2.13,-3.12 v -3.66 c 0,-1.64 -0.07,-1.83 -0.52,-2 l -0.25,-0.09 c -0.11,-0.12 -0.11,-0.54 0.04,-0.61 1.08,-0.02 2.1,-0.23 2.49,-0.42 0.09,0.02 0.16,0.09 0.18,0.21 -0.04,0.28 -0.05,0.85 -0.05,2 v 3.62 c 0,1.38 0.2,2.68 1.47,2.68 0.41,0 0.88,-0.21 1.18,-0.59 0.18,-0.23 0.22,-0.45 0.22,-1.31 v -3.55 c 0,-1.5 -0.11,-1.6 -0.79,-1.88 l -0.29,-0.12 c -0.13,-0.12 -0.13,-0.54 0.02,-0.63 1.2,-0.02 2.46,-0.19 2.82,-0.42 0.09,0.02 0.16,0.09 0.18,0.21 -0.04,0.45 -0.05,1.13 -0.05,2 v 3.9 z"
   id="path36" />
	<path
   class="st0"
   d="m 209.96,310.22 c -0.32,0 -0.34,0.05 -0.34,0.8 v 3.62 c 0,1.48 0.16,2.79 1.31,2.79 0.36,0 0.57,-0.16 0.86,-0.42 0.16,0.02 0.27,0.21 0.23,0.47 -0.36,0.66 -1.18,1.29 -2.28,1.29 -1.7,0 -2.01,-1.29 -2.01,-2.93 v -4.77 c 0,-0.82 -0.04,-0.85 -0.32,-0.85 h -0.63 c -0.18,-0.12 -0.22,-0.49 -0.05,-0.63 0.61,-0.3 1.02,-0.61 1.42,-0.99 0.34,-0.33 0.74,-0.82 0.99,-1.46 0.16,-0.14 0.41,-0.07 0.5,0.12 v 1.41 c 0,0.38 0,0.45 0.34,0.45 h 1.78 c 0.11,0.07 0.14,0.26 0.14,0.49 -0.02,0.28 -0.09,0.49 -0.23,0.61 z"
   id="path38" />
	<path
   class="st0"
   d="m 215.25,309.58 c 0,0.28 0.04,0.4 0.16,0.4 0.63,-0.61 1.4,-1.13 2.3,-1.13 1.54,0 2.3,1.29 2.3,3.29 v 3.5 c 0,1.74 0.07,2.02 0.68,2.11 l 0.41,0.07 c 0.16,0.16 0.14,0.59 -0.04,0.68 -0.75,-0.05 -1.36,-0.07 -2.03,-0.07 -0.59,0 -1.2,0.02 -1.83,0.07 -0.14,-0.09 -0.16,-0.52 -0.04,-0.68 l 0.27,-0.05 c 0.61,-0.12 0.68,-0.4 0.68,-2.14 v -3.31 c 0,-1.13 -0.38,-2.07 -1.44,-2.07 -0.59,0 -1.01,0.37 -1.22,0.68 -0.2,0.28 -0.22,0.63 -0.22,1.55 v 3.15 c 0,1.74 0.07,2.02 0.68,2.14 l 0.27,0.05 c 0.13,0.16 0.11,0.59 -0.04,0.68 -0.63,-0.05 -1.24,-0.07 -1.9,-0.07 -0.57,0 -1.18,0.02 -1.94,0.07 -0.14,-0.09 -0.16,-0.52 -0.04,-0.68 l 0.39,-0.07 c 0.61,-0.12 0.68,-0.37 0.68,-2.11 v -10.07 c 0,-1.57 -0.04,-1.71 -0.41,-2.04 l -0.25,-0.21 c -0.11,-0.09 -0.13,-0.47 0,-0.54 0.7,-0.26 1.62,-0.75 2.35,-1.13 0.11,-0.02 0.22,0.07 0.25,0.19 -0.04,0.94 -0.05,2.39 -0.05,3.4 v 4.34 z"
   id="path40" />
	<path
   class="st0"
   d="m 231.52,304.91 c 0,-0.99 -0.02,-1.03 -0.48,-1.03 h -1 c -1.65,0 -2.13,0.26 -2.8,2.16 -0.13,0.14 -0.5,0.07 -0.57,-0.17 0.3,-1.27 0.57,-2.72 0.7,-3.54 0.04,-0.07 0.11,-0.09 0.2,-0.09 0.07,0 0.14,0.02 0.18,0.09 0.09,0.59 0.34,0.61 1.56,0.61 h 7.32 c 0.88,0 1.15,-0.07 1.36,-0.61 0.07,-0.05 0.14,-0.09 0.22,-0.09 0.11,0 0.2,0.05 0.23,0.12 -0.18,0.96 -0.32,2.98 -0.27,3.73 -0.09,0.19 -0.4,0.23 -0.56,0.07 -0.23,-1.83 -0.57,-2.28 -2.49,-2.28 h -1.02 c -0.47,0 -0.48,0.05 -0.48,1.03 v 10.14 c 0,2.49 0.16,2.56 1,2.67 l 0.65,0.09 c 0.13,0.16 0.11,0.59 -0.04,0.68 -1.04,-0.05 -1.85,-0.07 -2.64,-0.07 -0.79,0 -1.63,0.02 -2.78,0.07 -0.14,-0.09 -0.16,-0.56 -0.04,-0.68 l 0.75,-0.12 c 0.84,-0.14 1,-0.16 1,-2.65 z"
   id="path42" />
	<path
   class="st0"
   d="m 239.06,312.87 c -0.34,0 -0.38,0.02 -0.38,0.3 0,2.11 1.11,3.8 2.71,3.8 0.72,0 1.31,-0.3 1.72,-1.17 0.18,-0.07 0.38,0.17 0.4,0.38 -0.61,1.88 -1.94,2.58 -3.03,2.58 -2.08,0 -3.46,-2.02 -3.46,-4.7 0,-2.65 1.38,-5.21 3.78,-5.21 1.33,0 2.69,1.13 2.69,3.17 0,0.21 -0.02,0.35 -0.09,0.54 -0.11,0.21 -0.52,0.31 -1.24,0.31 z m 1.65,-0.94 c 0.52,0 0.75,-0.07 0.88,-0.16 0.11,-0.09 0.18,-0.28 0.18,-0.49 0,-0.85 -0.41,-1.53 -1.18,-1.53 -1.2,0 -1.76,1.53 -1.76,2.02 0,0.09 0.04,0.16 0.25,0.16 z"
   id="path44" />
	<path
   class="st0"
   d="m 247.22,309.91 c -0.16,0.05 -0.34,0.09 -0.34,0.21 0,0.09 0.04,0.23 0.14,0.44 0.07,0.14 0.57,1.1 0.99,1.81 0.34,-0.66 0.79,-1.48 0.95,-1.88 0.05,-0.09 0.11,-0.26 0.11,-0.37 0,-0.12 -0.13,-0.16 -0.31,-0.24 l -0.36,-0.09 c -0.16,-0.16 -0.14,-0.59 0.04,-0.68 0.54,0.05 1.08,0.07 1.62,0.07 0.52,0 1.04,-0.02 1.45,-0.07 0.18,0.12 0.2,0.51 0.04,0.68 l -0.48,0.12 c -0.72,0.16 -0.97,0.38 -1.47,1.2 l -0.84,1.38 c -0.16,0.28 -0.27,0.47 -0.27,0.56 0,0.09 0.09,0.31 0.23,0.56 l 1.4,2.58 c 0.74,1.36 0.86,1.43 1.79,1.62 0.11,0.24 0.09,0.56 -0.04,0.68 -0.59,-0.05 -1.31,-0.07 -2.03,-0.07 -0.77,0 -1.47,0.02 -2.04,0.07 -0.18,-0.09 -0.2,-0.52 -0.05,-0.68 l 0.43,-0.12 c 0.2,-0.05 0.41,-0.12 0.41,-0.23 0,-0.12 -0.05,-0.26 -0.2,-0.54 -0.16,-0.3 -0.61,-1.2 -1.08,-2.02 -0.41,0.73 -0.66,1.27 -1.01,2 -0.14,0.33 -0.18,0.47 -0.18,0.59 0,0.12 0.13,0.19 0.32,0.23 l 0.41,0.09 c 0.14,0.19 0.11,0.59 -0.04,0.68 -0.45,-0.02 -0.95,-0.07 -1.63,-0.07 -0.61,0 -1.04,0.02 -1.45,0.07 -0.16,-0.12 -0.2,-0.56 -0.04,-0.68 0.75,-0.14 1.2,-0.23 1.52,-0.75 0.32,-0.49 1.26,-2.09 1.38,-2.35 0.16,-0.3 0.29,-0.54 0.29,-0.63 0,-0.09 -0.13,-0.35 -0.32,-0.68 l -1.45,-2.53 c -0.45,-0.8 -0.65,-0.92 -1.44,-1.08 -0.14,-0.14 -0.13,-0.59 0.04,-0.68 0.68,0.05 1.11,0.07 1.88,0.07 0.66,0 1.31,-0.02 1.9,-0.07 0.18,0.07 0.2,0.56 0.05,0.68 z"
   id="path46" />
	<path
   class="st0"
   d="m 257.82,315.45 c -0.05,1.36 0.22,2.07 0.86,2.07 0.31,0 0.56,-0.26 0.61,-0.26 0.09,0 0.22,0.26 0.16,0.47 -0.36,0.66 -1.24,1.03 -1.79,1.03 -0.45,0 -0.95,-0.16 -1.29,-0.66 -0.13,-0.16 -0.2,-0.28 -0.29,-0.28 -0.09,0 -0.22,0.12 -0.48,0.33 -0.34,0.28 -0.88,0.61 -1.52,0.61 -1.22,0 -1.83,-1.1 -1.83,-2.28 0,-0.85 0.25,-1.62 1.49,-2.18 0.63,-0.28 1.31,-0.61 1.97,-0.94 0.36,-0.16 0.41,-0.38 0.41,-0.61 l 0.02,-0.61 c 0.04,-1.2 -0.22,-2.23 -1.09,-2.23 -0.5,0 -0.88,0.35 -0.95,1.03 -0.04,0.44 -0.14,0.68 -0.34,0.85 -0.25,0.21 -0.75,0.42 -1.15,0.42 -0.23,0 -0.34,-0.16 -0.34,-0.38 0,-0.28 0.11,-0.78 0.7,-1.5 0.56,-0.68 1.85,-1.48 2.76,-1.48 1.42,0 2.3,0.87 2.22,2.93 z m -1.76,-0.8 c 0,-0.26 -0.05,-0.4 -0.14,-0.4 -0.14,0 -0.47,0.12 -0.79,0.28 -0.5,0.23 -0.97,0.56 -0.97,1.57 0,0.61 0.32,1.36 1,1.36 0.65,0 0.84,-0.56 0.86,-1.13 z"
   id="path48" />
	<path
   class="st0"
   d="m 260.07,318.01 c -0.18,-0.45 -0.29,-1.64 -0.25,-2.65 0.11,-0.19 0.38,-0.21 0.5,-0.05 0.32,1.32 0.99,2.56 1.94,2.56 0.56,0 1,-0.49 1,-1.31 0,-0.87 -0.59,-1.43 -1.22,-1.83 -0.93,-0.59 -1.9,-1.45 -1.9,-2.96 -0.02,-1.83 1.19,-2.91 2.67,-2.91 0.74,0 1.42,0.28 1.67,0.47 0.18,0.49 0.27,1.22 0.27,2.28 -0.05,0.19 -0.36,0.26 -0.48,0.12 -0.27,-1.08 -0.84,-1.97 -1.54,-1.97 -0.57,0 -1,0.54 -1,1.22 0,0.68 0.52,1.17 1.2,1.6 0.97,0.61 1.99,1.41 1.99,3.26 0,2.04 -1.38,2.93 -2.8,2.93 -0.74,-0.01 -1.47,-0.19 -2.05,-0.76 z"
   id="path50" />
	<path
   class="st0"
   d="m 271.92,306.32 c 0,-2.49 -0.16,-2.58 -1.01,-2.72 l -0.29,-0.05 c -0.13,-0.16 -0.11,-0.59 0.04,-0.68 0.68,0.05 1.52,0.07 2.31,0.07 h 3.43 c 1.15,0 2.19,-0.02 2.42,-0.07 0.07,0.4 0.18,2.25 0.29,3.26 -0.07,0.19 -0.43,0.24 -0.57,0.09 -0.29,-1.36 -0.56,-1.93 -1.13,-2.14 -0.41,-0.14 -0.95,-0.21 -1.43,-0.21 h -1.2 c -0.77,0 -0.77,0.05 -0.77,1.39 v 3.97 c 0,0.61 0.02,0.63 0.43,0.63 h 0.86 c 1.56,0 1.83,-0.02 1.99,-1.03 l 0.13,-0.8 c 0.14,-0.16 0.49,-0.16 0.57,0.02 -0.02,0.63 -0.05,1.48 -0.05,2.35 0,0.89 0.04,1.71 0.05,2.47 -0.09,0.16 -0.43,0.16 -0.57,0.02 l -0.13,-0.94 c -0.13,-0.99 -0.43,-1.03 -1.99,-1.03 h -0.86 c -0.41,0 -0.43,0.05 -0.43,0.63 v 2.98 c 0,1.2 0.04,2.04 0.3,2.44 0.22,0.33 0.52,0.49 2.03,0.52 2.28,0.02 2.67,-0.63 3.3,-2.53 0.16,-0.16 0.47,-0.09 0.57,0.14 -0.11,0.99 -0.5,2.77 -0.75,3.4 -0.79,-0.05 -2.33,-0.07 -4.43,-0.07 h -2.05 c -0.79,0 -1.88,0.02 -2.69,0.07 -0.14,-0.09 -0.16,-0.52 -0.04,-0.68 l 0.66,-0.09 c 0.84,-0.12 1.01,-0.19 1.01,-2.67 z"
   id="path52" />
	<path
   class="st0"
   d="m 284.85,315.88 c -0.29,0.85 -0.63,1.95 -0.84,2.75 -0.07,0.09 -0.18,0.14 -0.31,0.14 -0.13,0 -0.23,-0.05 -0.32,-0.14 -0.18,-0.66 -0.47,-1.57 -0.68,-2.18 -0.39,-1.15 -1.38,-4.11 -1.72,-5.09 -0.36,-1.01 -0.56,-1.31 -1.09,-1.46 l -0.34,-0.09 c -0.13,-0.16 -0.11,-0.56 0.04,-0.68 0.63,0.05 1.26,0.07 1.88,0.07 0.81,0 1.34,-0.02 1.97,-0.07 0.18,0.09 0.2,0.51 0.04,0.68 l -0.32,0.07 c -0.25,0.05 -0.45,0.12 -0.45,0.26 0,0.14 0.04,0.4 0.14,0.75 0.25,0.87 1.17,3.78 1.43,4.48 0.43,-1.17 0.86,-2.61 1.33,-4.08 0.18,-0.59 0.25,-0.89 0.25,-1.06 0,-0.17 -0.16,-0.26 -0.38,-0.3 l -0.43,-0.12 c -0.14,-0.19 -0.13,-0.59 0.07,-0.68 0.54,0.05 0.99,0.07 1.51,0.07 0.47,0 0.91,-0.02 1.31,-0.07 0.16,0.09 0.18,0.51 0.04,0.68 l -0.36,0.09 c -0.54,0.14 -0.79,0.31 -1.35,1.9 z"
   id="path54" />
	<path
   class="st0"
   d="m 289.92,312.87 c -0.34,0 -0.38,0.02 -0.38,0.3 0,2.11 1.11,3.8 2.71,3.8 0.72,0 1.31,-0.3 1.72,-1.17 0.18,-0.07 0.38,0.17 0.39,0.38 -0.61,1.88 -1.94,2.58 -3.03,2.58 -2.08,0 -3.46,-2.02 -3.46,-4.7 0,-2.65 1.38,-5.21 3.79,-5.21 1.33,0 2.69,1.13 2.69,3.17 0,0.21 -0.02,0.35 -0.09,0.54 -0.11,0.21 -0.52,0.31 -1.24,0.31 z m 1.66,-0.94 c 0.52,0 0.75,-0.07 0.88,-0.16 0.11,-0.09 0.18,-0.28 0.18,-0.49 0,-0.85 -0.41,-1.53 -1.19,-1.53 -1.2,0 -1.76,1.53 -1.76,2.02 0,0.09 0.04,0.16 0.25,0.16 z"
   id="path56" />
	<path
   class="st0"
   d="m 298.12,315.64 c 0,1.74 0.07,2.02 0.68,2.14 l 0.27,0.05 c 0.13,0.16 0.11,0.59 -0.04,0.68 -0.63,-0.05 -1.24,-0.07 -1.9,-0.07 -0.57,0 -1.18,0.02 -1.94,0.07 -0.14,-0.09 -0.16,-0.52 -0.04,-0.68 l 0.4,-0.07 c 0.61,-0.12 0.68,-0.37 0.68,-2.11 v -3.45 c 0,-1.06 0,-1.34 -0.45,-1.69 l -0.21,-0.16 c -0.06,-0.09 -0.06,-0.42 0.02,-0.54 0.77,-0.28 1.76,-0.84 2.33,-1.27 0.13,0 0.2,0.09 0.23,0.19 -0.04,0.45 -0.04,0.89 -0.04,1.08 0,0.17 0.05,0.21 0.16,0.24 0.84,-0.61 1.35,-1.17 2.46,-1.17 1.45,0 2.13,1.31 2.13,3.15 v 3.64 c 0,1.74 0.07,2.02 0.68,2.11 l 0.41,0.07 c 0.13,0.16 0.11,0.59 -0.04,0.68 -0.75,-0.05 -1.36,-0.07 -2.03,-0.07 -0.59,0 -1.2,0.02 -1.83,0.07 -0.14,-0.09 -0.16,-0.52 -0.04,-0.68 l 0.27,-0.05 c 0.61,-0.12 0.68,-0.4 0.68,-2.14 v -3.24 c 0,-1.2 -0.36,-2.14 -1.44,-2.14 -0.56,0 -1,0.37 -1.18,0.73 -0.23,0.42 -0.25,0.63 -0.25,1.5 v 3.13 z"
   id="path58" />
	<path
   class="st0"
   d="m 307.94,310.22 c -0.32,0 -0.34,0.05 -0.34,0.8 v 3.62 c 0,1.48 0.16,2.79 1.31,2.79 0.36,0 0.57,-0.16 0.86,-0.42 0.16,0.02 0.27,0.21 0.23,0.47 -0.36,0.66 -1.18,1.29 -2.28,1.29 -1.7,0 -2.01,-1.29 -2.01,-2.93 v -4.77 c 0,-0.82 -0.04,-0.85 -0.32,-0.85 h -0.63 c -0.18,-0.12 -0.21,-0.49 -0.05,-0.63 0.61,-0.3 1.02,-0.61 1.42,-0.99 0.34,-0.33 0.73,-0.82 0.99,-1.46 0.16,-0.14 0.41,-0.07 0.5,0.12 v 1.41 c 0,0.38 0,0.45 0.34,0.45 h 1.78 c 0.11,0.07 0.14,0.26 0.14,0.49 -0.02,0.28 -0.09,0.49 -0.23,0.61 z"
   id="path60" />
	<path
   class="st0"
   d="m 313.43,315.64 c 0,1.74 0.07,1.97 0.68,2.11 l 0.32,0.07 c 0.13,0.16 0.11,0.59 -0.04,0.68 -0.66,-0.05 -1.27,-0.07 -1.94,-0.07 -0.59,0 -1.2,0.02 -1.88,0.07 -0.14,-0.09 -0.16,-0.52 -0.04,-0.68 l 0.32,-0.07 c 0.61,-0.14 0.68,-0.37 0.68,-2.11 v -3.45 c 0,-1.06 0,-1.34 -0.45,-1.69 l -0.21,-0.16 c -0.05,-0.09 -0.05,-0.42 0.02,-0.54 0.93,-0.35 1.83,-0.87 2.33,-1.27 0.11,0.02 0.2,0.07 0.25,0.19 -0.04,0.78 -0.05,1.9 -0.05,2.86 v 4.06 z m -2.05,-10.35 c 0,-0.8 0.45,-1.41 1.09,-1.41 0.65,0 1.09,0.61 1.09,1.41 0,0.8 -0.45,1.41 -1.09,1.41 -0.64,0 -1.09,-0.61 -1.09,-1.41 z"
   id="path62" />
	<path
   class="st0"
   d="m 318.23,315.64 c 0,1.74 0.07,2.02 0.68,2.14 l 0.27,0.05 c 0.13,0.16 0.11,0.59 -0.04,0.68 -0.63,-0.05 -1.24,-0.07 -1.9,-0.07 -0.57,0 -1.18,0.02 -1.94,0.07 -0.14,-0.09 -0.16,-0.52 -0.04,-0.68 l 0.4,-0.07 c 0.61,-0.12 0.68,-0.37 0.68,-2.11 v -3.45 c 0,-1.06 0,-1.34 -0.45,-1.69 l -0.21,-0.16 c -0.06,-0.09 -0.06,-0.42 0.02,-0.54 0.77,-0.28 1.76,-0.84 2.33,-1.27 0.13,0 0.2,0.09 0.23,0.19 -0.04,0.45 -0.04,0.89 -0.04,1.08 0,0.17 0.05,0.21 0.16,0.24 0.84,-0.61 1.35,-1.17 2.46,-1.17 1.45,0 2.13,1.31 2.13,3.15 v 3.64 c 0,1.74 0.07,2.02 0.68,2.11 l 0.41,0.07 c 0.13,0.16 0.11,0.59 -0.04,0.68 -0.75,-0.05 -1.36,-0.07 -2.03,-0.07 -0.59,0 -1.2,0.02 -1.83,0.07 -0.14,-0.09 -0.16,-0.52 -0.04,-0.68 l 0.27,-0.05 c 0.61,-0.12 0.68,-0.4 0.68,-2.14 v -3.24 c 0,-1.2 -0.36,-2.14 -1.44,-2.14 -0.56,0 -1,0.37 -1.18,0.73 -0.23,0.42 -0.25,0.63 -0.25,1.5 v 3.13 z"
   id="path64" />
	<path
   class="st0"
   d="m 331.29,310.92 c 0.05,0.23 0.09,0.49 0.09,1.01 0,1.97 -1,3.87 -3.28,3.87 -0.22,0 -0.45,-0.05 -0.68,-0.09 -0.29,0.19 -0.56,0.49 -0.56,0.92 0,0.47 0.25,0.92 0.99,0.92 0.52,0 1.2,-0.05 1.97,-0.05 1.29,0 2.92,0.28 2.92,2.84 0,1.22 -0.65,2.37 -1.13,2.86 -0.79,0.85 -1.94,1.55 -3.48,1.55 -2.53,0 -3.35,-1.55 -3.35,-2.77 0,-0.35 0.04,-0.66 0.25,-1.01 0.16,-0.24 0.84,-0.75 1.11,-1.06 0.14,-0.14 0.27,-0.44 0.11,-0.52 -0.63,-0.28 -1.19,-1.03 -1.19,-1.95 0,-0.23 0.07,-0.42 0.29,-0.59 0.27,-0.19 1.15,-0.92 1.15,-1.24 0,-0.07 0,-0.21 -0.07,-0.26 -0.61,-0.33 -1.33,-1.27 -1.33,-2.79 0,-2.11 1.35,-3.71 3.28,-3.71 0.72,0 1.35,0.19 1.81,0.49 0.38,0.23 0.57,0.35 0.79,0.35 h 1.76 c 0.07,0.07 0.14,0.23 0.14,0.42 0,0.47 -0.14,0.75 -0.29,0.8 h -1.3 z m -3.02,8.67 c -0.63,0 -1,0.07 -1.22,0.28 -0.3,0.3 -0.54,0.73 -0.54,1.31 0,1.43 0.97,2.37 2.35,2.37 1.52,0 2.38,-0.82 2.38,-2.18 0,-1.2 -0.84,-1.78 -1.95,-1.78 z m 0.15,-4.68 c 0.68,0 1.18,-0.78 1.18,-2.42 0,-1.6 -0.52,-2.75 -1.33,-2.75 -0.63,0 -1.18,0.78 -1.18,2.39 0,1.82 0.65,2.78 1.33,2.78 z"
   id="path66" />
</g>
<g
   id="g92"
   transform="translate(-166.98,-236.54595)">
	<path
   class="st2"
   d="m 207.85,327.68 3.17,7.67 h -0.7 l -0.62,-1.46 h -3.84 l -0.62,1.46 h -0.69 l 3.15,-7.67 z m -0.12,1.48 -1.51,3.9 -0.06,0.14 h 3.26 l -0.06,-0.14 -1.52,-3.9 z"
   id="path70" />
	<path
   class="st2"
   d="m 217.68,334.83 c 1.29,0 1.84,-0.57 1.84,-1.43 0,-0.86 -0.56,-1.23 -1.88,-1.66 -1.45,-0.5 -2.26,-1 -2.26,-2.2 0,-1.29 0.93,-2.03 2.37,-2.03 1.56,0 2.25,0.72 2.25,0.72 l -0.34,0.6 c 0,0 -0.66,-0.63 -1.91,-0.63 -0.97,0 -1.74,0.46 -1.74,1.34 0,0.75 0.57,1.07 1.88,1.51 1.57,0.51 2.26,1.12 2.26,2.34 0,1.21 -0.73,2.13 -2.45,2.13 -1.59,0 -2.34,-0.88 -2.34,-0.88 l 0.35,-0.56 c -0.01,0 0.67,0.75 1.97,0.75 z"
   id="path72" />
	<path
   class="st2"
   d="m 227.33,334.83 c 1.29,0 1.84,-0.57 1.84,-1.43 0,-0.86 -0.56,-1.23 -1.88,-1.66 -1.45,-0.5 -2.26,-1 -2.26,-2.2 0,-1.29 0.93,-2.03 2.37,-2.03 1.56,0 2.25,0.72 2.25,0.72 l -0.34,0.6 c 0,0 -0.66,-0.63 -1.91,-0.63 -0.97,0 -1.74,0.46 -1.74,1.34 0,0.75 0.57,1.07 1.88,1.51 1.57,0.51 2.26,1.12 2.26,2.34 0,1.21 -0.73,2.13 -2.45,2.13 -1.59,0 -2.34,-0.88 -2.34,-0.88 l 0.35,-0.56 c -0.01,0 0.67,0.75 1.97,0.75 z"
   id="path74" />
	<path
   class="st2"
   d="m 234.64,331.52 c 0,-2.27 1.31,-4.01 3.34,-4.01 2.03,0 3.33,1.74 3.33,4.01 0,2.25 -1.3,4 -3.33,4 -2.03,0 -3.34,-1.75 -3.34,-4 z m 6.06,0 c 0,-1.81 -1.03,-3.32 -2.72,-3.32 -1.7,0 -2.71,1.51 -2.71,3.32 0,1.8 1.02,3.31 2.71,3.31 1.69,0 2.72,-1.51 2.72,-3.31 z"
   id="path76" />
	<path
   class="st2"
   d="m 249.58,335.52 c -1.99,0 -3.38,-1.75 -3.38,-4 0,-2.27 1.38,-4.01 3.38,-4.01 1.5,0 2.24,1 2.24,1 l -0.36,0.56 c 0,0 -0.68,-0.87 -1.87,-0.87 -1.64,0 -2.76,1.51 -2.76,3.32 0,1.8 1.11,3.31 2.76,3.31 1.19,0 1.87,-0.87 1.87,-0.87 l 0.36,0.55 c 0,0 -0.73,1.01 -2.24,1.01 z"
   id="path78" />
	<path
   class="st2"
   d="m 257.01,335.34 v -7.67 h 0.62 v 7.67 z"
   id="path80" />
	<path
   class="st2"
   d="m 265.85,327.68 3.17,7.67 h -0.7 l -0.62,-1.46 h -3.84 l -0.62,1.46 h -0.69 l 3.15,-7.67 z m -0.12,1.48 -1.51,3.9 -0.06,0.14 h 3.25 l -0.06,-0.14 -1.52,-3.9 z"
   id="path82" />
	<path
   class="st2"
   d="m 277.71,327.68 v 0.68 h -2.32 v 6.99 h -0.61 v -6.99 h -2.31 v -0.68 z"
   id="path84" />
	<path
   class="st2"
   d="m 282.76,335.34 v -7.67 h 0.62 v 7.67 z"
   id="path86" />
	<path
   class="st2"
   d="m 288.74,331.52 c 0,-2.27 1.31,-4.01 3.34,-4.01 2.03,0 3.33,1.74 3.33,4.01 0,2.25 -1.3,4 -3.33,4 -2.04,0 -3.34,-1.75 -3.34,-4 z m 6.05,0 c 0,-1.81 -1.03,-3.32 -2.72,-3.32 -1.7,0 -2.71,1.51 -2.71,3.32 0,1.8 1.02,3.31 2.71,3.31 1.69,0 2.72,-1.51 2.72,-3.31 z"
   id="path88" />
	<path
   class="st2"
   d="m 306.17,335.34 -4.78,-6.11 v 6.11 h -0.62 v -7.67 h 0.2 l 4.78,6.09 v -6.09 h 0.62 v 7.67 z"
   id="path90" />
</g>
</svg>
