<?xml version="1.0" encoding="UTF-8" standalone="no"?>
<!-- Generator: Adobe Illustrator 26.3.1, SVG Export Plug-In . SVG Version: 6.00 Build 0)  -->

<svg
   version="1.1"
   id="Layer_1"
   x="0px"
   y="0px"
   viewBox="0 0 245.39 195.25659"
   xml:space="preserve"
   sodipodi:docname="stea_logo.svg"
   width="245.39"
   height="195.25659"
   inkscape:version="1.2.1 (9c6d41e410, 2022-07-14)"
   xmlns:inkscape="http://www.inkscape.org/namespaces/inkscape"
   xmlns:sodipodi="http://sodipodi.sourceforge.net/DTD/sodipodi-0.dtd"
   xmlns="http://www.w3.org/2000/svg"
   xmlns:svg="http://www.w3.org/2000/svg"><defs
   id="defs97" /><sodipodi:namedview
   id="namedview95"
   pagecolor="#ffffff"
   bordercolor="#000000"
   borderopacity="0.25"
   inkscape:showpageshadow="2"
   inkscape:pageopacity="0.0"
   inkscape:pagecheckerboard="0"
   inkscape:deskcolor="#d1d1d1"
   showgrid="false"
   inkscape:zoom="1.3571429"
   inkscape:cx="184.57895"
   inkscape:cy="153.26316"
   inkscape:window-width="1322"
   inkscape:window-height="890"
   inkscape:window-x="1072"
   inkscape:window-y="462"
   inkscape:window-maximized="1"
   inkscape:current-layer="Layer_1" />
<style
   type="text/css"
   id="style2">
	.st0{fill:#0033A1;}
	.st1{fill:#3D4543;stroke:#FFFFFF;stroke-width:1.3341;stroke-miterlimit:10;}
	.st2{fill:#3D4543;}
	.st3{fill:#FFFFFF;}
</style>
<path
   class="st0"
   d="m 242.96,92.986597 c -1.61,-0.97 -3.94,-2.44 -6.97,-4.22 -0.76,-0.44 -1.55,-0.93 -2.4,-1.4 -0.86,-0.45 -1.75,-0.93 -2.69,-1.42 -1.87,-1 -3.91,-2.03 -6.09,-3.16 -1.1,-0.55 -2.2,-1.18 -3.4,-1.69 -1.19,-0.53 -2.41,-1.08 -3.67,-1.64 -2.52,-1.11 -5.16,-2.31 -7.96,-3.47 -2.83,-1.07 -5.78,-2.18 -8.84,-3.33 -0.77,-0.28 -1.53,-0.59 -2.32,-0.85 -0.79,-0.25 -1.59,-0.5 -2.39,-0.75 -1.61,-0.51 -3.25,-1.02 -4.9,-1.54 -1.66,-0.51 -3.33,-1.08 -5.06,-1.52 -1.73,-0.44 -3.48,-0.89 -5.25,-1.35 -1.77,-0.46 -3.56,-0.92 -5.38,-1.36 -1.83,-0.37 -3.68,-0.74 -5.54,-1.12 -1.87,-0.37 -3.74,-0.75 -5.64,-1.13 -1.91,-0.29 -3.83,-0.58 -5.77,-0.87 -1.94,-0.28 -3.88,-0.59 -5.85,-0.86 -1.97,-0.19 -3.95,-0.39 -5.94,-0.59 -0.99,-0.1 -1.99,-0.2 -2.99,-0.29 -1,-0.1 -2,-0.2 -3,-0.24 -2.01,-0.11 -4.02,-0.21 -6.04,-0.32 l -3.03,-0.15 c -1.01,-0.04 -2.03,-0.03 -3.04,-0.05 l -6.09,-0.06 c -2.03,-0.04 -4.06,0.1 -6.08,0.15 -2.03,0.07 -4.05,0.15 -6.07,0.22 -2.01,0.15 -4.03,0.3 -6.03,0.46 -2.01,0.15 -4,0.31 -5.98,0.56 -1.98,0.23 -3.96,0.46 -5.92,0.68 -1.96,0.23 -3.9,0.59 -5.84,0.87 -1.93,0.32 -3.86,0.56 -5.75,0.94 -1.89,0.37 -3.77,0.73 -5.63,1.1 -1.87,0.34 -3.7,0.79 -5.51,1.2 -1.82,0.42 -3.62,0.81 -5.38,1.27 -3.52,0.97 -6.99,1.79 -10.3,2.85 -6.67,1.94 -12.84,4.19 -18.49,6.34 -5.62,2.23 -10.7,4.43 -15.12,6.57 -4.42,2.12 -8.19,4.14 -11.25,5.87 -3.07,1.7 -5.39,3.21 -6.98,4.21 -0.79,0.51 -1.38,0.92 -1.78,1.19 -0.4,0.28 -0.6,0.42 -0.6,0.42 0,0 0.92,-0.4 2.65,-1.11 1.73,-0.72 4.29,-1.7 7.55,-2.92 3.25,-1.23 7.26,-2.59 11.84,-4.1 4.59,-1.51 9.81,-3.06 15.51,-4.66 2.87,-0.74 5.83,-1.6 8.94,-2.32 1.55,-0.38 3.12,-0.76 4.72,-1.15 0.71,-0.17 1.44,-0.33 2.16,-0.48 h 0.15 c 0.33,-0.1 0.67,-0.18 1.01,-0.22 0.31,-0.1 0.63,-0.18 0.96,-0.23 0.4,-0.13 0.81,-0.23 1.22,-0.28 0.46,-0.18 0.93,-0.32 1.41,-0.4 0.65,-0.24 1.33,-0.38 2.02,-0.4 0.2,-0.05 0.4,-0.09 0.61,-0.12 0.58,-0.19 1.18,-0.3 1.78,-0.31 0.05,-0.01 0.09,-0.01 0.14,-0.02 0.61,-0.2 1.24,-0.31 1.88,-0.32 0.3,-0.07 0.6,-0.12 0.91,-0.15 0.08,-0.01 0.16,-0.02 0.24,-0.04 0.23,-0.08 0.47,-0.14 0.71,-0.19 h -0.1 c 1.73,-0.33 3.49,-0.59 5.26,-0.91 1.78,-0.3 3.57,-0.65 5.4,-0.89 3.64,-0.51 7.33,-1.1 11.1,-1.5 1.88,-0.2 3.76,-0.48 5.67,-0.63 1.9,-0.17 3.81,-0.35 5.73,-0.52 1.92,-0.2 3.85,-0.31 5.79,-0.41 1.93,-0.12 3.88,-0.23 5.82,-0.35 1.95,-0.06 3.9,-0.11 5.85,-0.17 1.95,-0.04 3.91,-0.16 5.86,-0.1 l 5.86,0.02 c 0.98,0.01 1.95,-0.01 2.93,0.02 l 2.92,0.12 c 1.95,0.08 3.89,0.15 5.82,0.23 0.97,0.02 1.93,0.09 2.9,0.17 0.96,0.07 1.92,0.15 2.88,0.22 1.92,0.15 3.83,0.29 5.73,0.43 1.9,0.19 3.78,0.42 5.66,0.62 1.88,0.21 3.74,0.42 5.59,0.63 1.74,0.26 3.46,0.52 5.17,0.78 h -0.14 c 0.49,0.07 0.97,0.16 1.43,0.29 0.04,0 0.07,0.01 0.11,0.02 0.58,0.05 1.16,0.14 1.72,0.25 0.05,0.01 0.1,0.03 0.15,0.04 0.4,0.02 0.79,0.08 1.16,0.18 0.54,0.04 1.06,0.15 1.55,0.31 1.91,0.24 3.81,0.49 5.67,0.94 0.4,0.02 0.78,0.08 1.15,0.17 h 0.11 c 1.09,0.2 2.17,0.41 3.24,0.61 1.7,0.31 3.35,0.77 5,1.12 1.65,0.38 3.27,0.75 4.87,1.11 0.8,0.18 1.6,0.36 2.39,0.54 0.78,0.21 1.55,0.42 2.32,0.63 3.08,0.83 6.05,1.63 8.91,2.4 2.84,0.82 5.53,1.73 8.12,2.51 1.29,0.4 2.56,0.78 3.78,1.16 1.23,0.36 2.38,0.84 3.53,1.22 2.28,0.8 4.4,1.57 6.39,2.24 0.99,0.34 1.95,0.67 2.86,0.98 0.9,0.33 1.75,0.69 2.56,1 3.23,1.3 5.81,2.25 7.56,2.93 1.76,0.66 2.7,1.01 2.7,1.01 0,0 -0.84,-0.53 -2.43,-1.52 z"
   id="path4" />
<g
   id="g14"
   transform="translate(-129,-140.2634)">
	<path
   class="st0"
   d="m 180.94,290.62 c -6.41,0 -10.45,-1.98 -11.9,-2.82 -0.92,-1.68 -1.91,-7.09 -2.06,-10.68 0.38,-0.53 1.53,-0.69 1.83,-0.23 1.14,3.89 4.27,11.37 13.12,11.37 6.41,0 9.54,-4.2 9.54,-8.77 0,-3.36 -0.69,-7.09 -6.26,-10.68 l -7.25,-4.73 c -3.81,-2.52 -8.24,-6.87 -8.24,-13.12 0,-7.25 5.65,-13.12 15.56,-13.12 2.36,0 5.11,0.46 7.09,0.99 0.99,0.31 2.06,0.46 2.67,0.46 0.69,1.83 1.37,6.1 1.37,9.31 -0.31,0.46 -1.53,0.69 -1.91,0.23 -0.99,-3.66 -3.05,-8.62 -10.38,-8.62 -7.48,0 -9.08,4.96 -9.08,8.47 0,4.42 3.66,7.63 6.48,9.38 l 6.1,3.81 c 4.81,2.98 9.54,7.4 9.54,14.65 0.03,8.38 -6.3,14.1 -16.22,14.1 z"
   id="path6" />
	<path
   class="st0"
   d="m 229.23,277.96 c 0,8.01 0.15,9.15 4.58,9.54 l 2.44,0.23 c 0.46,0.31 0.31,1.68 -0.15,1.91 -4.35,-0.15 -6.94,-0.23 -9.99,-0.23 -3.05,0 -5.72,0.08 -10.6,0.23 -0.46,-0.23 -0.61,-1.53 0,-1.91 l 2.75,-0.23 c 4.35,-0.38 4.73,-1.53 4.73,-9.54 v -34.1 c 0,-2.37 0,-2.44 -2.29,-2.44 h -4.2 c -3.28,0 -7.48,0.15 -9.38,1.91 -1.83,1.68 -2.59,3.36 -3.43,5.26 -0.61,0.46 -1.68,0.08 -1.98,-0.53 1.22,-3.43 2.36,-8.32 2.9,-11.37 0.23,-0.15 1.22,-0.23 1.45,0 0.46,2.44 2.98,2.36 6.48,2.36 h 30.9 c 4.12,0 4.81,-0.15 5.95,-2.14 0.38,-0.15 1.22,-0.08 1.37,0.23 -0.84,3.13 -1.37,9.31 -1.14,11.6 -0.31,0.61 -1.6,0.61 -1.98,0.15 -0.23,-1.91 -0.76,-4.73 -1.91,-5.57 -1.75,-1.3 -4.65,-1.91 -8.85,-1.91 h -5.42 c -2.29,0 -2.21,0.08 -2.21,2.59 v 33.96 z"
   id="path8" />
	<path
   class="st0"
   d="m 261.27,250.5 c 0,-7.93 -0.15,-9.08 -4.65,-9.61 l -1.22,-0.15 c -0.46,-0.3 -0.3,-1.68 0.15,-1.91 3.28,0.15 5.87,0.23 9,0.23 h 14.34 c 4.88,0 9.38,0 10.3,-0.23 0.46,1.3 0.92,6.79 1.22,10.15 -0.31,0.46 -1.53,0.61 -1.91,0.15 -1.14,-3.59 -1.83,-6.26 -5.8,-7.25 -1.6,-0.38 -4.04,-0.46 -7.4,-0.46 h -5.49 c -2.29,0 -2.29,0.15 -2.29,3.05 v 15.26 c 0,2.14 0.23,2.14 2.52,2.14 h 4.42 c 3.2,0 5.57,-0.15 6.48,-0.46 0.92,-0.31 1.45,-0.76 1.83,-2.67 l 0.61,-3.13 c 0.38,-0.46 1.68,-0.46 1.98,0.08 0,1.83 -0.31,4.81 -0.31,7.71 0,2.75 0.31,5.64 0.31,7.32 -0.31,0.53 -1.6,0.53 -1.98,0.08 l -0.69,-2.98 c -0.31,-1.37 -0.84,-2.52 -2.37,-2.9 -1.07,-0.3 -2.9,-0.38 -5.87,-0.38 h -4.42 c -2.29,0 -2.52,0.08 -2.52,2.06 v 10.76 c 0,4.04 0.23,6.64 1.45,7.93 0.92,0.92 2.52,1.75 9.23,1.75 5.87,0 8.09,-0.31 9.76,-1.14 1.37,-0.76 3.43,-3.43 5.42,-7.4 0.53,-0.38 1.6,-0.15 1.91,0.53 -0.53,2.67 -2.44,8.54 -3.43,10.6 -6.87,-0.15 -13.66,-0.23 -20.44,-0.23 h -6.87 c -3.28,0 -5.87,0.08 -10.37,0.23 -0.46,-0.23 -0.61,-1.45 -0.15,-1.91 l 2.52,-0.23 c 4.35,-0.38 4.73,-1.53 4.73,-9.54 z"
   id="path10" />
	<path
   class="st0"
   d="m 327.11,271.7 c -0.53,-1.68 -0.84,-1.91 -3.13,-1.91 h -11.52 c -1.91,0 -2.36,0.23 -2.9,1.83 l -2.67,8.01 c -1.14,3.43 -1.68,5.49 -1.68,6.33 0,0.92 0.38,1.37 2.21,1.53 l 2.52,0.23 c 0.53,0.38 0.53,1.6 -0.15,1.91 -1.98,-0.15 -4.35,-0.15 -7.93,-0.23 -2.52,0 -5.26,0.15 -7.32,0.23 -0.46,-0.31 -0.61,-1.53 -0.15,-1.91 l 2.52,-0.23 c 1.83,-0.15 3.51,-0.99 4.58,-3.74 1.37,-3.51 3.51,-8.47 6.71,-17.01 l 7.78,-20.6 c 1.07,-2.75 1.53,-4.2 1.3,-5.42 1.83,-0.53 3.13,-1.91 3.97,-2.9 0.46,0 0.99,0.15 1.14,0.69 0.99,3.36 2.21,6.87 3.36,10.22 l 10.45,30.67 c 2.21,6.56 3.2,7.7 6.48,8.09 l 2.06,0.23 c 0.53,0.38 0.38,1.6 0,1.91 -3.13,-0.15 -5.8,-0.23 -9.23,-0.23 -3.66,0 -6.56,0.15 -8.77,0.23 -0.61,-0.31 -0.69,-1.53 -0.15,-1.91 l 2.21,-0.23 c 1.6,-0.15 2.67,-0.61 2.67,-1.37 0,-0.84 -0.38,-2.21 -0.99,-4.04 z M 312,264.91 c -0.61,1.75 -0.53,1.83 1.6,1.83 h 9.38 c 2.21,0 2.36,-0.31 1.68,-2.37 l -4.12,-12.43 c -0.61,-1.83 -1.3,-3.89 -1.75,-4.81 h -0.15 c -0.23,0.38 -0.99,2.21 -1.83,4.5 z"
   id="path12" />
</g>
<path
   class="st1"
   d="m 177.9,45.956597 c 0,0 -1.33,2.7 0.15,4 l 0.82,-0.91 c 0,0 -1.23,1.75 0.17,2.65 0,0 1.79,1.22 2.8,0.14 0,0 3.52,0.42 6,-6.15 0,0 0.58,-0.06 0.91,-1.58 0,0 2.11,-1.93 3.71,-5.86 0,0 2.07,0.2 2.58,-3.64 0,0 1.46,-0.98 1.1,-1.87 0,0 1.11,-2.31 0.93,-3.62 l -1.12,0.63 c 0,0 3.51,-3.06 5.62,-3.27 0,0 -3.28,-4.28 -7.25,0.74 l 1.22,-2.44 c 0,0 -6.67,-7.77 -18.31,-7.42 -11.64,0.35 -17.22,0.2 -19.48,-1 l -1.42,0.75 c 0,0 2.56,-3.15 3.26,-6.24 0,0 0.89,3.7 3.81,4.07 0,0 0.44,-0.61 1.19,-0.79 0.75,-0.17 1.05,-1.03 1.05,-1.03 0,0 1.28,1.34 1.36,-1.33 0,0 0.67,-0.27 0.89,-0.79 0,0 3.6,4.23 1.33,0.01 3.99,-5.9500002 -5.3,-13.1000002 -9.32,-6.7100002 l -0.52,-0.22 c 0,0 -0.72,0.98 0.27,1.83 l -0.54,0.69 c -5.28,-2.83 -8.94,-1.5 -14.66,-2.53 l 0.7,1.1 c 0,0 -9.33,-1.31 -14.18,1.43 l -0.01,0.61 c 0,0 -7.6,3.7600002 3.15,15.0700002 l -1.29,-0.73 c 0,0 -6.27,3.49 -13.36,-3.27 0,0 -1.56,4.26 0.18,6.96 l -1.14,-0.79 c 0,0 -2.03,-1.12 -1.64,1.44 -7.01,-1.95 -14.46,-1.38 -20.6,1.14 -1.56,-0.15 -3.26,-0.18 -4.57,0.1 0,0 -13.26,-2.92 -21.37,4.34 l 2.16,-2.77 c -14.08,7.28 -4.01,24.08 -25.44,23.5 l 9.82,0.6 c 0,0 -4.25,2.5 -10.49,2.44 0,0 4.7,1.38 9.79,-0.77 0,0 -9.11,5.85 -11.43,6.09 7.13,-1.41 13.93,-0.48 19.45,-5.89 0,0 -1.42,2.47 -5.42,4.96 0,0 13.59,-4.81 16.81,-16.47 0,0 -0.04,3.3 -1.85,6.1 0,0 3.4,-3.1 4.18,-6.95 0,0 1.53,4.54 -6.33,9.73 10.3,-4.29 7.7,-12.48 12.49,-13.67 -1.62,3.91 -1.84,8.53 -0.08,13.66 l -1.12,-0.84 c 0,0 -4.62,6.59 -11.86,6.84 0,0 -1.46,1.71 -1.4,3.59 0.07,1.87 -6.53,9.03 -9.3,10.93 -2.77,1.9 -4.05,3.66 -3.1,4.74 0,0 -2.3,-0.67 -2.74,0.81 -0.44,1.47 -1.09,1.57 -1.09,1.57 0,0 -1.35,4.79 2.81,8.73 0,0 4.12,-1.18 3.21,-5.68 0,0 -0.29,-2.21 1.26,-3.4 1.55,-1.19 4.55,-5.08 4.55,-5.08 0,0 5.61,-8.28 15.61,-11.29 0,0 5.25,-2.82 9.9,-4.53 4.66,-1.71 11.72,-3.02 15.24,-11.6 l -1.03,3.87 c 11.99,-3.55 39.66,11.65 50.41,2.48 l -1.88,2.4 c 4.16,1.25 10.26,1.42 13.16,2.87 0,0 -4.02,-1.39 -6.07,-0.61 -2.06,0.79 -3.2,1.47 -3.2,1.47 0,0 -0.51,-0.83 -1.16,-1.04 -0.44,-4.01 -7.69,-1.58 -7.68,2.03 0,0 2.79,3.27 5.73,2 0,0 0.76,0.81 1.68,0.53 0.92,-0.28 2.96,2.3 4.9,0.17 0,0 2.96,-0.46 6.73,-0.65 3.76,-0.19 8.79,-5.08 2.56,-9.81 -6.23,-4.73 -5.72,-3.9 -5.72,-3.9 0,0 6.27,-3.49 5.6,-10.9 0,0 0.21,-0.18 0.56,-0.47 0.18,0.45 0.54,1.09 1.16,1.61 -0.01,-0.01 -0.06,6.57 6.2,7.09 z"
   id="path16" />
<path
   class="st2"
   d="m 194.07,22.416597 c -0.13,-0.74 -0.47,-1.76 -1.37,-2.36 0,0 0.47,0.41 0.11,0.9 0,0 -0.77,-2.97 -4.91,-4.23 0,0 1.65,0.88 1.78,1.74 -4.44,-1.36 -5.54,-5.29 -10.5,-5.37 -2.87,-0.05 -5.82,-1.05 -6.73,-2.67 0,0 0.71,2.39 3.64,3.45 0,0 -3.62,-0.73 -5.25,-2.1 0,0 1.64,1.92 3.73,2.5 0,0 -2.52,1.88 -10.55,1.55 l 1.8,0.95 c 1.25,0.03 2.5,0.03 3.75,0.02 2.54,-0.02 5.08,-0.08 7.62,-0.16 4.93,-0.15 9.68,1.1 13.9,3.66 1.04,0.63 2.04,1.34 2.98,2.12 z"
   id="path18" />
<path
   class="st3"
   d="m 174.11,34.556597 c 1.68,-1.13 3.41,-2.07 4.21,-1.78 0,0 0.79,-3.93 5,-4.61 0,0 -6.96,2.21 -3.36,9.39 0,0 -0.51,0.75 -0.75,1.76 -0.44,0.04 -0.9,0.03 -1.07,-0.12 -0.35,-0.33 -0.41,-0.63 -0.97,-0.75 z"
   id="path20" />
<path
   class="st3"
   d="m 177.01,42.086597 c 0,0 -2.97,-2.7 -4.04,-4.75 0,0 -0.42,0.41 -1.13,-1.31 0,0 -1.5,3.24 5.17,6.06 z"
   id="path22" />
<path
   class="st3"
   d="m 177.97,44.746597 c -0.26,-0.05 -1.35,-0.23 -2.65,-1.06 l 0.92,-0.93 c 0,0 -2.24,-1.23 -3.76,-3.38 0,0 0.36,6.39 5.49,5.37 z"
   id="path24" />
<path
   class="st3"
   d="m 175.79,39.176597 0.54,-0.48 c 0,0 -1.82,-2.8 -3.01,-3.18 l -0.97,1.06 0.94,0.24 c 0,0 2.2,4.53 4.96,5.7 0,0 -1.78,-1.95 -1.74,-3.07 -0.01,0 -0.96,0.49 -0.72,-0.27 z"
   id="path26" />
<path
   class="st3"
   d="m 179.51,41.916597 c 0,0 -0.48,-2.35 -2.43,-2.38 0,0 0.23,1.27 2.43,2.38 z"
   id="path28" />
<path
   class="st3"
   d="m 147.11,17.676597 c 0,0 -2.04,0.33 -4.53,-1.12 0,0 -1.18,1.71 0.94,2.58 -0.01,0 1.7,-0.26 3.59,-1.46 z"
   id="path30" />
<g
   id="g68"
   transform="translate(-129,-140.2634)">
	<path
   class="st0"
   d="m 180.47,317.82 c -0.32,-0.49 -0.56,-2.11 -0.54,-3.57 0.11,-0.23 0.41,-0.26 0.56,-0.09 0.32,1.2 1.29,3.71 3.05,3.71 1.36,0 2.13,-1.08 2.13,-2.51 0,-1.34 -0.48,-2.42 -1.83,-3.4 l -0.77,-0.56 c -1.35,-0.99 -2.53,-2.42 -2.53,-4.53 0,-2.32 1.33,-4.3 3.95,-4.3 0.93,0 1.62,0.28 2.46,0.49 0.2,0.52 0.38,2.07 0.38,3.17 -0.09,0.21 -0.41,0.23 -0.57,0.07 -0.27,-1.22 -0.9,-2.79 -2.42,-2.79 -1.44,0 -2.03,1.22 -2.03,2.46 0,0.99 0.52,2.04 1.7,2.86 l 1.11,0.78 c 1.17,0.8 2.46,2.25 2.46,4.62 0,2.68 -1.56,4.58 -4.16,4.58 -1.66,0 -2.59,-0.7 -2.95,-0.99 z"
   id="path32" />
	<path
   class="st0"
   d="m 196.36,313.69 c 0,3.33 -1.79,5.07 -3.93,5.07 -2.06,0 -3.78,-1.71 -3.78,-4.79 0,-3.15 1.83,-5.12 3.93,-5.12 2.02,0.01 3.78,1.79 3.78,4.84 z m -3.71,4.13 c 1.24,0 1.6,-1.93 1.6,-3.73 0,-1.97 -0.52,-4.3 -1.85,-4.3 -0.91,0 -1.63,1.22 -1.63,3.83 -0.01,2.14 0.58,4.2 1.88,4.2 z"
   id="path34" />
	<path
   class="st0"
   d="m 204.89,314.98 c 0,1.32 0.02,2.49 0.45,2.49 0.25,0 0.52,-0.07 0.77,-0.17 0.14,0.12 0.18,0.61 -0.05,0.8 -0.79,0.12 -2.17,0.42 -2.94,0.89 -0.09,-0.02 -0.14,-0.12 -0.16,-0.23 0.04,-0.28 0.07,-0.63 0.05,-0.87 -0.02,-0.19 -0.07,-0.26 -0.18,-0.26 -0.75,0.59 -1.54,1.13 -2.44,1.13 -1.62,0 -2.13,-1.17 -2.13,-3.12 v -3.66 c 0,-1.64 -0.07,-1.83 -0.52,-2 l -0.25,-0.09 c -0.11,-0.12 -0.11,-0.54 0.04,-0.61 1.08,-0.02 2.1,-0.23 2.49,-0.42 0.09,0.02 0.16,0.09 0.18,0.21 -0.04,0.28 -0.05,0.85 -0.05,2 v 3.62 c 0,1.38 0.2,2.68 1.47,2.68 0.41,0 0.88,-0.21 1.18,-0.59 0.18,-0.23 0.22,-0.45 0.22,-1.31 v -3.55 c 0,-1.5 -0.11,-1.6 -0.79,-1.88 l -0.29,-0.12 c -0.13,-0.12 -0.13,-0.54 0.02,-0.63 1.2,-0.02 2.46,-0.19 2.82,-0.42 0.09,0.02 0.16,0.09 0.18,0.21 -0.04,0.45 -0.05,1.13 -0.05,2 v 3.9 z"
   id="path36" />
	<path
   class="st0"
   d="m 209.96,310.22 c -0.32,0 -0.34,0.05 -0.34,0.8 v 3.62 c 0,1.48 0.16,2.79 1.31,2.79 0.36,0 0.57,-0.16 0.86,-0.42 0.16,0.02 0.27,0.21 0.23,0.47 -0.36,0.66 -1.18,1.29 -2.28,1.29 -1.7,0 -2.01,-1.29 -2.01,-2.93 v -4.77 c 0,-0.82 -0.04,-0.85 -0.32,-0.85 h -0.63 c -0.18,-0.12 -0.22,-0.49 -0.05,-0.63 0.61,-0.3 1.02,-0.61 1.42,-0.99 0.34,-0.33 0.74,-0.82 0.99,-1.46 0.16,-0.14 0.41,-0.07 0.5,0.12 v 1.41 c 0,0.38 0,0.45 0.34,0.45 h 1.78 c 0.11,0.07 0.14,0.26 0.14,0.49 -0.02,0.28 -0.09,0.49 -0.23,0.61 z"
   id="path38" />
	<path
   class="st0"
   d="m 215.25,309.58 c 0,0.28 0.04,0.4 0.16,0.4 0.63,-0.61 1.4,-1.13 2.3,-1.13 1.54,0 2.3,1.29 2.3,3.29 v 3.5 c 0,1.74 0.07,2.02 0.68,2.11 l 0.41,0.07 c 0.16,0.16 0.14,0.59 -0.04,0.68 -0.75,-0.05 -1.36,-0.07 -2.03,-0.07 -0.59,0 -1.2,0.02 -1.83,0.07 -0.14,-0.09 -0.16,-0.52 -0.04,-0.68 l 0.27,-0.05 c 0.61,-0.12 0.68,-0.4 0.68,-2.14 v -3.31 c 0,-1.13 -0.38,-2.07 -1.44,-2.07 -0.59,0 -1.01,0.37 -1.22,0.68 -0.2,0.28 -0.22,0.63 -0.22,1.55 v 3.15 c 0,1.74 0.07,2.02 0.68,2.14 l 0.27,0.05 c 0.13,0.16 0.11,0.59 -0.04,0.68 -0.63,-0.05 -1.24,-0.07 -1.9,-0.07 -0.57,0 -1.18,0.02 -1.94,0.07 -0.14,-0.09 -0.16,-0.52 -0.04,-0.68 l 0.39,-0.07 c 0.61,-0.12 0.68,-0.37 0.68,-2.11 v -10.07 c 0,-1.57 -0.04,-1.71 -0.41,-2.04 l -0.25,-0.21 c -0.11,-0.09 -0.13,-0.47 0,-0.54 0.7,-0.26 1.62,-0.75 2.35,-1.13 0.11,-0.02 0.22,0.07 0.25,0.19 -0.04,0.94 -0.05,2.39 -0.05,3.4 v 4.34 z"
   id="path40" />
	<path
   class="st0"
   d="m 231.52,304.91 c 0,-0.99 -0.02,-1.03 -0.48,-1.03 h -1 c -1.65,0 -2.13,0.26 -2.8,2.16 -0.13,0.14 -0.5,0.07 -0.57,-0.17 0.3,-1.27 0.57,-2.72 0.7,-3.54 0.04,-0.07 0.11,-0.09 0.2,-0.09 0.07,0 0.14,0.02 0.18,0.09 0.09,0.59 0.34,0.61 1.56,0.61 h 7.32 c 0.88,0 1.15,-0.07 1.36,-0.61 0.07,-0.05 0.14,-0.09 0.22,-0.09 0.11,0 0.2,0.05 0.23,0.12 -0.18,0.96 -0.32,2.98 -0.27,3.73 -0.09,0.19 -0.4,0.23 -0.56,0.07 -0.23,-1.83 -0.57,-2.28 -2.49,-2.28 h -1.02 c -0.47,0 -0.48,0.05 -0.48,1.03 v 10.14 c 0,2.49 0.16,2.56 1,2.67 l 0.65,0.09 c 0.13,0.16 0.11,0.59 -0.04,0.68 -1.04,-0.05 -1.85,-0.07 -2.64,-0.07 -0.79,0 -1.63,0.02 -2.78,0.07 -0.14,-0.09 -0.16,-0.56 -0.04,-0.68 l 0.75,-0.12 c 0.84,-0.14 1,-0.16 1,-2.65 z"
   id="path42" />
	<path
   class="st0"
   d="m 239.06,312.87 c -0.34,0 -0.38,0.02 -0.38,0.3 0,2.11 1.11,3.8 2.71,3.8 0.72,0 1.31,-0.3 1.72,-1.17 0.18,-0.07 0.38,0.17 0.4,0.38 -0.61,1.88 -1.94,2.58 -3.03,2.58 -2.08,0 -3.46,-2.02 -3.46,-4.7 0,-2.65 1.38,-5.21 3.78,-5.21 1.33,0 2.69,1.13 2.69,3.17 0,0.21 -0.02,0.35 -0.09,0.54 -0.11,0.21 -0.52,0.31 -1.24,0.31 z m 1.65,-0.94 c 0.52,0 0.75,-0.07 0.88,-0.16 0.11,-0.09 0.18,-0.28 0.18,-0.49 0,-0.85 -0.41,-1.53 -1.18,-1.53 -1.2,0 -1.76,1.53 -1.76,2.02 0,0.09 0.04,0.16 0.25,0.16 z"
   id="path44" />
	<path
   class="st0"
   d="m 247.22,309.91 c -0.16,0.05 -0.34,0.09 -0.34,0.21 0,0.09 0.04,0.23 0.14,0.44 0.07,0.14 0.57,1.1 0.99,1.81 0.34,-0.66 0.79,-1.48 0.95,-1.88 0.05,-0.09 0.11,-0.26 0.11,-0.37 0,-0.12 -0.13,-0.16 -0.31,-0.24 l -0.36,-0.09 c -0.16,-0.16 -0.14,-0.59 0.04,-0.68 0.54,0.05 1.08,0.07 1.62,0.07 0.52,0 1.04,-0.02 1.45,-0.07 0.18,0.12 0.2,0.51 0.04,0.68 l -0.48,0.12 c -0.72,0.16 -0.97,0.38 -1.47,1.2 l -0.84,1.38 c -0.16,0.28 -0.27,0.47 -0.27,0.56 0,0.09 0.09,0.31 0.23,0.56 l 1.4,2.58 c 0.74,1.36 0.86,1.43 1.79,1.62 0.11,0.24 0.09,0.56 -0.04,0.68 -0.59,-0.05 -1.31,-0.07 -2.03,-0.07 -0.77,0 -1.47,0.02 -2.04,0.07 -0.18,-0.09 -0.2,-0.52 -0.05,-0.68 l 0.43,-0.12 c 0.2,-0.05 0.41,-0.12 0.41,-0.23 0,-0.12 -0.05,-0.26 -0.2,-0.54 -0.16,-0.3 -0.61,-1.2 -1.08,-2.02 -0.41,0.73 -0.66,1.27 -1.01,2 -0.14,0.33 -0.18,0.47 -0.18,0.59 0,0.12 0.13,0.19 0.32,0.23 l 0.41,0.09 c 0.14,0.19 0.11,0.59 -0.04,0.68 -0.45,-0.02 -0.95,-0.07 -1.63,-0.07 -0.61,0 -1.04,0.02 -1.45,0.07 -0.16,-0.12 -0.2,-0.56 -0.04,-0.68 0.75,-0.14 1.2,-0.23 1.52,-0.75 0.32,-0.49 1.26,-2.09 1.38,-2.35 0.16,-0.3 0.29,-0.54 0.29,-0.63 0,-0.09 -0.13,-0.35 -0.32,-0.68 l -1.45,-2.53 c -0.45,-0.8 -0.65,-0.92 -1.44,-1.08 -0.14,-0.14 -0.13,-0.59 0.04,-0.68 0.68,0.05 1.11,0.07 1.88,0.07 0.66,0 1.31,-0.02 1.9,-0.07 0.18,0.07 0.2,0.56 0.05,0.68 z"
   id="path46" />
	<path
   class="st0"
   d="m 257.82,315.45 c -0.05,1.36 0.22,2.07 0.86,2.07 0.31,0 0.56,-0.26 0.61,-0.26 0.09,0 0.22,0.26 0.16,0.47 -0.36,0.66 -1.24,1.03 -1.79,1.03 -0.45,0 -0.95,-0.16 -1.29,-0.66 -0.13,-0.16 -0.2,-0.28 -0.29,-0.28 -0.09,0 -0.22,0.12 -0.48,0.33 -0.34,0.28 -0.88,0.61 -1.52,0.61 -1.22,0 -1.83,-1.1 -1.83,-2.28 0,-0.85 0.25,-1.62 1.49,-2.18 0.63,-0.28 1.31,-0.61 1.97,-0.94 0.36,-0.16 0.41,-0.38 0.41,-0.61 l 0.02,-0.61 c 0.04,-1.2 -0.22,-2.23 -1.09,-2.23 -0.5,0 -0.88,0.35 -0.95,1.03 -0.04,0.44 -0.14,0.68 -0.34,0.85 -0.25,0.21 -0.75,0.42 -1.15,0.42 -0.23,0 -0.34,-0.16 -0.34,-0.38 0,-0.28 0.11,-0.78 0.7,-1.5 0.56,-0.68 1.85,-1.48 2.76,-1.48 1.42,0 2.3,0.87 2.22,2.93 z m -1.76,-0.8 c 0,-0.26 -0.05,-0.4 -0.14,-0.4 -0.14,0 -0.47,0.12 -0.79,0.28 -0.5,0.23 -0.97,0.56 -0.97,1.57 0,0.61 0.32,1.36 1,1.36 0.65,0 0.84,-0.56 0.86,-1.13 z"
   id="path48" />
	<path
   class="st0"
   d="m 260.07,318.01 c -0.18,-0.45 -0.29,-1.64 -0.25,-2.65 0.11,-0.19 0.38,-0.21 0.5,-0.05 0.32,1.32 0.99,2.56 1.94,2.56 0.56,0 1,-0.49 1,-1.31 0,-0.87 -0.59,-1.43 -1.22,-1.83 -0.93,-0.59 -1.9,-1.45 -1.9,-2.96 -0.02,-1.83 1.19,-2.91 2.67,-2.91 0.74,0 1.42,0.28 1.67,0.47 0.18,0.49 0.27,1.22 0.27,2.28 -0.05,0.19 -0.36,0.26 -0.48,0.12 -0.27,-1.08 -0.84,-1.97 -1.54,-1.97 -0.57,0 -1,0.54 -1,1.22 0,0.68 0.52,1.17 1.2,1.6 0.97,0.61 1.99,1.41 1.99,3.26 0,2.04 -1.38,2.93 -2.8,2.93 -0.74,-0.01 -1.47,-0.19 -2.05,-0.76 z"
   id="path50" />
	<path
   class="st0"
   d="m 271.92,306.32 c 0,-2.49 -0.16,-2.58 -1.01,-2.72 l -0.29,-0.05 c -0.13,-0.16 -0.11,-0.59 0.04,-0.68 0.68,0.05 1.52,0.07 2.31,0.07 h 3.43 c 1.15,0 2.19,-0.02 2.42,-0.07 0.07,0.4 0.18,2.25 0.29,3.26 -0.07,0.19 -0.43,0.24 -0.57,0.09 -0.29,-1.36 -0.56,-1.93 -1.13,-2.14 -0.41,-0.14 -0.95,-0.21 -1.43,-0.21 h -1.2 c -0.77,0 -0.77,0.05 -0.77,1.39 v 3.97 c 0,0.61 0.02,0.63 0.43,0.63 h 0.86 c 1.56,0 1.83,-0.02 1.99,-1.03 l 0.13,-0.8 c 0.14,-0.16 0.49,-0.16 0.57,0.02 -0.02,0.63 -0.05,1.48 -0.05,2.35 0,0.89 0.04,1.71 0.05,2.47 -0.09,0.16 -0.43,0.16 -0.57,0.02 l -0.13,-0.94 c -0.13,-0.99 -0.43,-1.03 -1.99,-1.03 h -0.86 c -0.41,0 -0.43,0.05 -0.43,0.63 v 2.98 c 0,1.2 0.04,2.04 0.3,2.44 0.22,0.33 0.52,0.49 2.03,0.52 2.28,0.02 2.67,-0.63 3.3,-2.53 0.16,-0.16 0.47,-0.09 0.57,0.14 -0.11,0.99 -0.5,2.77 -0.75,3.4 -0.79,-0.05 -2.33,-0.07 -4.43,-0.07 h -2.05 c -0.79,0 -1.88,0.02 -2.69,0.07 -0.14,-0.09 -0.16,-0.52 -0.04,-0.68 l 0.66,-0.09 c 0.84,-0.12 1.01,-0.19 1.01,-2.67 z"
   id="path52" />
	<path
   class="st0"
   d="m 284.85,315.88 c -0.29,0.85 -0.63,1.95 -0.84,2.75 -0.07,0.09 -0.18,0.14 -0.31,0.14 -0.13,0 -0.23,-0.05 -0.32,-0.14 -0.18,-0.66 -0.47,-1.57 -0.68,-2.18 -0.39,-1.15 -1.38,-4.11 -1.72,-5.09 -0.36,-1.01 -0.56,-1.31 -1.09,-1.46 l -0.34,-0.09 c -0.13,-0.16 -0.11,-0.56 0.04,-0.68 0.63,0.05 1.26,0.07 1.88,0.07 0.81,0 1.34,-0.02 1.97,-0.07 0.18,0.09 0.2,0.51 0.04,0.68 l -0.32,0.07 c -0.25,0.05 -0.45,0.12 -0.45,0.26 0,0.14 0.04,0.4 0.14,0.75 0.25,0.87 1.17,3.78 1.43,4.48 0.43,-1.17 0.86,-2.61 1.33,-4.08 0.18,-0.59 0.25,-0.89 0.25,-1.06 0,-0.17 -0.16,-0.26 -0.38,-0.3 l -0.43,-0.12 c -0.14,-0.19 -0.13,-0.59 0.07,-0.68 0.54,0.05 0.99,0.07 1.51,0.07 0.47,0 0.91,-0.02 1.31,-0.07 0.16,0.09 0.18,0.51 0.04,0.68 l -0.36,0.09 c -0.54,0.14 -0.79,0.31 -1.35,1.9 z"
   id="path54" />
	<path
   class="st0"
   d="m 289.92,312.87 c -0.34,0 -0.38,0.02 -0.38,0.3 0,2.11 1.11,3.8 2.71,3.8 0.72,0 1.31,-0.3 1.72,-1.17 0.18,-0.07 0.38,0.17 0.39,0.38 -0.61,1.88 -1.94,2.58 -3.03,2.58 -2.08,0 -3.46,-2.02 -3.46,-4.7 0,-2.65 1.38,-5.21 3.79,-5.21 1.33,0 2.69,1.13 2.69,3.17 0,0.21 -0.02,0.35 -0.09,0.54 -0.11,0.21 -0.52,0.31 -1.24,0.31 z m 1.66,-0.94 c 0.52,0 0.75,-0.07 0.88,-0.16 0.11,-0.09 0.18,-0.28 0.18,-0.49 0,-0.85 -0.41,-1.53 -1.19,-1.53 -1.2,0 -1.76,1.53 -1.76,2.02 0,0.09 0.04,0.16 0.25,0.16 z"
   id="path56" />
	<path
   class="st0"
   d="m 298.12,315.64 c 0,1.74 0.07,2.02 0.68,2.14 l 0.27,0.05 c 0.13,0.16 0.11,0.59 -0.04,0.68 -0.63,-0.05 -1.24,-0.07 -1.9,-0.07 -0.57,0 -1.18,0.02 -1.94,0.07 -0.14,-0.09 -0.16,-0.52 -0.04,-0.68 l 0.4,-0.07 c 0.61,-0.12 0.68,-0.37 0.68,-2.11 v -3.45 c 0,-1.06 0,-1.34 -0.45,-1.69 l -0.21,-0.16 c -0.06,-0.09 -0.06,-0.42 0.02,-0.54 0.77,-0.28 1.76,-0.84 2.33,-1.27 0.13,0 0.2,0.09 0.23,0.19 -0.04,0.45 -0.04,0.89 -0.04,1.08 0,0.17 0.05,0.21 0.16,0.24 0.84,-0.61 1.35,-1.17 2.46,-1.17 1.45,0 2.13,1.31 2.13,3.15 v 3.64 c 0,1.74 0.07,2.02 0.68,2.11 l 0.41,0.07 c 0.13,0.16 0.11,0.59 -0.04,0.68 -0.75,-0.05 -1.36,-0.07 -2.03,-0.07 -0.59,0 -1.2,0.02 -1.83,0.07 -0.14,-0.09 -0.16,-0.52 -0.04,-0.68 l 0.27,-0.05 c 0.61,-0.12 0.68,-0.4 0.68,-2.14 v -3.24 c 0,-1.2 -0.36,-2.14 -1.44,-2.14 -0.56,0 -1,0.37 -1.18,0.73 -0.23,0.42 -0.25,0.63 -0.25,1.5 v 3.13 z"
   id="path58" />
	<path
   class="st0"
   d="m 307.94,310.22 c -0.32,0 -0.34,0.05 -0.34,0.8 v 3.62 c 0,1.48 0.16,2.79 1.31,2.79 0.36,0 0.57,-0.16 0.86,-0.42 0.16,0.02 0.27,0.21 0.23,0.47 -0.36,0.66 -1.18,1.29 -2.28,1.29 -1.7,0 -2.01,-1.29 -2.01,-2.93 v -4.77 c 0,-0.82 -0.04,-0.85 -0.32,-0.85 h -0.63 c -0.18,-0.12 -0.21,-0.49 -0.05,-0.63 0.61,-0.3 1.02,-0.61 1.42,-0.99 0.34,-0.33 0.73,-0.82 0.99,-1.46 0.16,-0.14 0.41,-0.07 0.5,0.12 v 1.41 c 0,0.38 0,0.45 0.34,0.45 h 1.78 c 0.11,0.07 0.14,0.26 0.14,0.49 -0.02,0.28 -0.09,0.49 -0.23,0.61 z"
   id="path60" />
	<path
   class="st0"
   d="m 313.43,315.64 c 0,1.74 0.07,1.97 0.68,2.11 l 0.32,0.07 c 0.13,0.16 0.11,0.59 -0.04,0.68 -0.66,-0.05 -1.27,-0.07 -1.94,-0.07 -0.59,0 -1.2,0.02 -1.88,0.07 -0.14,-0.09 -0.16,-0.52 -0.04,-0.68 l 0.32,-0.07 c 0.61,-0.14 0.68,-0.37 0.68,-2.11 v -3.45 c 0,-1.06 0,-1.34 -0.45,-1.69 l -0.21,-0.16 c -0.05,-0.09 -0.05,-0.42 0.02,-0.54 0.93,-0.35 1.83,-0.87 2.33,-1.27 0.11,0.02 0.2,0.07 0.25,0.19 -0.04,0.78 -0.05,1.9 -0.05,2.86 v 4.06 z m -2.05,-10.35 c 0,-0.8 0.45,-1.41 1.09,-1.41 0.65,0 1.09,0.61 1.09,1.41 0,0.8 -0.45,1.41 -1.09,1.41 -0.64,0 -1.09,-0.61 -1.09,-1.41 z"
   id="path62" />
	<path
   class="st0"
   d="m 318.23,315.64 c 0,1.74 0.07,2.02 0.68,2.14 l 0.27,0.05 c 0.13,0.16 0.11,0.59 -0.04,0.68 -0.63,-0.05 -1.24,-0.07 -1.9,-0.07 -0.57,0 -1.18,0.02 -1.94,0.07 -0.14,-0.09 -0.16,-0.52 -0.04,-0.68 l 0.4,-0.07 c 0.61,-0.12 0.68,-0.37 0.68,-2.11 v -3.45 c 0,-1.06 0,-1.34 -0.45,-1.69 l -0.21,-0.16 c -0.06,-0.09 -0.06,-0.42 0.02,-0.54 0.77,-0.28 1.76,-0.84 2.33,-1.27 0.13,0 0.2,0.09 0.23,0.19 -0.04,0.45 -0.04,0.89 -0.04,1.08 0,0.17 0.05,0.21 0.16,0.24 0.84,-0.61 1.35,-1.17 2.46,-1.17 1.45,0 2.13,1.31 2.13,3.15 v 3.64 c 0,1.74 0.07,2.02 0.68,2.11 l 0.41,0.07 c 0.13,0.16 0.11,0.59 -0.04,0.68 -0.75,-0.05 -1.36,-0.07 -2.03,-0.07 -0.59,0 -1.2,0.02 -1.83,0.07 -0.14,-0.09 -0.16,-0.52 -0.04,-0.68 l 0.27,-0.05 c 0.61,-0.12 0.68,-0.4 0.68,-2.14 v -3.24 c 0,-1.2 -0.36,-2.14 -1.44,-2.14 -0.56,0 -1,0.37 -1.18,0.73 -0.23,0.42 -0.25,0.63 -0.25,1.5 v 3.13 z"
   id="path64" />
	<path
   class="st0"
   d="m 331.29,310.92 c 0.05,0.23 0.09,0.49 0.09,1.01 0,1.97 -1,3.87 -3.28,3.87 -0.22,0 -0.45,-0.05 -0.68,-0.09 -0.29,0.19 -0.56,0.49 -0.56,0.92 0,0.47 0.25,0.92 0.99,0.92 0.52,0 1.2,-0.05 1.97,-0.05 1.29,0 2.92,0.28 2.92,2.84 0,1.22 -0.65,2.37 -1.13,2.86 -0.79,0.85 -1.94,1.55 -3.48,1.55 -2.53,0 -3.35,-1.55 -3.35,-2.77 0,-0.35 0.04,-0.66 0.25,-1.01 0.16,-0.24 0.84,-0.75 1.11,-1.06 0.14,-0.14 0.27,-0.44 0.11,-0.52 -0.63,-0.28 -1.19,-1.03 -1.19,-1.95 0,-0.23 0.07,-0.42 0.29,-0.59 0.27,-0.19 1.15,-0.92 1.15,-1.24 0,-0.07 0,-0.21 -0.07,-0.26 -0.61,-0.33 -1.33,-1.27 -1.33,-2.79 0,-2.11 1.35,-3.71 3.28,-3.71 0.72,0 1.35,0.19 1.81,0.49 0.38,0.23 0.57,0.35 0.79,0.35 h 1.76 c 0.07,0.07 0.14,0.23 0.14,0.42 0,0.47 -0.14,0.75 -0.29,0.8 h -1.3 z m -3.02,8.67 c -0.63,0 -1,0.07 -1.22,0.28 -0.3,0.3 -0.54,0.73 -0.54,1.31 0,1.43 0.97,2.37 2.35,2.37 1.52,0 2.38,-0.82 2.38,-2.18 0,-1.2 -0.84,-1.78 -1.95,-1.78 z m 0.15,-4.68 c 0.68,0 1.18,-0.78 1.18,-2.42 0,-1.6 -0.52,-2.75 -1.33,-2.75 -0.63,0 -1.18,0.78 -1.18,2.39 0,1.82 0.65,2.78 1.33,2.78 z"
   id="path66" />
</g>
<g
   id="g92"
   transform="translate(-129,-140.2634)">
	<path
   class="st2"
   d="m 207.85,327.68 3.17,7.67 h -0.7 l -0.62,-1.46 h -3.84 l -0.62,1.46 h -0.69 l 3.15,-7.67 z m -0.12,1.48 -1.51,3.9 -0.06,0.14 h 3.26 l -0.06,-0.14 -1.52,-3.9 z"
   id="path70" />
	<path
   class="st2"
   d="m 217.68,334.83 c 1.29,0 1.84,-0.57 1.84,-1.43 0,-0.86 -0.56,-1.23 -1.88,-1.66 -1.45,-0.5 -2.26,-1 -2.26,-2.2 0,-1.29 0.93,-2.03 2.37,-2.03 1.56,0 2.25,0.72 2.25,0.72 l -0.34,0.6 c 0,0 -0.66,-0.63 -1.91,-0.63 -0.97,0 -1.74,0.46 -1.74,1.34 0,0.75 0.57,1.07 1.88,1.51 1.57,0.51 2.26,1.12 2.26,2.34 0,1.21 -0.73,2.13 -2.45,2.13 -1.59,0 -2.34,-0.88 -2.34,-0.88 l 0.35,-0.56 c -0.01,0 0.67,0.75 1.97,0.75 z"
   id="path72" />
	<path
   class="st2"
   d="m 227.33,334.83 c 1.29,0 1.84,-0.57 1.84,-1.43 0,-0.86 -0.56,-1.23 -1.88,-1.66 -1.45,-0.5 -2.26,-1 -2.26,-2.2 0,-1.29 0.93,-2.03 2.37,-2.03 1.56,0 2.25,0.72 2.25,0.72 l -0.34,0.6 c 0,0 -0.66,-0.63 -1.91,-0.63 -0.97,0 -1.74,0.46 -1.74,1.34 0,0.75 0.57,1.07 1.88,1.51 1.57,0.51 2.26,1.12 2.26,2.34 0,1.21 -0.73,2.13 -2.45,2.13 -1.59,0 -2.34,-0.88 -2.34,-0.88 l 0.35,-0.56 c -0.01,0 0.67,0.75 1.97,0.75 z"
   id="path74" />
	<path
   class="st2"
   d="m 234.64,331.52 c 0,-2.27 1.31,-4.01 3.34,-4.01 2.03,0 3.33,1.74 3.33,4.01 0,2.25 -1.3,4 -3.33,4 -2.03,0 -3.34,-1.75 -3.34,-4 z m 6.06,0 c 0,-1.81 -1.03,-3.32 -2.72,-3.32 -1.7,0 -2.71,1.51 -2.71,3.32 0,1.8 1.02,3.31 2.71,3.31 1.69,0 2.72,-1.51 2.72,-3.31 z"
   id="path76" />
	<path
   class="st2"
   d="m 249.58,335.52 c -1.99,0 -3.38,-1.75 -3.38,-4 0,-2.27 1.38,-4.01 3.38,-4.01 1.5,0 2.24,1 2.24,1 l -0.36,0.56 c 0,0 -0.68,-0.87 -1.87,-0.87 -1.64,0 -2.76,1.51 -2.76,3.32 0,1.8 1.11,3.31 2.76,3.31 1.19,0 1.87,-0.87 1.87,-0.87 l 0.36,0.55 c 0,0 -0.73,1.01 -2.24,1.01 z"
   id="path78" />
	<path
   class="st2"
   d="m 257.01,335.34 v -7.67 h 0.62 v 7.67 z"
   id="path80" />
	<path
   class="st2"
   d="m 265.85,327.68 3.17,7.67 h -0.7 l -0.62,-1.46 h -3.84 l -0.62,1.46 h -0.69 l 3.15,-7.67 z m -0.12,1.48 -1.51,3.9 -0.06,0.14 h 3.25 l -0.06,-0.14 -1.52,-3.9 z"
   id="path82" />
	<path
   class="st2"
   d="m 277.71,327.68 v 0.68 h -2.32 v 6.99 h -0.61 v -6.99 h -2.31 v -0.68 z"
   id="path84" />
	<path
   class="st2"
   d="m 282.76,335.34 v -7.67 h 0.62 v 7.67 z"
   id="path86" />
	<path
   class="st2"
   d="m 288.74,331.52 c 0,-2.27 1.31,-4.01 3.34,-4.01 2.03,0 3.33,1.74 3.33,4.01 0,2.25 -1.3,4 -3.33,4 -2.04,0 -3.34,-1.75 -3.34,-4 z m 6.05,0 c 0,-1.81 -1.03,-3.32 -2.72,-3.32 -1.7,0 -2.71,1.51 -2.71,3.32 0,1.8 1.02,3.31 2.71,3.31 1.69,0 2.72,-1.51 2.72,-3.31 z"
   id="path88" />
	<path
   class="st2"
   d="m 306.17,335.34 -4.78,-6.11 v 6.11 h -0.62 v -7.67 h 0.2 l 4.78,6.09 v -6.09 h 0.62 v 7.67 z"
   id="path90" />
</g>
</svg>
