<?xml version="1.0" encoding="UTF-8" standalone="no"?>
<!-- Generator: Adobe Illustrator 26.3.1, SVG Export Plug-In . SVG Version: 6.00 Build 0)  -->

<svg
   version="1.1"
   id="Layer_1"
   x="0px"
   y="0px"
   viewBox="0 0 178.10353 98.974044"
   xml:space="preserve"
   sodipodi:docname="stea_logo_no_horse_border.svg"
   width="178.10353"
   height="98.974045"
   inkscape:version="1.2.1 (9c6d41e410, 2022-07-14, custom)"
   inkscape:export-filename="stea_logo_no_horse_border.png"
   inkscape:export-xdpi="160"
   inkscape:export-ydpi="160"
   xmlns:inkscape="http://www.inkscape.org/namespaces/inkscape"
   xmlns:sodipodi="http://sodipodi.sourceforge.net/DTD/sodipodi-0.dtd"
   xmlns="http://www.w3.org/2000/svg"
   xmlns:svg="http://www.w3.org/2000/svg"><defs
   id="defs97" /><sodipodi:namedview
   id="namedview95"
   pagecolor="#ffffff"
   bordercolor="#000000"
   borderopacity="0.25"
   inkscape:showpageshadow="2"
   inkscape:pageopacity="0"
   inkscape:pagecheckerboard="0"
   inkscape:deskcolor="#d1d1d1"
   showgrid="false"
   inkscape:zoom="5.8203516"
   inkscape:cx="64.686814"
   inkscape:cy="43.639975"
   inkscape:window-width="2552"
   inkscape:window-height="1406"
   inkscape:window-x="3"
   inkscape:window-y="29"
   inkscape:window-maximized="1"
   inkscape:current-layer="Layer_1" />
<style
   type="text/css"
   id="style2">
	.st0{fill:#0033A1;}
	.st1{fill:#3D4543;stroke:#FFFFFF;stroke-width:1.3341;stroke-miterlimit:10;}
	.st2{fill:#3D4543;}
	.st3{fill:#FFFFFF;}
</style>

<g
   id="g14"
   transform="translate(-166.98,-236.54595)">
	<path
   class="st0"
   d="m 180.94,290.62 c -6.41,0 -10.45,-1.98 -11.9,-2.82 -0.92,-1.68 -1.91,-7.09 -2.06,-10.68 0.38,-0.53 1.53,-0.69 1.83,-0.23 1.14,3.89 4.27,11.37 13.12,11.37 6.41,0 9.54,-4.2 9.54,-8.77 0,-3.36 -0.69,-7.09 -6.26,-10.68 l -7.25,-4.73 c -3.81,-2.52 -8.24,-6.87 -8.24,-13.12 0,-7.25 5.65,-13.12 15.56,-13.12 2.36,0 5.11,0.46 7.09,0.99 0.99,0.31 2.06,0.46 2.67,0.46 0.69,1.83 1.37,6.1 1.37,9.31 -0.31,0.46 -1.53,0.69 -1.91,0.23 -0.99,-3.66 -3.05,-8.62 -10.38,-8.62 -7.48,0 -9.08,4.96 -9.08,8.47 0,4.42 3.66,7.63 6.48,9.38 l 6.1,3.81 c 4.81,2.98 9.54,7.4 9.54,14.65 0.03,8.38 -6.3,14.1 -16.22,14.1 z"
   id="path6" />
	<path
   class="st0"
   d="m 229.23,277.96 c 0,8.01 0.15,9.15 4.58,9.54 l 2.44,0.23 c 0.46,0.31 0.31,1.68 -0.15,1.91 -4.35,-0.15 -6.94,-0.23 -9.99,-0.23 -3.05,0 -5.72,0.08 -10.6,0.23 -0.46,-0.23 -0.61,-1.53 0,-1.91 l 2.75,-0.23 c 4.35,-0.38 4.73,-1.53 4.73,-9.54 v -34.1 c 0,-2.37 0,-2.44 -2.29,-2.44 h -4.2 c -3.28,0 -7.48,0.15 -9.38,1.91 -1.83,1.68 -2.59,3.36 -3.43,5.26 -0.61,0.46 -1.68,0.08 -1.98,-0.53 1.22,-3.43 2.36,-8.32 2.9,-11.37 0.23,-0.15 1.22,-0.23 1.45,0 0.46,2.44 2.98,2.36 6.48,2.36 h 30.9 c 4.12,0 4.81,-0.15 5.95,-2.14 0.38,-0.15 1.22,-0.08 1.37,0.23 -0.84,3.13 -1.37,9.31 -1.14,11.6 -0.31,0.61 -1.6,0.61 -1.98,0.15 -0.23,-1.91 -0.76,-4.73 -1.91,-5.57 -1.75,-1.3 -4.65,-1.91 -8.85,-1.91 h -5.42 c -2.29,0 -2.21,0.08 -2.21,2.59 v 33.96 z"
   id="path8" />
	<path
   class="st0"
   d="m 261.27,250.5 c 0,-7.93 -0.15,-9.08 -4.65,-9.61 l -1.22,-0.15 c -0.46,-0.3 -0.3,-1.68 0.15,-1.91 3.28,0.15 5.87,0.23 9,0.23 h 14.34 c 4.88,0 9.38,0 10.3,-0.23 0.46,1.3 0.92,6.79 1.22,10.15 -0.31,0.46 -1.53,0.61 -1.91,0.15 -1.14,-3.59 -1.83,-6.26 -5.8,-7.25 -1.6,-0.38 -4.04,-0.46 -7.4,-0.46 h -5.49 c -2.29,0 -2.29,0.15 -2.29,3.05 v 15.26 c 0,2.14 0.23,2.14 2.52,2.14 h 4.42 c 3.2,0 5.57,-0.15 6.48,-0.46 0.92,-0.31 1.45,-0.76 1.83,-2.67 l 0.61,-3.13 c 0.38,-0.46 1.68,-0.46 1.98,0.08 0,1.83 -0.31,4.81 -0.31,7.71 0,2.75 0.31,5.64 0.31,7.32 -0.31,0.53 -1.6,0.53 -1.98,0.08 l -0.69,-2.98 c -0.31,-1.37 -0.84,-2.52 -2.37,-2.9 -1.07,-0.3 -2.9,-0.38 -5.87,-0.38 h -4.42 c -2.29,0 -2.52,0.08 -2.52,2.06 v 10.76 c 0,4.04 0.23,6.64 1.45,7.93 0.92,0.92 2.52,1.75 9.23,1.75 5.87,0 8.09,-0.31 9.76,-1.14 1.37,-0.76 3.43,-3.43 5.42,-7.4 0.53,-0.38 1.6,-0.15 1.91,0.53 -0.53,2.67 -2.44,8.54 -3.43,10.6 -6.87,-0.15 -13.66,-0.23 -20.44,-0.23 h -6.87 c -3.28,0 -5.87,0.08 -10.37,0.23 -0.46,-0.23 -0.61,-1.45 -0.15,-1.91 l 2.52,-0.23 c 4.35,-0.38 4.73,-1.53 4.73,-9.54 z"
   id="path10" />
	<path
   class="st0"
   d="m 327.11,271.7 c -0.53,-1.68 -0.84,-1.91 -3.13,-1.91 h -11.52 c -1.91,0 -2.36,0.23 -2.9,1.83 l -2.67,8.01 c -1.14,3.43 -1.68,5.49 -1.68,6.33 0,0.92 0.38,1.37 2.21,1.53 l 2.52,0.23 c 0.53,0.38 0.53,1.6 -0.15,1.91 -1.98,-0.15 -4.35,-0.15 -7.93,-0.23 -2.52,0 -5.26,0.15 -7.32,0.23 -0.46,-0.31 -0.61,-1.53 -0.15,-1.91 l 2.52,-0.23 c 1.83,-0.15 3.51,-0.99 4.58,-3.74 1.37,-3.51 3.51,-8.47 6.71,-17.01 l 7.78,-20.6 c 1.07,-2.75 1.53,-4.2 1.3,-5.42 1.83,-0.53 3.13,-1.91 3.97,-2.9 0.46,0 0.99,0.15 1.14,0.69 0.99,3.36 2.21,6.87 3.36,10.22 l 10.45,30.67 c 2.21,6.56 3.2,7.7 6.48,8.09 l 2.06,0.23 c 0.53,0.38 0.38,1.6 0,1.91 -3.13,-0.15 -5.8,-0.23 -9.23,-0.23 -3.66,0 -6.56,0.15 -8.77,0.23 -0.61,-0.31 -0.69,-1.53 -0.15,-1.91 l 2.21,-0.23 c 1.6,-0.15 2.67,-0.61 2.67,-1.37 0,-0.84 -0.38,-2.21 -0.99,-4.04 z M 312,264.91 c -0.61,1.75 -0.53,1.83 1.6,1.83 h 9.38 c 2.21,0 2.36,-0.31 1.68,-2.37 l -4.12,-12.43 c -0.61,-1.83 -1.3,-3.89 -1.75,-4.81 h -0.15 c -0.23,0.38 -0.99,2.21 -1.83,4.5 z"
   id="path12" />
</g>








<g
   id="g68"
   transform="translate(-166.98,-236.54595)"
   style="stroke-width:0.125;stroke-dasharray:none">
	<path
   class="st0"
   d="m 180.47,317.82 c -0.32,-0.49 -0.56,-2.11 -0.54,-3.57 0.11,-0.23 0.41,-0.26 0.56,-0.09 0.32,1.2 1.29,3.71 3.05,3.71 1.36,0 2.13,-1.08 2.13,-2.51 0,-1.34 -0.48,-2.42 -1.83,-3.4 l -0.77,-0.56 c -1.35,-0.99 -2.53,-2.42 -2.53,-4.53 0,-2.32 1.33,-4.3 3.95,-4.3 0.93,0 1.62,0.28 2.46,0.49 0.2,0.52 0.38,2.07 0.38,3.17 -0.09,0.21 -0.41,0.23 -0.57,0.07 -0.27,-1.22 -0.9,-2.79 -2.42,-2.79 -1.44,0 -2.03,1.22 -2.03,2.46 0,0.99 0.52,2.04 1.7,2.86 l 1.11,0.78 c 1.17,0.8 2.46,2.25 2.46,4.62 0,2.68 -1.56,4.58 -4.16,4.58 -1.66,0 -2.59,-0.7 -2.95,-0.99 z"
   id="path32"
   style="fill:#ffffff;fill-opacity:1;stroke-width:0.125;stroke-dasharray:none;stroke:#000000;stroke-opacity:1" />
	<path
   class="st0"
   d="m 196.36,313.69 c 0,3.33 -1.79,5.07 -3.93,5.07 -2.06,0 -3.78,-1.71 -3.78,-4.79 0,-3.15 1.83,-5.12 3.93,-5.12 2.02,0.01 3.78,1.79 3.78,4.84 z m -3.71,4.13 c 1.24,0 1.6,-1.93 1.6,-3.73 0,-1.97 -0.52,-4.3 -1.85,-4.3 -0.91,0 -1.63,1.22 -1.63,3.83 -0.01,2.14 0.58,4.2 1.88,4.2 z"
   id="path34"
   style="fill:#ffffff;fill-opacity:1;stroke-width:0.125;stroke-dasharray:none;stroke:#000000;stroke-opacity:1" />
	<path
   class="st0"
   d="m 204.89,314.98 c 0,1.32 0.02,2.49 0.45,2.49 0.25,0 0.52,-0.07 0.77,-0.17 0.14,0.12 0.18,0.61 -0.05,0.8 -0.79,0.12 -2.17,0.42 -2.94,0.89 -0.09,-0.02 -0.14,-0.12 -0.16,-0.23 0.04,-0.28 0.07,-0.63 0.05,-0.87 -0.02,-0.19 -0.07,-0.26 -0.18,-0.26 -0.75,0.59 -1.54,1.13 -2.44,1.13 -1.62,0 -2.13,-1.17 -2.13,-3.12 v -3.66 c 0,-1.64 -0.07,-1.83 -0.52,-2 l -0.25,-0.09 c -0.11,-0.12 -0.11,-0.54 0.04,-0.61 1.08,-0.02 2.1,-0.23 2.49,-0.42 0.09,0.02 0.16,0.09 0.18,0.21 -0.04,0.28 -0.05,0.85 -0.05,2 v 3.62 c 0,1.38 0.2,2.68 1.47,2.68 0.41,0 0.88,-0.21 1.18,-0.59 0.18,-0.23 0.22,-0.45 0.22,-1.31 v -3.55 c 0,-1.5 -0.11,-1.6 -0.79,-1.88 l -0.29,-0.12 c -0.13,-0.12 -0.13,-0.54 0.02,-0.63 1.2,-0.02 2.46,-0.19 2.82,-0.42 0.09,0.02 0.16,0.09 0.18,0.21 -0.04,0.45 -0.05,1.13 -0.05,2 v 3.9 z"
   id="path36"
   style="fill:#ffffff;fill-opacity:1;stroke-width:0.125;stroke-dasharray:none;stroke:#000000;stroke-opacity:1" />
	<path
   class="st0"
   d="m 209.96,310.22 c -0.32,0 -0.34,0.05 -0.34,0.8 v 3.62 c 0,1.48 0.16,2.79 1.31,2.79 0.36,0 0.57,-0.16 0.86,-0.42 0.16,0.02 0.27,0.21 0.23,0.47 -0.36,0.66 -1.18,1.29 -2.28,1.29 -1.7,0 -2.01,-1.29 -2.01,-2.93 v -4.77 c 0,-0.82 -0.04,-0.85 -0.32,-0.85 h -0.63 c -0.18,-0.12 -0.22,-0.49 -0.05,-0.63 0.61,-0.3 1.02,-0.61 1.42,-0.99 0.34,-0.33 0.74,-0.82 0.99,-1.46 0.16,-0.14 0.41,-0.07 0.5,0.12 v 1.41 c 0,0.38 0,0.45 0.34,0.45 h 1.78 c 0.11,0.07 0.14,0.26 0.14,0.49 -0.02,0.28 -0.09,0.49 -0.23,0.61 z"
   id="path38"
   style="fill:#ffffff;fill-opacity:1;stroke-width:0.125;stroke-dasharray:none;stroke:#000000;stroke-opacity:1" />
	<path
   class="st0"
   d="m 215.25,309.58 c 0,0.28 0.04,0.4 0.16,0.4 0.63,-0.61 1.4,-1.13 2.3,-1.13 1.54,0 2.3,1.29 2.3,3.29 v 3.5 c 0,1.74 0.07,2.02 0.68,2.11 l 0.41,0.07 c 0.16,0.16 0.14,0.59 -0.04,0.68 -0.75,-0.05 -1.36,-0.07 -2.03,-0.07 -0.59,0 -1.2,0.02 -1.83,0.07 -0.14,-0.09 -0.16,-0.52 -0.04,-0.68 l 0.27,-0.05 c 0.61,-0.12 0.68,-0.4 0.68,-2.14 v -3.31 c 0,-1.13 -0.38,-2.07 -1.44,-2.07 -0.59,0 -1.01,0.37 -1.22,0.68 -0.2,0.28 -0.22,0.63 -0.22,1.55 v 3.15 c 0,1.74 0.07,2.02 0.68,2.14 l 0.27,0.05 c 0.13,0.16 0.11,0.59 -0.04,0.68 -0.63,-0.05 -1.24,-0.07 -1.9,-0.07 -0.57,0 -1.18,0.02 -1.94,0.07 -0.14,-0.09 -0.16,-0.52 -0.04,-0.68 l 0.39,-0.07 c 0.61,-0.12 0.68,-0.37 0.68,-2.11 v -10.07 c 0,-1.57 -0.04,-1.71 -0.41,-2.04 l -0.25,-0.21 c -0.11,-0.09 -0.13,-0.47 0,-0.54 0.7,-0.26 1.62,-0.75 2.35,-1.13 0.11,-0.02 0.22,0.07 0.25,0.19 -0.04,0.94 -0.05,2.39 -0.05,3.4 v 4.34 z"
   id="path40"
   style="fill:#ffffff;fill-opacity:1;stroke-width:0.125;stroke-dasharray:none;stroke:#000000;stroke-opacity:1" />
	<path
   class="st0"
   d="m 231.52,304.91 c 0,-0.99 -0.02,-1.03 -0.48,-1.03 h -1 c -1.65,0 -2.13,0.26 -2.8,2.16 -0.13,0.14 -0.5,0.07 -0.57,-0.17 0.3,-1.27 0.57,-2.72 0.7,-3.54 0.04,-0.07 0.11,-0.09 0.2,-0.09 0.07,0 0.14,0.02 0.18,0.09 0.09,0.59 0.34,0.61 1.56,0.61 h 7.32 c 0.88,0 1.15,-0.07 1.36,-0.61 0.07,-0.05 0.14,-0.09 0.22,-0.09 0.11,0 0.2,0.05 0.23,0.12 -0.18,0.96 -0.32,2.98 -0.27,3.73 -0.09,0.19 -0.4,0.23 -0.56,0.07 -0.23,-1.83 -0.57,-2.28 -2.49,-2.28 h -1.02 c -0.47,0 -0.48,0.05 -0.48,1.03 v 10.14 c 0,2.49 0.16,2.56 1,2.67 l 0.65,0.09 c 0.13,0.16 0.11,0.59 -0.04,0.68 -1.04,-0.05 -1.85,-0.07 -2.64,-0.07 -0.79,0 -1.63,0.02 -2.78,0.07 -0.14,-0.09 -0.16,-0.56 -0.04,-0.68 l 0.75,-0.12 c 0.84,-0.14 1,-0.16 1,-2.65 z"
   id="path42"
   style="fill:#ffffff;fill-opacity:1;stroke-width:0.125;stroke-dasharray:none;stroke:#000000;stroke-opacity:1" />
	<path
   class="st0"
   d="m 239.06,312.87 c -0.34,0 -0.38,0.02 -0.38,0.3 0,2.11 1.11,3.8 2.71,3.8 0.72,0 1.31,-0.3 1.72,-1.17 0.18,-0.07 0.38,0.17 0.4,0.38 -0.61,1.88 -1.94,2.58 -3.03,2.58 -2.08,0 -3.46,-2.02 -3.46,-4.7 0,-2.65 1.38,-5.21 3.78,-5.21 1.33,0 2.69,1.13 2.69,3.17 0,0.21 -0.02,0.35 -0.09,0.54 -0.11,0.21 -0.52,0.31 -1.24,0.31 z m 1.65,-0.94 c 0.52,0 0.75,-0.07 0.88,-0.16 0.11,-0.09 0.18,-0.28 0.18,-0.49 0,-0.85 -0.41,-1.53 -1.18,-1.53 -1.2,0 -1.76,1.53 -1.76,2.02 0,0.09 0.04,0.16 0.25,0.16 z"
   id="path44"
   style="fill:#ffffff;fill-opacity:1;stroke-width:0.125;stroke-dasharray:none;stroke:#000000;stroke-opacity:1" />
	<path
   class="st0"
   d="m 247.22,309.91 c -0.16,0.05 -0.34,0.09 -0.34,0.21 0,0.09 0.04,0.23 0.14,0.44 0.07,0.14 0.57,1.1 0.99,1.81 0.34,-0.66 0.79,-1.48 0.95,-1.88 0.05,-0.09 0.11,-0.26 0.11,-0.37 0,-0.12 -0.13,-0.16 -0.31,-0.24 l -0.36,-0.09 c -0.16,-0.16 -0.14,-0.59 0.04,-0.68 0.54,0.05 1.08,0.07 1.62,0.07 0.52,0 1.04,-0.02 1.45,-0.07 0.18,0.12 0.2,0.51 0.04,0.68 l -0.48,0.12 c -0.72,0.16 -0.97,0.38 -1.47,1.2 l -0.84,1.38 c -0.16,0.28 -0.27,0.47 -0.27,0.56 0,0.09 0.09,0.31 0.23,0.56 l 1.4,2.58 c 0.74,1.36 0.86,1.43 1.79,1.62 0.11,0.24 0.09,0.56 -0.04,0.68 -0.59,-0.05 -1.31,-0.07 -2.03,-0.07 -0.77,0 -1.47,0.02 -2.04,0.07 -0.18,-0.09 -0.2,-0.52 -0.05,-0.68 l 0.43,-0.12 c 0.2,-0.05 0.41,-0.12 0.41,-0.23 0,-0.12 -0.05,-0.26 -0.2,-0.54 -0.16,-0.3 -0.61,-1.2 -1.08,-2.02 -0.41,0.73 -0.66,1.27 -1.01,2 -0.14,0.33 -0.18,0.47 -0.18,0.59 0,0.12 0.13,0.19 0.32,0.23 l 0.41,0.09 c 0.14,0.19 0.11,0.59 -0.04,0.68 -0.45,-0.02 -0.95,-0.07 -1.63,-0.07 -0.61,0 -1.04,0.02 -1.45,0.07 -0.16,-0.12 -0.2,-0.56 -0.04,-0.68 0.75,-0.14 1.2,-0.23 1.52,-0.75 0.32,-0.49 1.26,-2.09 1.38,-2.35 0.16,-0.3 0.29,-0.54 0.29,-0.63 0,-0.09 -0.13,-0.35 -0.32,-0.68 l -1.45,-2.53 c -0.45,-0.8 -0.65,-0.92 -1.44,-1.08 -0.14,-0.14 -0.13,-0.59 0.04,-0.68 0.68,0.05 1.11,0.07 1.88,0.07 0.66,0 1.31,-0.02 1.9,-0.07 0.18,0.07 0.2,0.56 0.05,0.68 z"
   id="path46"
   style="fill:#ffffff;fill-opacity:1;stroke-width:0.125;stroke-dasharray:none;stroke:#000000;stroke-opacity:1" />
	<path
   class="st0"
   d="m 257.82,315.45 c -0.05,1.36 0.22,2.07 0.86,2.07 0.31,0 0.56,-0.26 0.61,-0.26 0.09,0 0.22,0.26 0.16,0.47 -0.36,0.66 -1.24,1.03 -1.79,1.03 -0.45,0 -0.95,-0.16 -1.29,-0.66 -0.13,-0.16 -0.2,-0.28 -0.29,-0.28 -0.09,0 -0.22,0.12 -0.48,0.33 -0.34,0.28 -0.88,0.61 -1.52,0.61 -1.22,0 -1.83,-1.1 -1.83,-2.28 0,-0.85 0.25,-1.62 1.49,-2.18 0.63,-0.28 1.31,-0.61 1.97,-0.94 0.36,-0.16 0.41,-0.38 0.41,-0.61 l 0.02,-0.61 c 0.04,-1.2 -0.22,-2.23 -1.09,-2.23 -0.5,0 -0.88,0.35 -0.95,1.03 -0.04,0.44 -0.14,0.68 -0.34,0.85 -0.25,0.21 -0.75,0.42 -1.15,0.42 -0.23,0 -0.34,-0.16 -0.34,-0.38 0,-0.28 0.11,-0.78 0.7,-1.5 0.56,-0.68 1.85,-1.48 2.76,-1.48 1.42,0 2.3,0.87 2.22,2.93 z m -1.76,-0.8 c 0,-0.26 -0.05,-0.4 -0.14,-0.4 -0.14,0 -0.47,0.12 -0.79,0.28 -0.5,0.23 -0.97,0.56 -0.97,1.57 0,0.61 0.32,1.36 1,1.36 0.65,0 0.84,-0.56 0.86,-1.13 z"
   id="path48"
   style="fill:#ffffff;fill-opacity:1;stroke-width:0.125;stroke-dasharray:none;stroke:#000000;stroke-opacity:1" />
	<path
   class="st0"
   d="m 260.07,318.01 c -0.18,-0.45 -0.29,-1.64 -0.25,-2.65 0.11,-0.19 0.38,-0.21 0.5,-0.05 0.32,1.32 0.99,2.56 1.94,2.56 0.56,0 1,-0.49 1,-1.31 0,-0.87 -0.59,-1.43 -1.22,-1.83 -0.93,-0.59 -1.9,-1.45 -1.9,-2.96 -0.02,-1.83 1.19,-2.91 2.67,-2.91 0.74,0 1.42,0.28 1.67,0.47 0.18,0.49 0.27,1.22 0.27,2.28 -0.05,0.19 -0.36,0.26 -0.48,0.12 -0.27,-1.08 -0.84,-1.97 -1.54,-1.97 -0.57,0 -1,0.54 -1,1.22 0,0.68 0.52,1.17 1.2,1.6 0.97,0.61 1.99,1.41 1.99,3.26 0,2.04 -1.38,2.93 -2.8,2.93 -0.74,-0.01 -1.47,-0.19 -2.05,-0.76 z"
   id="path50"
   style="fill:#ffffff;fill-opacity:1;stroke-width:0.125;stroke-dasharray:none;stroke:#000000;stroke-opacity:1" />
	<path
   class="st0"
   d="m 271.92,306.32 c 0,-2.49 -0.16,-2.58 -1.01,-2.72 l -0.29,-0.05 c -0.13,-0.16 -0.11,-0.59 0.04,-0.68 0.68,0.05 1.52,0.07 2.31,0.07 h 3.43 c 1.15,0 2.19,-0.02 2.42,-0.07 0.07,0.4 0.18,2.25 0.29,3.26 -0.07,0.19 -0.43,0.24 -0.57,0.09 -0.29,-1.36 -0.56,-1.93 -1.13,-2.14 -0.41,-0.14 -0.95,-0.21 -1.43,-0.21 h -1.2 c -0.77,0 -0.77,0.05 -0.77,1.39 v 3.97 c 0,0.61 0.02,0.63 0.43,0.63 h 0.86 c 1.56,0 1.83,-0.02 1.99,-1.03 l 0.13,-0.8 c 0.14,-0.16 0.49,-0.16 0.57,0.02 -0.02,0.63 -0.05,1.48 -0.05,2.35 0,0.89 0.04,1.71 0.05,2.47 -0.09,0.16 -0.43,0.16 -0.57,0.02 l -0.13,-0.94 c -0.13,-0.99 -0.43,-1.03 -1.99,-1.03 h -0.86 c -0.41,0 -0.43,0.05 -0.43,0.63 v 2.98 c 0,1.2 0.04,2.04 0.3,2.44 0.22,0.33 0.52,0.49 2.03,0.52 2.28,0.02 2.67,-0.63 3.3,-2.53 0.16,-0.16 0.47,-0.09 0.57,0.14 -0.11,0.99 -0.5,2.77 -0.75,3.4 -0.79,-0.05 -2.33,-0.07 -4.43,-0.07 h -2.05 c -0.79,0 -1.88,0.02 -2.69,0.07 -0.14,-0.09 -0.16,-0.52 -0.04,-0.68 l 0.66,-0.09 c 0.84,-0.12 1.01,-0.19 1.01,-2.67 z"
   id="path52"
   style="fill:#ffffff;fill-opacity:1;stroke-width:0.125;stroke-dasharray:none;stroke:#000000;stroke-opacity:1" />
	<path
   class="st0"
   d="m 284.85,315.88 c -0.29,0.85 -0.63,1.95 -0.84,2.75 -0.07,0.09 -0.18,0.14 -0.31,0.14 -0.13,0 -0.23,-0.05 -0.32,-0.14 -0.18,-0.66 -0.47,-1.57 -0.68,-2.18 -0.39,-1.15 -1.38,-4.11 -1.72,-5.09 -0.36,-1.01 -0.56,-1.31 -1.09,-1.46 l -0.34,-0.09 c -0.13,-0.16 -0.11,-0.56 0.04,-0.68 0.63,0.05 1.26,0.07 1.88,0.07 0.81,0 1.34,-0.02 1.97,-0.07 0.18,0.09 0.2,0.51 0.04,0.68 l -0.32,0.07 c -0.25,0.05 -0.45,0.12 -0.45,0.26 0,0.14 0.04,0.4 0.14,0.75 0.25,0.87 1.17,3.78 1.43,4.48 0.43,-1.17 0.86,-2.61 1.33,-4.08 0.18,-0.59 0.25,-0.89 0.25,-1.06 0,-0.17 -0.16,-0.26 -0.38,-0.3 l -0.43,-0.12 c -0.14,-0.19 -0.13,-0.59 0.07,-0.68 0.54,0.05 0.99,0.07 1.51,0.07 0.47,0 0.91,-0.02 1.31,-0.07 0.16,0.09 0.18,0.51 0.04,0.68 l -0.36,0.09 c -0.54,0.14 -0.79,0.31 -1.35,1.9 z"
   id="path54"
   style="fill:#ffffff;fill-opacity:1;stroke-width:0.125;stroke-dasharray:none;stroke:#000000;stroke-opacity:1" />
	<path
   class="st0"
   d="m 289.92,312.87 c -0.34,0 -0.38,0.02 -0.38,0.3 0,2.11 1.11,3.8 2.71,3.8 0.72,0 1.31,-0.3 1.72,-1.17 0.18,-0.07 0.38,0.17 0.39,0.38 -0.61,1.88 -1.94,2.58 -3.03,2.58 -2.08,0 -3.46,-2.02 -3.46,-4.7 0,-2.65 1.38,-5.21 3.79,-5.21 1.33,0 2.69,1.13 2.69,3.17 0,0.21 -0.02,0.35 -0.09,0.54 -0.11,0.21 -0.52,0.31 -1.24,0.31 z m 1.66,-0.94 c 0.52,0 0.75,-0.07 0.88,-0.16 0.11,-0.09 0.18,-0.28 0.18,-0.49 0,-0.85 -0.41,-1.53 -1.19,-1.53 -1.2,0 -1.76,1.53 -1.76,2.02 0,0.09 0.04,0.16 0.25,0.16 z"
   id="path56"
   style="fill:#ffffff;fill-opacity:1;stroke-width:0.125;stroke-dasharray:none;stroke:#000000;stroke-opacity:1" />
	<path
   class="st0"
   d="m 298.12,315.64 c 0,1.74 0.07,2.02 0.68,2.14 l 0.27,0.05 c 0.13,0.16 0.11,0.59 -0.04,0.68 -0.63,-0.05 -1.24,-0.07 -1.9,-0.07 -0.57,0 -1.18,0.02 -1.94,0.07 -0.14,-0.09 -0.16,-0.52 -0.04,-0.68 l 0.4,-0.07 c 0.61,-0.12 0.68,-0.37 0.68,-2.11 v -3.45 c 0,-1.06 0,-1.34 -0.45,-1.69 l -0.21,-0.16 c -0.06,-0.09 -0.06,-0.42 0.02,-0.54 0.77,-0.28 1.76,-0.84 2.33,-1.27 0.13,0 0.2,0.09 0.23,0.19 -0.04,0.45 -0.04,0.89 -0.04,1.08 0,0.17 0.05,0.21 0.16,0.24 0.84,-0.61 1.35,-1.17 2.46,-1.17 1.45,0 2.13,1.31 2.13,3.15 v 3.64 c 0,1.74 0.07,2.02 0.68,2.11 l 0.41,0.07 c 0.13,0.16 0.11,0.59 -0.04,0.68 -0.75,-0.05 -1.36,-0.07 -2.03,-0.07 -0.59,0 -1.2,0.02 -1.83,0.07 -0.14,-0.09 -0.16,-0.52 -0.04,-0.68 l 0.27,-0.05 c 0.61,-0.12 0.68,-0.4 0.68,-2.14 v -3.24 c 0,-1.2 -0.36,-2.14 -1.44,-2.14 -0.56,0 -1,0.37 -1.18,0.73 -0.23,0.42 -0.25,0.63 -0.25,1.5 v 3.13 z"
   id="path58"
   style="fill:#ffffff;fill-opacity:1;stroke-width:0.125;stroke-dasharray:none;stroke:#000000;stroke-opacity:1" />
	<path
   class="st0"
   d="m 307.94,310.22 c -0.32,0 -0.34,0.05 -0.34,0.8 v 3.62 c 0,1.48 0.16,2.79 1.31,2.79 0.36,0 0.57,-0.16 0.86,-0.42 0.16,0.02 0.27,0.21 0.23,0.47 -0.36,0.66 -1.18,1.29 -2.28,1.29 -1.7,0 -2.01,-1.29 -2.01,-2.93 v -4.77 c 0,-0.82 -0.04,-0.85 -0.32,-0.85 h -0.63 c -0.18,-0.12 -0.21,-0.49 -0.05,-0.63 0.61,-0.3 1.02,-0.61 1.42,-0.99 0.34,-0.33 0.73,-0.82 0.99,-1.46 0.16,-0.14 0.41,-0.07 0.5,0.12 v 1.41 c 0,0.38 0,0.45 0.34,0.45 h 1.78 c 0.11,0.07 0.14,0.26 0.14,0.49 -0.02,0.28 -0.09,0.49 -0.23,0.61 z"
   id="path60"
   style="fill:#ffffff;fill-opacity:1;stroke-width:0.125;stroke-dasharray:none;stroke:#000000;stroke-opacity:1" />
	<path
   class="st0"
   d="m 313.43,315.64 c 0,1.74 0.07,1.97 0.68,2.11 l 0.32,0.07 c 0.13,0.16 0.11,0.59 -0.04,0.68 -0.66,-0.05 -1.27,-0.07 -1.94,-0.07 -0.59,0 -1.2,0.02 -1.88,0.07 -0.14,-0.09 -0.16,-0.52 -0.04,-0.68 l 0.32,-0.07 c 0.61,-0.14 0.68,-0.37 0.68,-2.11 v -3.45 c 0,-1.06 0,-1.34 -0.45,-1.69 l -0.21,-0.16 c -0.05,-0.09 -0.05,-0.42 0.02,-0.54 0.93,-0.35 1.83,-0.87 2.33,-1.27 0.11,0.02 0.2,0.07 0.25,0.19 -0.04,0.78 -0.05,1.9 -0.05,2.86 v 4.06 z m -2.05,-10.35 c 0,-0.8 0.45,-1.41 1.09,-1.41 0.65,0 1.09,0.61 1.09,1.41 0,0.8 -0.45,1.41 -1.09,1.41 -0.64,0 -1.09,-0.61 -1.09,-1.41 z"
   id="path62"
   style="fill:#ffffff;fill-opacity:1;stroke-width:0.125;stroke-dasharray:none;stroke:#000000;stroke-opacity:1" />
	<path
   class="st0"
   d="m 318.23,315.64 c 0,1.74 0.07,2.02 0.68,2.14 l 0.27,0.05 c 0.13,0.16 0.11,0.59 -0.04,0.68 -0.63,-0.05 -1.24,-0.07 -1.9,-0.07 -0.57,0 -1.18,0.02 -1.94,0.07 -0.14,-0.09 -0.16,-0.52 -0.04,-0.68 l 0.4,-0.07 c 0.61,-0.12 0.68,-0.37 0.68,-2.11 v -3.45 c 0,-1.06 0,-1.34 -0.45,-1.69 l -0.21,-0.16 c -0.06,-0.09 -0.06,-0.42 0.02,-0.54 0.77,-0.28 1.76,-0.84 2.33,-1.27 0.13,0 0.2,0.09 0.23,0.19 -0.04,0.45 -0.04,0.89 -0.04,1.08 0,0.17 0.05,0.21 0.16,0.24 0.84,-0.61 1.35,-1.17 2.46,-1.17 1.45,0 2.13,1.31 2.13,3.15 v 3.64 c 0,1.74 0.07,2.02 0.68,2.11 l 0.41,0.07 c 0.13,0.16 0.11,0.59 -0.04,0.68 -0.75,-0.05 -1.36,-0.07 -2.03,-0.07 -0.59,0 -1.2,0.02 -1.83,0.07 -0.14,-0.09 -0.16,-0.52 -0.04,-0.68 l 0.27,-0.05 c 0.61,-0.12 0.68,-0.4 0.68,-2.14 v -3.24 c 0,-1.2 -0.36,-2.14 -1.44,-2.14 -0.56,0 -1,0.37 -1.18,0.73 -0.23,0.42 -0.25,0.63 -0.25,1.5 v 3.13 z"
   id="path64"
   style="fill:#ffffff;fill-opacity:1;stroke-width:0.125;stroke-dasharray:none;stroke:#000000;stroke-opacity:1" />
	<path
   class="st0"
   d="m 331.29,310.92 c 0.05,0.23 0.09,0.49 0.09,1.01 0,1.97 -1,3.87 -3.28,3.87 -0.22,0 -0.45,-0.05 -0.68,-0.09 -0.29,0.19 -0.56,0.49 -0.56,0.92 0,0.47 0.25,0.92 0.99,0.92 0.52,0 1.2,-0.05 1.97,-0.05 1.29,0 2.92,0.28 2.92,2.84 0,1.22 -0.65,2.37 -1.13,2.86 -0.79,0.85 -1.94,1.55 -3.48,1.55 -2.53,0 -3.35,-1.55 -3.35,-2.77 0,-0.35 0.04,-0.66 0.25,-1.01 0.16,-0.24 0.84,-0.75 1.11,-1.06 0.14,-0.14 0.27,-0.44 0.11,-0.52 -0.63,-0.28 -1.19,-1.03 -1.19,-1.95 0,-0.23 0.07,-0.42 0.29,-0.59 0.27,-0.19 1.15,-0.92 1.15,-1.24 0,-0.07 0,-0.21 -0.07,-0.26 -0.61,-0.33 -1.33,-1.27 -1.33,-2.79 0,-2.11 1.35,-3.71 3.28,-3.71 0.72,0 1.35,0.19 1.81,0.49 0.38,0.23 0.57,0.35 0.79,0.35 h 1.76 c 0.07,0.07 0.14,0.23 0.14,0.42 0,0.47 -0.14,0.75 -0.29,0.8 h -1.3 z m -3.02,8.67 c -0.63,0 -1,0.07 -1.22,0.28 -0.3,0.3 -0.54,0.73 -0.54,1.31 0,1.43 0.97,2.37 2.35,2.37 1.52,0 2.38,-0.82 2.38,-2.18 0,-1.2 -0.84,-1.78 -1.95,-1.78 z m 0.15,-4.68 c 0.68,0 1.18,-0.78 1.18,-2.42 0,-1.6 -0.52,-2.75 -1.33,-2.75 -0.63,0 -1.18,0.78 -1.18,2.39 0,1.82 0.65,2.78 1.33,2.78 z"
   id="path66"
   style="fill:#ffffff;fill-opacity:1;stroke-width:0.125;stroke-dasharray:none;stroke:#000000;stroke-opacity:1" />
</g>
<g
   id="g92"
   transform="translate(-166.98,-236.54595)"
   style="stroke-width:0.075;stroke-dasharray:none">
	<path
   class="st2"
   d="m 207.85,327.68 3.17,7.67 h -0.7 l -0.62,-1.46 h -3.84 l -0.62,1.46 h -0.69 l 3.15,-7.67 z m -0.12,1.48 -1.51,3.9 -0.06,0.14 h 3.26 l -0.06,-0.14 -1.52,-3.9 z"
   id="path70"
   style="fill:#fefefe;fill-opacity:1;stroke-width:0.075;stroke-dasharray:none;stroke:#000000;stroke-opacity:1" />
	<path
   class="st2"
   d="m 217.68,334.83 c 1.29,0 1.84,-0.57 1.84,-1.43 0,-0.86 -0.56,-1.23 -1.88,-1.66 -1.45,-0.5 -2.26,-1 -2.26,-2.2 0,-1.29 0.93,-2.03 2.37,-2.03 1.56,0 2.25,0.72 2.25,0.72 l -0.34,0.6 c 0,0 -0.66,-0.63 -1.91,-0.63 -0.97,0 -1.74,0.46 -1.74,1.34 0,0.75 0.57,1.07 1.88,1.51 1.57,0.51 2.26,1.12 2.26,2.34 0,1.21 -0.73,2.13 -2.45,2.13 -1.59,0 -2.34,-0.88 -2.34,-0.88 l 0.35,-0.56 c -0.01,0 0.67,0.75 1.97,0.75 z"
   id="path72"
   style="fill:#fefefe;fill-opacity:1;stroke-width:0.075;stroke-dasharray:none;stroke:#000000;stroke-opacity:1" />
	<path
   class="st2"
   d="m 227.33,334.83 c 1.29,0 1.84,-0.57 1.84,-1.43 0,-0.86 -0.56,-1.23 -1.88,-1.66 -1.45,-0.5 -2.26,-1 -2.26,-2.2 0,-1.29 0.93,-2.03 2.37,-2.03 1.56,0 2.25,0.72 2.25,0.72 l -0.34,0.6 c 0,0 -0.66,-0.63 -1.91,-0.63 -0.97,0 -1.74,0.46 -1.74,1.34 0,0.75 0.57,1.07 1.88,1.51 1.57,0.51 2.26,1.12 2.26,2.34 0,1.21 -0.73,2.13 -2.45,2.13 -1.59,0 -2.34,-0.88 -2.34,-0.88 l 0.35,-0.56 c -0.01,0 0.67,0.75 1.97,0.75 z"
   id="path74"
   style="fill:#fefefe;fill-opacity:1;stroke-width:0.075;stroke-dasharray:none;stroke:#000000;stroke-opacity:1" />
	<path
   class="st2"
   d="m 234.64,331.52 c 0,-2.27 1.31,-4.01 3.34,-4.01 2.03,0 3.33,1.74 3.33,4.01 0,2.25 -1.3,4 -3.33,4 -2.03,0 -3.34,-1.75 -3.34,-4 z m 6.06,0 c 0,-1.81 -1.03,-3.32 -2.72,-3.32 -1.7,0 -2.71,1.51 -2.71,3.32 0,1.8 1.02,3.31 2.71,3.31 1.69,0 2.72,-1.51 2.72,-3.31 z"
   id="path76"
   style="fill:#fefefe;fill-opacity:1;stroke-width:0.075;stroke-dasharray:none;stroke:#000000;stroke-opacity:1" />
	<path
   class="st2"
   d="m 249.58,335.52 c -1.99,0 -3.38,-1.75 -3.38,-4 0,-2.27 1.38,-4.01 3.38,-4.01 1.5,0 2.24,1 2.24,1 l -0.36,0.56 c 0,0 -0.68,-0.87 -1.87,-0.87 -1.64,0 -2.76,1.51 -2.76,3.32 0,1.8 1.11,3.31 2.76,3.31 1.19,0 1.87,-0.87 1.87,-0.87 l 0.36,0.55 c 0,0 -0.73,1.01 -2.24,1.01 z"
   id="path78"
   style="fill:#fefefe;fill-opacity:1;stroke-width:0.075;stroke-dasharray:none;stroke:#000000;stroke-opacity:1" />
	<path
   class="st2"
   d="m 257.01,335.34 v -7.67 h 0.62 v 7.67 z"
   id="path80"
   style="fill:#fefefe;fill-opacity:1;stroke-width:0.075;stroke-dasharray:none;stroke:#000000;stroke-opacity:1" />
	<path
   class="st2"
   d="m 265.85,327.68 3.17,7.67 h -0.7 l -0.62,-1.46 h -3.84 l -0.62,1.46 h -0.69 l 3.15,-7.67 z m -0.12,1.48 -1.51,3.9 -0.06,0.14 h 3.25 l -0.06,-0.14 -1.52,-3.9 z"
   id="path82"
   style="fill:#fefefe;fill-opacity:1;stroke-width:0.075;stroke-dasharray:none;stroke:#000000;stroke-opacity:1" />
	<path
   class="st2"
   d="m 277.71,327.68 v 0.68 h -2.32 v 6.99 h -0.61 v -6.99 h -2.31 v -0.68 z"
   id="path84"
   style="fill:#fefefe;fill-opacity:1;stroke-width:0.075;stroke-dasharray:none;stroke:#000000;stroke-opacity:1" />
	<path
   class="st2"
   d="m 282.76,335.34 v -7.67 h 0.62 v 7.67 z"
   id="path86"
   style="fill:#fefefe;fill-opacity:1;stroke-width:0.075;stroke-dasharray:none;stroke:#000000;stroke-opacity:1" />
	<path
   class="st2"
   d="m 288.74,331.52 c 0,-2.27 1.31,-4.01 3.34,-4.01 2.03,0 3.33,1.74 3.33,4.01 0,2.25 -1.3,4 -3.33,4 -2.04,0 -3.34,-1.75 -3.34,-4 z m 6.05,0 c 0,-1.81 -1.03,-3.32 -2.72,-3.32 -1.7,0 -2.71,1.51 -2.71,3.32 0,1.8 1.02,3.31 2.71,3.31 1.69,0 2.72,-1.51 2.72,-3.31 z"
   id="path88"
   style="fill:#fefefe;fill-opacity:1;stroke-width:0.075;stroke-dasharray:none;stroke:#000000;stroke-opacity:1" />
	<path
   class="st2"
   d="m 306.17,335.34 -4.78,-6.11 v 6.11 h -0.62 v -7.67 h 0.2 l 4.78,6.09 v -6.09 h 0.62 v 7.67 z"
   id="path90"
   style="fill:#fefefe;fill-opacity:1;stroke-width:0.075;stroke-dasharray:none;stroke:#000000;stroke-opacity:1" />
</g>
<path
   style="opacity:1;fill:#ffffff;fill-opacity:1;stroke:#000000;stroke-width:0.125;stroke-opacity:1;stroke-dasharray:none"
   d="m 87.029735,52.827211 c -0.191357,-0.23057 -0.223396,-1.310476 -0.04385,-1.477884 0.06682,-0.0623 0.996207,-0.20056 2.065308,-0.307246 1.0691,-0.106685 2.221889,-0.276586 2.561753,-0.377557 1.241715,-0.368908 1.937375,-1.137047 2.313931,-2.55501 0.3879,-1.460681 0.424728,-3.572738 0.37814,-21.685728 C 94.263274,10.193633 94.238454,8.2929194 94.057753,7.4881062 93.56314,5.2851881 92.569026,4.6007779 89.354917,4.2503831 88.920595,4.2030342 88.496904,4.10902 88.41338,4.0414624 88.214916,3.8809358 88.217415,2.840251 88.41692,2.567412 c 0.145908,-0.1995405 0.403805,-0.2046723 4.221731,-0.084006 4.62755,0.1462545 22.607839,0.1569254 26.723969,0.01586 1.50342,-0.051524 2.76944,-0.060903 2.81337,-0.020842 0.20051,0.1828586 0.47744,2.4193294 1.14007,9.207166 0.0725,0.742799 0.0691,0.753837 -0.2939,0.941538 -0.44245,0.228796 -0.99122,0.245441 -1.25503,0.03807 -0.10625,-0.08352 -0.42246,-0.835235 -0.70268,-1.670469 -0.68828,-2.0515274 -1.2314,-3.0592103 -2.1472,-3.9837871 -1.86896,-1.8868725 -4.11183,-2.2634232 -13.03987,-2.1892434 -3.3201,0.027585 -4.62651,0.078348 -4.8164,0.187149 -0.14331,0.082113 -0.32099,0.3226181 -0.39484,0.5344557 -0.18951,0.5436409 -0.18893,18.8052708 6.1e-4,19.2212768 0.0742,0.162822 0.2681,0.35674 0.43093,0.430927 0.38286,0.174444 9.62283,0.182591 11.15784,0.0098 2.8035,-0.31551 3.1303,-0.674201 3.83162,-4.205464 0.35249,-1.774857 0.41758,-1.97425 0.68408,-2.095679 0.38396,-0.174943 0.80044,-0.170044 1.20474,0.01417 l 0.32562,0.148366 -0.1073,2.494013 c -0.13713,3.187207 -0.13687,7.306544 6.1e-4,10.350485 l 0.10795,2.389482 -0.48721,0.145971 c -0.37165,0.111346 -0.58795,0.112727 -0.91189,0.0058 -0.42368,-0.13983 -0.42542,-0.14345 -0.75161,-1.563543 -0.68959,-3.002207 -0.99081,-3.660268 -1.92643,-4.208579 -0.9876,-0.578772 -2.28572,-0.698452 -7.80113,-0.719222 -4.53956,-0.0171 -5.01613,1.22e-4 -5.37097,0.194148 -0.27445,0.150059 -0.41114,0.329371 -0.46305,0.607443 -0.0405,0.216995 -0.0526,4.057419 -0.0268,8.534277 0.0407,7.066742 0.0736,8.251845 0.24943,8.990161 0.48323,2.028924 1.14445,2.871826 2.71329,3.458803 1.74232,0.651885 5.78359,0.931646 10.68993,0.740019 5.78508,-0.225945 7.05459,-0.686429 9.02161,-3.272373 0.89057,-1.170788 1.60299,-2.284591 2.49642,-3.902921 0.38733,-0.701597 0.76587,-1.315797 0.84121,-1.364888 0.39952,-0.260355 1.65617,0.15194 1.65519,0.543053 -0.002,0.681416 -2.15991,7.593979 -3.00655,9.629763 l -0.35367,0.850421 -5.57865,-0.06074 c -8.31263,-0.09051 -25.686942,-0.07339 -29.103601,0.02868 -2.69449,0.0805 -3.009878,0.06954 -3.158705,-0.109788 z"
   id="path4234" /><path
   style="opacity:1;fill:#ffffff;fill-opacity:1;stroke:#000000;stroke-width:0.125;stroke-opacity:1;stroke-dasharray:none"
   d="m 48.299777,52.684725 c -0.17288,-0.417369 -0.09345,-1.135691 0.147045,-1.329881 0.08176,-0.06601 0.914025,-0.184466 1.849488,-0.263231 4.131947,-0.347901 4.941082,-0.871506 5.487147,-3.550817 0.187587,-0.920416 0.210046,-2.805512 0.251579,-21.11701 0.02508,-11.058506 0.0117,-20.3397586 -0.02974,-20.625005 -0.138851,-0.9557955 -0.04782,-0.9400614 -5.400551,-0.9334597 -3.847924,0.00475 -4.930926,0.044038 -6.079148,0.2205561 -1.627759,0.2502383 -2.989255,0.6756438 -3.77999,1.1810753 -1.240089,0.7926557 -2.525213,2.4501461 -3.529062,4.5516133 -0.666997,1.396297 -0.902488,1.567419 -1.698897,1.23452 -0.658207,-0.27513 -0.772209,-0.485607 -0.556054,-1.02662 0.520893,-1.3037406 1.860231,-6.4651075 2.40417,-9.2648803 0.149288,-0.76841582 0.326779,-1.46808987 0.394425,-1.55483119 0.07709,-0.0988519 0.327189,-0.14419275 0.670124,-0.12148867 0.496961,0.03290132 0.559305,0.07255209 0.679897,0.43241212 0.18133,0.54111284 0.727315,1.20022064 1.198235,1.44649914 1.119884,0.5856687 0.572804,0.5680823 19.160258,0.6159241 17.731741,0.045639 20.280708,-0.00181 21.22362,-0.3951055 0.524017,-0.2185699 1.152964,-0.7849334 1.508808,-1.35867482 0.295232,-0.47601521 0.592129,-0.58195594 1.131788,-0.40385256 0.393787,0.12996132 0.407827,0.15449632 0.300521,0.52511908 -0.459902,1.5884541 -0.951189,5.7903503 -1.03977,8.8929949 -0.07782,2.7258757 -0.08048,2.7334947 -0.953284,2.7334947 -0.765889,0 -0.885361,-0.157584 -1.105265,-1.457864 C 80.262272,9.5028611 79.703275,7.8217306 79.236368,7.2103245 78.745697,6.5678015 77.490629,5.8742044 76.176322,5.5192298 74.121105,4.964147 73.455232,4.9060849 68.351016,4.836888 63.22212,4.767356 62.638446,4.810128 62.390359,5.2736841 c -0.177312,0.3313091 -0.182205,40.7179689 -0.0051,41.9600719 0.417071,2.924821 1.166368,3.472217 5.283916,3.860143 0.868644,0.08184 1.619518,0.209208 1.668609,0.283046 0.147234,0.221458 0.104351,1.226397 -0.06204,1.453957 -0.145914,0.19955 -0.41534,0.203598 -4.586198,0.06891 -4.152318,-0.13409 -9.518698,-0.101255 -14.280201,0.08738 l -1.95226,0.07734 -0.157319,-0.379802 z"
   id="path4236" /><path
   style="opacity:1;fill:#ffffff;fill-opacity:1;stroke:#000000;stroke-width:0.125;stroke-opacity:1;stroke-dasharray:none"
   d="M 10.879389,53.870132 C 7.6275474,53.505557 3.1347329,52.105712 2.1925618,51.163541 1.4981182,50.469097 0.46289146,45.669364 0.11465137,41.5295 L 0.03124476,40.537967 0.40442744,40.344986 c 0.39685637,-0.205223 0.95775186,-0.250071 1.20022206,-0.09597 0.080732,0.05131 0.3441777,0.665508 0.5854353,1.364887 1.4657078,4.248927 4.1119972,7.527729 7.2516838,8.984974 3.3475414,1.553718 7.6823234,1.540115 10.7220254,-0.03365 1.844337,-0.954878 3.408643,-2.895737 4.009443,-4.974579 0.470821,-1.629092 0.441286,-4.437208 -0.06613,-6.287498 -0.557108,-2.031497 -2.068076,-4.1965 -4.018062,-5.757315 -0.558429,-0.44698 -2.874102,-2.022063 -5.14594,-3.500187 C 10.118594,26.906685 8.9335766,26.044114 7.4871762,24.618506 5.0513381,22.21768 3.5657368,19.593967 3.0286625,16.744346 2.7256123,15.136416 2.8386178,12.402715 3.2677665,10.960212 4.3289869,7.3931194 6.5018728,4.8515138 9.962071,3.1299431 12.553915,1.8404095 15.32367,1.3188947 18.991567,1.429787 c 2.293831,0.06935 3.844555,0.2933617 6.457261,0.9327919 0.833558,0.2040039 1.71525,0.3709162 1.959316,0.3709162 0.244065,0 0.507257,0.076515 0.58487,0.1700325 0.414568,0.4995253 1.173329,4.8909837 1.303724,7.5455314 0.08897,1.811199 0.06381,1.868437 -0.867475,1.973406 -0.693743,0.07819 -0.832018,-0.04163 -1.083882,-0.939269 C 26.308553,7.7879706 24.08993,5.2225891 21.062957,4.2188634 18.824012,3.4764431 15.749994,3.4203669 13.587109,4.0824893 10.04074,5.1681372 8.0804377,7.9391344 8.0525561,11.90589 c -0.010127,1.44074 0.1066533,2.095824 0.5945981,3.335435 0.6773393,1.720762 2.4165858,3.831613 4.3521338,5.282004 0.467731,0.350492 2.627192,1.747945 4.798802,3.10545 2.17161,1.357506 4.46411,2.84974 5.094444,3.316078 1.487441,1.100445 3.23611,2.79716 4.220908,4.095498 0.995467,1.312405 2.121838,3.593002 2.550103,5.163269 0.311786,1.143191 0.331319,1.365448 0.330981,3.766149 -3.64e-4,2.372835 -0.02267,2.633727 -0.319325,3.730408 -1.435281,5.305892 -5.641299,8.857894 -11.84531,10.003417 -1.277532,0.235887 -5.441926,0.335666 -6.950502,0.166534 z"
   id="path4238" /><path
   style="opacity:1;fill:#ffffff;fill-opacity:1;stroke:#000000;stroke-width:0.125;stroke-opacity:1;stroke-dasharray:none"
   d="m 127.36923,52.765085 c -0.17527,-0.327513 -0.20113,-1.27464 -0.039,-1.428194 0.0612,-0.05801 0.79474,-0.168609 1.62997,-0.245787 1.72297,-0.159206 2.25547,-0.277163 3.03543,-0.672401 0.68647,-0.347856 1.70382,-1.411558 2.10198,-2.197744 0.32524,-0.642209 4.11058,-9.984537 5.32382,-13.139353 1.78734,-4.647667 10.30349,-27.2614897 10.53493,-27.9745188 0.30152,-0.9289333 0.52545,-2.2472583 0.44224,-2.6036356 -0.0498,-0.2131921 0.0875,-0.320196 0.90413,-0.7048753 0.71777,-0.3381021 1.22468,-0.7014063 1.99174,-1.4274919 1.60805,-1.52215317 1.72801,-1.44285761 2.75372,1.8202747 0.8738,2.7798434 12.99104,38.4160099 13.87995,40.8201939 0.88197,2.385447 1.58031,3.682579 2.45844,4.566456 0.92922,0.935303 1.59353,1.194431 3.73992,1.458836 1.13934,0.14035 1.65589,0.254606 1.76327,0.390019 0.1934,0.243908 0.19518,0.888988 0.004,1.309446 -0.14751,0.323761 -0.1531,0.325002 -1.12377,0.249236 -2.19069,-0.170992 -9.99024,-0.222546 -13.4281,-0.08876 l -3.58392,0.139476 -0.2126,-0.259668 c -0.24693,-0.30158 -0.28135,-1.069325 -0.0607,-1.35458 0.11036,-0.142703 0.53104,-0.235345 1.53941,-0.339007 2.30703,-0.23717 3.31698,-0.611749 3.48814,-1.293717 0.0426,-0.169758 -0.01,-0.75383 -0.11691,-1.297938 -0.21333,-1.085711 -4.22425,-13.591122 -4.59321,-14.320891 -0.47044,-0.930494 -8.5e-4,-0.878744 -8.29985,-0.914711 -8.27189,-0.03585 -7.95296,-0.06583 -8.53275,0.8022 -0.29253,0.437945 -3.35665,9.563689 -4.17205,12.425406 -0.27388,0.961204 -0.5287,2.131546 -0.56626,2.600761 -0.0636,0.794214 -0.0462,0.879372 0.25163,1.233323 0.38449,0.456945 0.87926,0.587185 2.93041,0.771395 1.22508,0.11002 1.49181,0.170892 1.67047,0.381218 0.26302,0.309643 0.27112,0.729736 0.0233,1.208966 l -0.18931,0.366085 -1.26543,-0.08477 c -1.81375,-0.121495 -10.37331,-0.130841 -12.40965,-0.01355 -1.72216,0.09919 -1.72265,0.09915 -1.87296,-0.181707 z m 29.33509,-22.557833 c 0.80845,-0.07349 0.99283,-0.132557 1.19568,-0.383075 0.18796,-0.23212 0.22338,-0.401986 0.16375,-0.785265 -0.0804,-0.516441 -4.69486,-14.502348 -5.6228,-17.041906 -0.3119,-0.853575 -0.61066,-1.488236 -0.70058,-1.488236 -0.20405,0 -1.11654,2.22933 -2.73496,6.681877 -4.62167,12.714973 -4.58561,12.605724 -4.23517,12.831676 0.0912,0.05878 0.54843,0.13903 1.01616,0.17834 1.23403,0.103713 9.7926,0.108877 10.91792,0.0066 z"
   id="path4240" /></svg>
